M48
;DRILL file {KiCad 4.0.4-stable} date 06/22/17 13:57:44
;FORMAT={-:-/ absolute / inch / decimal}
FMAT,2
INCH,TZ
T1C0.016
T2C0.031
T3C0.032
T4C0.032
T5C0.039
T6C0.039
T7C0.040
T8C0.118
%
G90
G05
M72
T1
X0.595Y2.835
X0.69Y2.845
T2
X0.174Y1.4503
X0.175Y1.5681
X0.175Y1.3319
X0.9242Y0.6856
X1.125Y0.725
T3
X0.3Y2.075
X0.3Y0.875
X0.4Y2.075
X0.4Y0.875
X0.475Y1.525
X0.475Y1.4
X0.5Y2.075
X0.5Y0.875
X0.6Y2.075
X0.6Y0.875
X0.65Y2.625
X0.65Y2.5
X0.7Y2.075
X0.7Y0.875
X0.775Y1.525
X0.775Y1.4
X0.775Y0.525
X0.775Y0.425
X0.8Y2.075
X0.8Y0.875
X0.9Y2.075
X0.9Y0.875
X0.95Y2.625
X0.95Y2.5
X1.Y2.075
X1.Y0.875
X1.075Y0.525
X1.075Y0.425
X1.1Y2.075
X1.1Y0.875
X1.2Y2.075
X1.2Y0.875
X1.3Y2.075
X1.3Y0.875
X1.4Y2.075
X1.4Y0.875
X1.5Y2.075
X1.5Y0.875
X1.6Y2.075
X1.6Y0.875
X1.7Y2.075
X1.7Y0.875
T4
X0.25Y3.6
X0.25Y3.5
X0.25Y2.325
X0.25Y2.225
X0.45Y3.825
X0.55Y3.825
X0.65Y3.825
X0.75Y3.825
X1.45Y0.485
X1.45Y0.4063
X1.55Y0.485
X1.55Y0.4063
T6
X0.15Y3.325
X0.225Y3.155
X0.225Y2.955
X0.225Y2.755
X0.225Y2.555
X0.235Y3.325
X0.275Y0.185
X0.405Y0.75
X0.475Y0.185
X0.775Y0.75
X0.825Y0.2
X0.85Y3.15
X0.925Y0.2
X0.95Y3.15
X1.025Y0.2
X1.05Y3.15
X1.15Y3.15
X1.275Y0.75
X1.625Y3.725
X1.625Y3.625
X1.625Y3.525
X1.625Y3.425
X1.625Y3.325
X1.625Y3.125
X1.625Y2.925
X1.625Y2.4
X1.625Y2.2
X1.645Y0.75
X1.925Y3.125
X1.925Y2.925
X1.925Y2.4
X1.925Y2.2
T7
X0.3Y1.925
X0.3Y1.025
X0.4Y1.925
X0.4Y1.025
X0.5Y1.925
X0.5Y1.025
X0.6Y1.925
X0.6Y1.025
X0.7Y1.925
X0.7Y1.025
X0.8Y1.925
X0.8Y1.025
X0.9Y1.925
X0.9Y1.025
X1.Y1.925
X1.Y1.025
X1.1Y1.925
X1.1Y1.025
X1.2Y1.925
X1.2Y1.025
X1.3Y1.925
X1.3Y1.025
X1.4Y1.925
X1.4Y1.025
X1.5Y1.925
X1.5Y1.025
X1.6Y1.925
X1.6Y1.025
X1.7Y1.925
X1.7Y1.025
T8
X0.2369Y3.8252
X0.2369Y0.6756
X0.5571Y3.1114
X0.5571Y2.2256
X1.4429Y3.1114
X1.4429Y2.2256
X1.8117Y3.8252
X1.8117Y0.6756
T1
X0.2104Y1.698G85X0.1396Y1.698
G05
X0.2104Y1.202G85X0.1396Y1.202
G05
T3
X0.3309Y0.525G85X0.4191Y0.525
G05
X0.3396Y0.285G85X0.4104Y0.285
G05
X0.55Y0.4304G85X0.55Y0.3595
G05
T5
X1.2638Y0.3197G85X1.2638Y0.2803
G05
X1.7362Y0.3197G85X1.7362Y0.2803
G05
T0
M30
