G04 #@! TF.FileFunction,Soldermask,Top*
%FSLAX46Y46*%
G04 Gerber Fmt 4.6, Leading zero omitted, Abs format (unit mm)*
G04 Created by KiCad (PCBNEW 4.0.4-stable) date 06/22/17 13:57:42*
%MOMM*%
%LPD*%
G01*
G04 APERTURE LIST*
%ADD10C,0.500000*%
%ADD11C,3.400000*%
%ADD12C,2.940000*%
%ADD13R,2.432000X2.432000*%
%ADD14C,2.432000*%
%ADD15O,4.799280X2.000200*%
%ADD16O,3.801060X2.398980*%
%ADD17O,2.398980X3.801060*%
%ADD18C,2.305000*%
%ADD19R,1.400000X0.950000*%
%ADD20R,2.500580X2.500580*%
%ADD21C,2.599640*%
%ADD22C,1.797000*%
%ADD23R,1.797000X1.797000*%
%ADD24C,2.400000*%
%ADD25O,3.400000X1.600000*%
%ADD26C,2.500580*%
%ADD27R,2.899360X2.899360*%
%ADD28C,2.899360*%
%ADD29O,2.127200X2.432000*%
%ADD30C,10.010000*%
%ADD31C,1.900000*%
%ADD32O,2.400000X3.900000*%
G04 APERTURE END LIST*
D10*
D11*
X46016000Y97159000D03*
X6016000Y97159000D03*
X6016000Y17159000D03*
X46016000Y17159000D03*
D12*
X19685000Y19050000D03*
X10287000Y19050000D03*
X32385000Y19050000D03*
X41783000Y19050000D03*
D13*
X19685000Y13335000D03*
D14*
X19685000Y10795000D03*
D13*
X27305000Y13335000D03*
D14*
X27305000Y10795000D03*
D15*
X9525000Y13335000D03*
D16*
X9525000Y7239000D03*
D17*
X13970000Y10033000D03*
D14*
X11430000Y97155000D03*
X13970000Y97155000D03*
X16510000Y97155000D03*
D13*
X19050000Y97155000D03*
D14*
X6350000Y91440000D03*
D13*
X6350000Y88900000D03*
D14*
X6350000Y59055000D03*
D13*
X6350000Y56515000D03*
X29210000Y80010000D03*
D14*
X26670000Y80010000D03*
X24130000Y80010000D03*
X21590000Y80010000D03*
D11*
X36650000Y79030000D03*
X36650000Y56530000D03*
X14150000Y56530000D03*
X14150000Y79030000D03*
D18*
X28575000Y18415000D03*
X23475000Y17415000D03*
D14*
X24130000Y66675000D03*
X16510000Y66675000D03*
X24130000Y63500000D03*
X16510000Y63500000D03*
X12065000Y35560000D03*
X19685000Y35560000D03*
X12065000Y38735000D03*
X19685000Y38735000D03*
X48895000Y79375000D03*
X48895000Y74295000D03*
X41275000Y79375000D03*
X41275000Y74295000D03*
X48895000Y60960000D03*
X48895000Y55880000D03*
X41275000Y60960000D03*
X41275000Y55880000D03*
D19*
X30132000Y65974000D03*
X30132000Y64074000D03*
X27432000Y65974000D03*
X27432000Y65024000D03*
X27432000Y64074000D03*
D20*
X41275000Y94615000D03*
D21*
X41275000Y92075000D03*
X41275000Y89535000D03*
X41275000Y86995000D03*
X41275000Y84455000D03*
D22*
X43180000Y22225000D03*
X40640000Y22225000D03*
X38100000Y22225000D03*
X35560000Y22225000D03*
X33020000Y22225000D03*
D23*
X7620000Y22225000D03*
D22*
X10160000Y22225000D03*
X12700000Y22225000D03*
X15240000Y22225000D03*
X17780000Y22225000D03*
X20320000Y22225000D03*
X22860000Y22225000D03*
X25400000Y22225000D03*
X27940000Y22225000D03*
X30480000Y22225000D03*
X7620000Y52705000D03*
X10160000Y52705000D03*
X12700000Y52705000D03*
X15240000Y52705000D03*
X17780000Y52705000D03*
D23*
X43180000Y52705000D03*
D22*
X40640000Y52705000D03*
X38100000Y52705000D03*
X35560000Y52705000D03*
X33020000Y52705000D03*
X30480000Y52705000D03*
X27940000Y52705000D03*
X25400000Y52705000D03*
X22860000Y52705000D03*
X20320000Y52705000D03*
D24*
X4419600Y36837620D03*
X4445000Y33830000D03*
X4445000Y39830000D03*
D25*
X4445000Y30530000D03*
X4445000Y43130000D03*
D26*
X23495000Y5080000D03*
X20955000Y5080000D03*
D20*
X26035000Y5080000D03*
D13*
X3810000Y84455000D03*
X5969000Y84455000D03*
D27*
X5715000Y80137000D03*
D28*
X5715000Y75057000D03*
X5715000Y69977000D03*
X5715000Y64897000D03*
D29*
X7620000Y26035000D03*
X10160000Y26035000D03*
X12700000Y26035000D03*
X15240000Y26035000D03*
X17780000Y26035000D03*
X20320000Y26035000D03*
X22860000Y26035000D03*
X25400000Y26035000D03*
X27940000Y26035000D03*
X30480000Y26035000D03*
X33020000Y26035000D03*
X35560000Y26035000D03*
X38100000Y26035000D03*
X40640000Y26035000D03*
X43180000Y26035000D03*
X7620000Y48895000D03*
X38100000Y48895000D03*
X40640000Y48895000D03*
X35560000Y48895000D03*
X20320000Y48895000D03*
X17780000Y48895000D03*
X22860000Y48895000D03*
X43180000Y48895000D03*
X27940000Y48895000D03*
X25400000Y48895000D03*
X30480000Y48895000D03*
X33020000Y48895000D03*
X12700000Y48895000D03*
X15240000Y48895000D03*
X10160000Y48895000D03*
D30*
X44450000Y35687000D03*
D31*
X39370000Y12319000D03*
X36830000Y12319000D03*
X36830000Y10320020D03*
X39370000Y10320020D03*
D32*
X44099480Y7620000D03*
X32100520Y7620000D03*
D27*
X6985000Y4699000D03*
D28*
X12065000Y4699000D03*
M02*
