G04 #@! TF.FileFunction,Copper,L1,Top,Signal*
%FSLAX46Y46*%
G04 Gerber Fmt 4.6, Leading zero omitted, Abs format (unit mm)*
G04 Created by KiCad (PCBNEW 4.0.4-stable) date 06/22/17 13:57:42*
%MOMM*%
%LPD*%
G01*
G04 APERTURE LIST*
%ADD10C,0.500000*%
%ADD11C,0.010000*%
%ADD12C,2.540000*%
%ADD13R,2.032000X2.032000*%
%ADD14C,2.032000*%
%ADD15O,4.399280X1.600200*%
%ADD16O,3.401060X1.998980*%
%ADD17O,1.998980X3.401060*%
%ADD18C,1.905000*%
%ADD19R,1.000000X0.550000*%
%ADD20R,2.100580X2.100580*%
%ADD21C,2.199640*%
%ADD22C,1.397000*%
%ADD23R,1.397000X1.397000*%
%ADD24C,2.000000*%
%ADD25O,3.000000X1.200000*%
%ADD26C,2.100580*%
%ADD27R,2.499360X2.499360*%
%ADD28C,2.499360*%
%ADD29O,1.727200X2.032000*%
%ADD30C,0.010000*%
%ADD31C,1.500000*%
%ADD32O,2.000000X3.500000*%
%ADD33C,0.600000*%
%ADD34C,0.762000*%
%ADD35C,0.508000*%
%ADD36C,0.254000*%
G04 APERTURE END LIST*
D10*
D11*
G36*
X44680092Y40509486D02*
X45242908Y40464429D01*
X45717235Y40375807D01*
X45790706Y40354542D01*
X46607578Y40015299D01*
X47356366Y39535203D01*
X47886072Y39059761D01*
X48345128Y38531669D01*
X48691358Y38009757D01*
X48965748Y37429380D01*
X49035661Y37246568D01*
X49144208Y36821991D01*
X49211463Y36289005D01*
X49236724Y35703601D01*
X49219288Y35121766D01*
X49158454Y34599491D01*
X49073268Y34247667D01*
X48701352Y33380657D01*
X48208998Y32624171D01*
X47603541Y31986797D01*
X46892312Y31477122D01*
X46555847Y31299390D01*
X46177794Y31132722D01*
X45795020Y30986788D01*
X45474552Y30886533D01*
X45398332Y30868628D01*
X45040714Y30820357D01*
X44588732Y30794038D01*
X44116094Y30790998D01*
X43696508Y30812564D01*
X43518666Y30834786D01*
X43052855Y30950794D01*
X42532494Y31140168D01*
X42036263Y31371762D01*
X41766875Y31528273D01*
X41201718Y31966924D01*
X41656000Y31966924D01*
X41726788Y31896492D01*
X41916380Y31774474D01*
X42190614Y31621915D01*
X42343137Y31543590D01*
X42707528Y31368621D01*
X42977621Y31253920D01*
X43139182Y31203971D01*
X43177980Y31223259D01*
X43090224Y31308193D01*
X42953753Y31417597D01*
X42874248Y31482426D01*
X43524106Y31482426D01*
X43581397Y31345817D01*
X43691298Y31215632D01*
X43840337Y31094720D01*
X43982111Y31033979D01*
X44071631Y31043067D01*
X44070264Y31058756D01*
X44810409Y31058756D01*
X44852507Y31040848D01*
X44908702Y31058279D01*
X45095329Y31107830D01*
X45168202Y31115000D01*
X45287498Y31163093D01*
X45488601Y31287090D01*
X45599702Y31364855D01*
X45961351Y31364855D01*
X45975151Y31337793D01*
X46087851Y31369532D01*
X46101000Y31374157D01*
X46333427Y31473897D01*
X46613446Y31616799D01*
X46710457Y31671558D01*
X46986293Y31847355D01*
X47107844Y31964826D01*
X47077950Y32028769D01*
X46931496Y32044592D01*
X46691535Y31973632D01*
X46382671Y31760404D01*
X46270333Y31663529D01*
X46056421Y31467754D01*
X45961351Y31364855D01*
X45599702Y31364855D01*
X45730736Y31456572D01*
X45973129Y31641119D01*
X46175007Y31810312D01*
X46295597Y31933730D01*
X46312666Y31968844D01*
X46237142Y32015749D01*
X46046770Y32043292D01*
X45944920Y32046334D01*
X45728331Y32033663D01*
X45568297Y31974409D01*
X45409046Y31836708D01*
X45240977Y31644167D01*
X44995686Y31344620D01*
X44855149Y31154748D01*
X44810409Y31058756D01*
X44070264Y31058756D01*
X44063908Y31131645D01*
X44061401Y31136167D01*
X43927805Y31324738D01*
X43771586Y31484258D01*
X43638855Y31571900D01*
X43591026Y31573061D01*
X43524106Y31482426D01*
X42874248Y31482426D01*
X42741294Y31590836D01*
X42573504Y31728834D01*
X42243333Y31956380D01*
X42140854Y31989000D01*
X42587333Y31989000D01*
X42646398Y31904023D01*
X42794525Y31759503D01*
X42862500Y31700654D01*
X43035547Y31562491D01*
X43120722Y31528615D01*
X43156791Y31590901D01*
X43165528Y31637145D01*
X43166978Y31838541D01*
X43147019Y31925491D01*
X43108566Y31954750D01*
X43688000Y31954750D01*
X43735861Y31854433D01*
X43855633Y31676782D01*
X44011600Y31468282D01*
X44168043Y31275423D01*
X44289245Y31144691D01*
X44333199Y31115000D01*
X44350802Y31191603D01*
X44362474Y31389194D01*
X44365333Y31580667D01*
X44365333Y32046334D01*
X44534666Y32046334D01*
X44538460Y31559500D01*
X44542254Y31072667D01*
X44919460Y31493682D01*
X45110959Y31716596D01*
X45246726Y31892147D01*
X45296666Y31980515D01*
X45220958Y32019776D01*
X45029417Y32043320D01*
X44915666Y32046334D01*
X44534666Y32046334D01*
X44365333Y32046334D01*
X44026666Y32046334D01*
X43814498Y32026022D01*
X43696603Y31975259D01*
X43688000Y31954750D01*
X43108566Y31954750D01*
X43054317Y31996027D01*
X42885297Y32039738D01*
X42709992Y32048678D01*
X42598440Y32014900D01*
X42587333Y31989000D01*
X42140854Y31989000D01*
X41966739Y32044422D01*
X41922446Y32046334D01*
X41738774Y32024319D01*
X41656337Y31970928D01*
X41656000Y31966924D01*
X41201718Y31966924D01*
X41178751Y31984750D01*
X40641538Y32546899D01*
X40183426Y33176189D01*
X39916818Y33676167D01*
X40216983Y33676167D01*
X40271525Y33519396D01*
X40414001Y33280103D01*
X40614223Y32997092D01*
X40841998Y32709169D01*
X41067137Y32455136D01*
X41259450Y32273800D01*
X41356343Y32211705D01*
X41572144Y32155657D01*
X41805227Y32137382D01*
X41980318Y32160324D01*
X42016907Y32181464D01*
X41999774Y32271797D01*
X41903198Y32453151D01*
X41789663Y32625964D01*
X41587561Y32928132D01*
X41390688Y33246562D01*
X41314387Y33379834D01*
X41190949Y33588763D01*
X41151619Y33625794D01*
X41402000Y33625794D01*
X41448288Y33494777D01*
X41569069Y33270784D01*
X41737213Y32996289D01*
X41925591Y32713766D01*
X42107074Y32465691D01*
X42248437Y32300563D01*
X42463938Y32175669D01*
X42717473Y32148284D01*
X42941447Y32217490D01*
X43025560Y32299542D01*
X43917104Y32299542D01*
X43938657Y32175262D01*
X44097158Y32142559D01*
X44140489Y32147325D01*
X44243449Y32181158D01*
X44301260Y32272844D01*
X44329242Y32463513D01*
X44336356Y32616106D01*
X44533959Y32616106D01*
X44542513Y32355565D01*
X44585354Y32195479D01*
X44595014Y32183542D01*
X44709335Y32152290D01*
X44927659Y32143634D01*
X45039514Y32148264D01*
X45233913Y32166130D01*
X45367140Y32210286D01*
X45401281Y32242699D01*
X45768578Y32242699D01*
X45770044Y32203191D01*
X45884653Y32150779D01*
X46095996Y32133176D01*
X46335244Y32149644D01*
X46533570Y32199445D01*
X46559152Y32211646D01*
X46570173Y32221316D01*
X46905333Y32221316D01*
X46968506Y32137722D01*
X47127627Y32136526D01*
X47337094Y32207184D01*
X47551308Y32339154D01*
X47602497Y32382519D01*
X47765695Y32537175D01*
X47811178Y32611088D01*
X47749169Y32634450D01*
X47688500Y32636519D01*
X47534796Y32686851D01*
X47498000Y32766000D01*
X47457622Y32878749D01*
X47423382Y32893000D01*
X47327714Y32829447D01*
X47186618Y32674889D01*
X47041861Y32483480D01*
X46935208Y32309374D01*
X46905333Y32221316D01*
X46570173Y32221316D01*
X46683730Y32320951D01*
X46859473Y32526197D01*
X47029079Y32755813D01*
X47198036Y33009678D01*
X47281541Y33176100D01*
X47293586Y33304693D01*
X47248162Y33445071D01*
X47233158Y33479501D01*
X47143082Y33641840D01*
X47023344Y33717697D01*
X46812513Y33739080D01*
X46733866Y33739667D01*
X46349735Y33739667D01*
X46037582Y33007524D01*
X45906422Y32682224D01*
X45812527Y32414573D01*
X45768578Y32242699D01*
X45401281Y32242699D01*
X45475305Y32312974D01*
X45594516Y32506439D01*
X45731327Y32766000D01*
X45937740Y33165572D01*
X46063378Y33437617D01*
X46102113Y33606601D01*
X46047813Y33696991D01*
X45894350Y33733254D01*
X45635594Y33739855D01*
X45487386Y33739667D01*
X44820029Y33739667D01*
X44677347Y33440461D01*
X44605045Y33214554D01*
X44556026Y32921102D01*
X44533959Y32616106D01*
X44336356Y32616106D01*
X44339397Y32681334D01*
X44343267Y32942649D01*
X44331065Y33047350D01*
X44300355Y33007606D01*
X44283825Y32958768D01*
X44176903Y32722215D01*
X44035748Y32504316D01*
X43917104Y32299542D01*
X43025560Y32299542D01*
X43037561Y32311248D01*
X43063821Y32430477D01*
X43024298Y32626370D01*
X42911649Y32928074D01*
X42840299Y33094415D01*
X42624917Y33584513D01*
X42821638Y33584513D01*
X42875183Y33404742D01*
X42941980Y33231667D01*
X43046430Y32997408D01*
X43128587Y32843673D01*
X43160102Y32808334D01*
X43176029Y32882822D01*
X43165822Y33069869D01*
X43155234Y33159203D01*
X43071194Y33464799D01*
X42924840Y33628798D01*
X42824858Y33653704D01*
X42821638Y33584513D01*
X42624917Y33584513D01*
X42556731Y33739667D01*
X41979365Y33739667D01*
X41651564Y33729859D01*
X41467598Y33697209D01*
X41402930Y33636876D01*
X41402000Y33625794D01*
X41151619Y33625794D01*
X41077567Y33695515D01*
X40912518Y33734383D01*
X40666742Y33739667D01*
X40416660Y33728884D01*
X40253383Y33701156D01*
X40216983Y33676167D01*
X39916818Y33676167D01*
X39832607Y33834089D01*
X39622346Y34459381D01*
X39559905Y34884414D01*
X39532937Y35409934D01*
X39535590Y35612064D01*
X39767938Y35612064D01*
X39819193Y35063182D01*
X39866980Y34718815D01*
X39937670Y34394880D01*
X39996904Y34211650D01*
X40083012Y34032192D01*
X40183206Y33942802D01*
X40354760Y33912198D01*
X40551013Y33909000D01*
X40793627Y33920310D01*
X40947925Y33949257D01*
X40977244Y33972500D01*
X40960674Y34078629D01*
X40917475Y34309777D01*
X40855395Y34625154D01*
X40820447Y34798000D01*
X40713731Y35321368D01*
X40894000Y35321368D01*
X40919688Y35072483D01*
X40985716Y34755942D01*
X41075531Y34432218D01*
X41172578Y34161779D01*
X41251672Y34014834D01*
X41392018Y33952176D01*
X41673505Y33916149D01*
X41924203Y33909000D01*
X42510339Y33909000D01*
X42454597Y34226500D01*
X42384106Y34621936D01*
X42347326Y34787391D01*
X42516217Y34787391D01*
X42537315Y34702828D01*
X42606836Y34609111D01*
X42691708Y34656843D01*
X42745998Y34772429D01*
X42690344Y34855856D01*
X42577548Y34915389D01*
X42535951Y34901841D01*
X42516217Y34787391D01*
X42347326Y34787391D01*
X42325087Y34887427D01*
X42257342Y35059372D01*
X42160673Y35174170D01*
X42014879Y35268222D01*
X41821808Y35366805D01*
X41578592Y35473458D01*
X42449384Y35473458D01*
X42451274Y35468409D01*
X42497835Y35277681D01*
X42502666Y35214409D01*
X42567917Y35119388D01*
X42714607Y35098825D01*
X42869137Y35159072D01*
X42893773Y35180641D01*
X43029410Y35210381D01*
X43259605Y35167892D01*
X43537002Y35073322D01*
X43814245Y34946826D01*
X44043980Y34808553D01*
X44178850Y34678655D01*
X44196000Y34626493D01*
X44242409Y34515224D01*
X44280666Y34501667D01*
X44324910Y34579425D01*
X44355201Y34785407D01*
X44365333Y35052000D01*
X44365333Y35602334D01*
X44534666Y35602334D01*
X44534666Y35023257D01*
X44539747Y34712979D01*
X44564192Y34527883D01*
X44621807Y34423911D01*
X44726398Y34357002D01*
X44746333Y34347739D01*
X44912710Y34211390D01*
X44958000Y34080149D01*
X44972654Y33992464D01*
X45040116Y33941129D01*
X45195633Y33916583D01*
X45474454Y33909265D01*
X45589020Y33909000D01*
X46220040Y33909000D01*
X46401566Y33909000D01*
X46822783Y33909000D01*
X47079064Y33919553D01*
X47205623Y33960367D01*
X47241259Y34045181D01*
X47241307Y34057167D01*
X47189589Y34242846D01*
X47188311Y34245034D01*
X48629576Y34245034D01*
X48645587Y34155578D01*
X48713019Y34107685D01*
X48776654Y34210954D01*
X48832656Y34383660D01*
X48846715Y34456310D01*
X48803366Y34470319D01*
X48715648Y34400935D01*
X48629576Y34245034D01*
X47188311Y34245034D01*
X47120122Y34361730D01*
X47044044Y34532405D01*
X47047206Y34636897D01*
X47042310Y34740679D01*
X47005983Y34755667D01*
X46854556Y34783961D01*
X46786434Y34806607D01*
X46671888Y34791825D01*
X46574584Y34641546D01*
X46486949Y34341570D01*
X46454375Y34184167D01*
X46401566Y33909000D01*
X46220040Y33909000D01*
X46308214Y34226500D01*
X46378803Y34518146D01*
X46386439Y34682262D01*
X46329453Y34749172D01*
X46279104Y34755667D01*
X46162553Y34808460D01*
X46009361Y34939223D01*
X45855443Y35106535D01*
X45771536Y35221334D01*
X48852666Y35221334D01*
X48895000Y35179000D01*
X48937333Y35221334D01*
X48895000Y35263667D01*
X48852666Y35221334D01*
X45771536Y35221334D01*
X45736715Y35268975D01*
X45689091Y35385121D01*
X45707624Y35414764D01*
X45763721Y35465797D01*
X48627770Y35465797D01*
X48641000Y35433000D01*
X48717082Y35352230D01*
X48730663Y35348334D01*
X48767029Y35413840D01*
X48768000Y35433000D01*
X48702912Y35514414D01*
X48678336Y35517667D01*
X48627770Y35465797D01*
X45763721Y35465797D01*
X45799655Y35498487D01*
X45804666Y35524723D01*
X45726925Y35561819D01*
X45521281Y35589261D01*
X45229101Y35601994D01*
X45169666Y35602334D01*
X44534666Y35602334D01*
X44365333Y35602334D01*
X43903650Y35602334D01*
X43597532Y35584068D01*
X43328414Y35537472D01*
X43224020Y35503030D01*
X43035458Y35446104D01*
X42913080Y35496893D01*
X42906770Y35503030D01*
X42748088Y35581759D01*
X42603674Y35602334D01*
X42457802Y35573668D01*
X42449384Y35473458D01*
X41578592Y35473458D01*
X41532173Y35493813D01*
X41266587Y35578923D01*
X41126833Y35600915D01*
X40967115Y35581594D01*
X40903885Y35486649D01*
X40894000Y35321368D01*
X40713731Y35321368D01*
X40665072Y35560000D01*
X39767938Y35612064D01*
X39535590Y35612064D01*
X39540311Y35971567D01*
X39542624Y36001964D01*
X39768497Y36001964D01*
X39789394Y35853865D01*
X39868192Y35772116D01*
X39869061Y35771606D01*
X40072329Y35709376D01*
X40331550Y35693567D01*
X40555209Y35726618D01*
X40610825Y35751844D01*
X40660381Y35859407D01*
X40676695Y35936236D01*
X40867937Y35936236D01*
X40907810Y35798114D01*
X40911873Y35792834D01*
X41029275Y35697267D01*
X41165733Y35729763D01*
X41222003Y35763285D01*
X41285879Y35838943D01*
X41270834Y35904320D01*
X41872062Y35904320D01*
X41872805Y35760945D01*
X41893913Y35731310D01*
X42026584Y35693362D01*
X42162375Y35772643D01*
X42233388Y35920699D01*
X42227515Y35972045D01*
X42418000Y35972045D01*
X42444461Y35804697D01*
X42502519Y35725850D01*
X42560186Y35767602D01*
X42574106Y35815398D01*
X42551122Y35990163D01*
X42510606Y36051594D01*
X42437729Y36082348D01*
X42418000Y35972045D01*
X42227515Y35972045D01*
X42216257Y36070468D01*
X42136582Y36096684D01*
X42768180Y36096684D01*
X42772829Y35894141D01*
X42889744Y35764755D01*
X42947166Y35746753D01*
X43300645Y35706873D01*
X43702986Y35701651D01*
X44055067Y35731676D01*
X44100750Y35739917D01*
X44365333Y35792834D01*
X44365333Y36585073D01*
X44534666Y36585073D01*
X44536744Y36194216D01*
X44558852Y35941636D01*
X44624797Y35796318D01*
X44758390Y35727249D01*
X44983439Y35703414D01*
X45216557Y35696822D01*
X45475354Y35708249D01*
X45662578Y35781911D01*
X45794176Y35896102D01*
X48366564Y35896102D01*
X48383518Y35861967D01*
X48464251Y35774434D01*
X48479102Y35836163D01*
X48458549Y35902319D01*
X48396216Y35994525D01*
X48368062Y35992618D01*
X48366564Y35896102D01*
X45794176Y35896102D01*
X45858952Y35952309D01*
X45891060Y35985116D01*
X46072003Y36196478D01*
X46152280Y36385122D01*
X46164678Y36632562D01*
X46163501Y36662449D01*
X46164299Y36720730D01*
X46668321Y36720730D01*
X46692100Y36639774D01*
X46852633Y36618334D01*
X47053176Y36569818D01*
X47155410Y36496061D01*
X47303490Y36405846D01*
X47533092Y36345314D01*
X47567944Y36340960D01*
X47791011Y36315692D01*
X47936840Y36296057D01*
X47948708Y36293900D01*
X47994194Y36348657D01*
X47990311Y36427834D01*
X47975376Y36449000D01*
X48175333Y36449000D01*
X48204220Y36366535D01*
X48212669Y36364334D01*
X48284955Y36423663D01*
X48302333Y36449000D01*
X48295620Y36527019D01*
X48264996Y36533667D01*
X48178778Y36472207D01*
X48175333Y36449000D01*
X47975376Y36449000D01*
X47916036Y36533094D01*
X47722072Y36589588D01*
X47596044Y36602380D01*
X47357233Y36637200D01*
X47268523Y36700660D01*
X47272574Y36740010D01*
X47238136Y36853820D01*
X47118427Y36940945D01*
X46940812Y36983987D01*
X46801126Y36897121D01*
X46786461Y36881315D01*
X46668321Y36720730D01*
X46164299Y36720730D01*
X46166853Y36906971D01*
X46212123Y37020715D01*
X46278373Y37041667D01*
X46377907Y37105249D01*
X46381371Y37189834D01*
X46348271Y37256773D01*
X46259673Y37302224D01*
X46085947Y37331629D01*
X45797464Y37350429D01*
X45443829Y37362032D01*
X44534666Y37386063D01*
X44534666Y36585073D01*
X44365333Y36585073D01*
X44365333Y37380334D01*
X44078058Y37380334D01*
X43846808Y37343065D01*
X43742048Y37253334D01*
X43631337Y37140742D01*
X43568019Y37126334D01*
X43411616Y37066147D01*
X43226276Y36922434D01*
X43071792Y36750469D01*
X43007973Y36608625D01*
X42957675Y36452379D01*
X42880973Y36326985D01*
X42768180Y36096684D01*
X42136582Y36096684D01*
X42095096Y36110334D01*
X41959623Y36046148D01*
X41872062Y35904320D01*
X41270834Y35904320D01*
X41257278Y35963224D01*
X41182582Y36100656D01*
X41065997Y36274210D01*
X40979641Y36361782D01*
X40970282Y36364334D01*
X40906640Y36292412D01*
X40870036Y36125358D01*
X40867937Y35936236D01*
X40676695Y35936236D01*
X40710563Y36095728D01*
X40753771Y36420435D01*
X40769912Y36597215D01*
X40831174Y37380334D01*
X40452655Y37380334D01*
X40216298Y37371369D01*
X40089673Y37315679D01*
X40013218Y37170066D01*
X39969063Y37029631D01*
X39888686Y36717920D01*
X39815803Y36366176D01*
X39798556Y36264995D01*
X39768497Y36001964D01*
X39542624Y36001964D01*
X39580899Y36504937D01*
X39653568Y36945670D01*
X39666938Y36998956D01*
X39886549Y37583058D01*
X40256187Y37583058D01*
X40349969Y37492390D01*
X40534782Y37505235D01*
X40708112Y37552711D01*
X40783618Y37580397D01*
X40782016Y37666030D01*
X40759284Y37866264D01*
X40738009Y38018015D01*
X40723683Y38114327D01*
X42857488Y38114327D01*
X42948534Y38060732D01*
X43001608Y38057667D01*
X43168335Y38131955D01*
X43254548Y38344896D01*
X43264666Y38487925D01*
X43308916Y38629392D01*
X43423883Y38650446D01*
X43582893Y38569200D01*
X43759272Y38403766D01*
X43926345Y38172253D01*
X44028090Y37969563D01*
X44095016Y37767886D01*
X44075459Y37671774D01*
X44042868Y37653846D01*
X43978220Y37576189D01*
X43988802Y37542436D01*
X44048564Y37474420D01*
X44145017Y37484737D01*
X44231408Y37516392D01*
X44324986Y37641265D01*
X44361629Y37893698D01*
X44534666Y37893698D01*
X44546443Y37676739D01*
X44608922Y37574438D01*
X44762828Y37532413D01*
X44809833Y37526248D01*
X45353063Y37480185D01*
X45743438Y37495514D01*
X45978679Y37572100D01*
X46010285Y37598048D01*
X46110702Y37790343D01*
X46121391Y38030214D01*
X46056344Y38261973D01*
X45929555Y38429935D01*
X45788419Y38481000D01*
X45637837Y38538813D01*
X45568161Y38666876D01*
X45608535Y38797127D01*
X45641710Y38823609D01*
X45709352Y38917199D01*
X45692530Y38960025D01*
X45579498Y38971911D01*
X45463298Y38922295D01*
X45280341Y38839137D01*
X45179178Y38819667D01*
X45063805Y38752486D01*
X44923633Y38585106D01*
X44884551Y38523334D01*
X44754791Y38336729D01*
X44645110Y38233947D01*
X44622188Y38227000D01*
X44567025Y38151975D01*
X44536689Y37964889D01*
X44534666Y37893698D01*
X44361629Y37893698D01*
X44365021Y37917064D01*
X44350831Y38333842D01*
X44311491Y38680850D01*
X44268091Y38997492D01*
X45902764Y38997492D01*
X45937982Y38894163D01*
X46016333Y38819667D01*
X46117963Y38655164D01*
X46143333Y38514919D01*
X46218321Y38307531D01*
X46355000Y38176881D01*
X46506669Y38046984D01*
X46566666Y37937863D01*
X46633276Y37765781D01*
X46789635Y37694250D01*
X46913588Y37723419D01*
X47062356Y37826496D01*
X47112720Y37881410D01*
X47085411Y37973000D01*
X47371000Y37973000D01*
X47377712Y37894982D01*
X47408336Y37888334D01*
X47494554Y37949794D01*
X47498000Y37973000D01*
X47469113Y38055466D01*
X47460663Y38057667D01*
X47388377Y37998338D01*
X47371000Y37973000D01*
X47085411Y37973000D01*
X47084259Y37976862D01*
X46952037Y38109275D01*
X46928082Y38127332D01*
X46857082Y38184667D01*
X47582666Y38184667D01*
X47625000Y38142334D01*
X47667333Y38184667D01*
X47625000Y38227000D01*
X47582666Y38184667D01*
X46857082Y38184667D01*
X46777586Y38248862D01*
X46767381Y38283445D01*
X47864888Y38283445D01*
X47876511Y38233111D01*
X47921333Y38227000D01*
X47991023Y38257979D01*
X47977777Y38283445D01*
X47877298Y38293578D01*
X47864888Y38283445D01*
X46767381Y38283445D01*
X46751797Y38336250D01*
X46826708Y38438667D01*
X47413333Y38438667D01*
X47455666Y38396334D01*
X47498000Y38438667D01*
X47455666Y38481000D01*
X47413333Y38438667D01*
X46826708Y38438667D01*
X46835136Y38450189D01*
X46842979Y38458878D01*
X46968291Y38632047D01*
X46959928Y38773093D01*
X46849877Y38918834D01*
X46683756Y39021501D01*
X47018769Y39021501D01*
X47032333Y38989000D01*
X47144492Y38907495D01*
X47169326Y38904334D01*
X47215230Y38956500D01*
X47201666Y38989000D01*
X47089507Y39070506D01*
X47064673Y39073667D01*
X47018769Y39021501D01*
X46683756Y39021501D01*
X46669661Y39030212D01*
X46374514Y39072557D01*
X46299544Y39073667D01*
X46021276Y39055524D01*
X45902764Y38997492D01*
X44268091Y38997492D01*
X44257650Y39073667D01*
X43816614Y39073667D01*
X43515097Y39053136D01*
X43305420Y38969285D01*
X43138259Y38788727D01*
X42978543Y38506372D01*
X42867929Y38254368D01*
X42857488Y38114327D01*
X40723683Y38114327D01*
X40689692Y38342826D01*
X42592958Y38342826D01*
X42658409Y38311667D01*
X42740116Y38380324D01*
X42834828Y38542868D01*
X42902242Y38699415D01*
X42883567Y38717775D01*
X42763751Y38614413D01*
X42621761Y38453177D01*
X42592958Y38342826D01*
X40689692Y38342826D01*
X40675434Y38438667D01*
X40440015Y38070956D01*
X40285795Y37778346D01*
X40256187Y37583058D01*
X39886549Y37583058D01*
X39958444Y37774275D01*
X40395688Y38492426D01*
X40959433Y39134418D01*
X41198087Y39328911D01*
X43518666Y39328911D01*
X43594811Y39279904D01*
X43789502Y39248799D01*
X43942000Y39243000D01*
X44365333Y39243000D01*
X44365333Y39412334D01*
X45974000Y39412334D01*
X46023608Y39279549D01*
X46185666Y39243000D01*
X46344797Y39270970D01*
X46397333Y39324688D01*
X46331773Y39418343D01*
X46187291Y39521295D01*
X46042188Y39579950D01*
X46021899Y39581667D01*
X45982927Y39510487D01*
X45974000Y39412334D01*
X44365333Y39412334D01*
X44365333Y39528967D01*
X44326170Y39763313D01*
X44261133Y39874445D01*
X46102532Y39874445D01*
X46173728Y39771948D01*
X46323504Y39634193D01*
X46518442Y39486935D01*
X46725126Y39355929D01*
X46910140Y39266930D01*
X47016163Y39243230D01*
X47174810Y39268131D01*
X47200576Y39329431D01*
X47088617Y39429749D01*
X46877101Y39567982D01*
X46620334Y39714002D01*
X46372626Y39837683D01*
X46188283Y39908898D01*
X46143333Y39915929D01*
X46102532Y39874445D01*
X44261133Y39874445D01*
X44230465Y39926848D01*
X44229016Y39928066D01*
X44131962Y39979295D01*
X44026608Y39942697D01*
X43871403Y39798637D01*
X43805683Y39728010D01*
X43639805Y39531098D01*
X43536145Y39377434D01*
X43518666Y39328911D01*
X41198087Y39328911D01*
X41302945Y39414365D01*
X42649029Y39414365D01*
X42673768Y39373847D01*
X42833419Y39367257D01*
X42916226Y39369047D01*
X43112262Y39390248D01*
X43275850Y39462181D01*
X43455220Y39614529D01*
X43646047Y39818208D01*
X43829939Y40033642D01*
X43945289Y40190670D01*
X43969627Y40258339D01*
X43966031Y40259000D01*
X43848807Y40215508D01*
X43636745Y40103138D01*
X43374472Y39949052D01*
X43106613Y39780411D01*
X42877796Y39624376D01*
X42733191Y39508647D01*
X42649029Y39414365D01*
X41302945Y39414365D01*
X41530625Y39599913D01*
X42129218Y39599913D01*
X42167602Y39534994D01*
X42226826Y39473709D01*
X42293695Y39458337D01*
X42400748Y39502132D01*
X42580524Y39618349D01*
X42862500Y39818052D01*
X43077929Y39976856D01*
X43223881Y40093628D01*
X43264666Y40136187D01*
X43195141Y40133036D01*
X43018257Y40078942D01*
X42781553Y39991377D01*
X42532567Y39887814D01*
X42336967Y39795213D01*
X42164984Y39688370D01*
X42129218Y39599913D01*
X41530625Y39599913D01*
X41630445Y39681261D01*
X42389487Y40113966D01*
X43089533Y40377843D01*
X43540522Y40466735D01*
X44091670Y40510435D01*
X44680092Y40509486D01*
X44680092Y40509486D01*
G37*
X44680092Y40509486D02*
X45242908Y40464429D01*
X45717235Y40375807D01*
X45790706Y40354542D01*
X46607578Y40015299D01*
X47356366Y39535203D01*
X47886072Y39059761D01*
X48345128Y38531669D01*
X48691358Y38009757D01*
X48965748Y37429380D01*
X49035661Y37246568D01*
X49144208Y36821991D01*
X49211463Y36289005D01*
X49236724Y35703601D01*
X49219288Y35121766D01*
X49158454Y34599491D01*
X49073268Y34247667D01*
X48701352Y33380657D01*
X48208998Y32624171D01*
X47603541Y31986797D01*
X46892312Y31477122D01*
X46555847Y31299390D01*
X46177794Y31132722D01*
X45795020Y30986788D01*
X45474552Y30886533D01*
X45398332Y30868628D01*
X45040714Y30820357D01*
X44588732Y30794038D01*
X44116094Y30790998D01*
X43696508Y30812564D01*
X43518666Y30834786D01*
X43052855Y30950794D01*
X42532494Y31140168D01*
X42036263Y31371762D01*
X41766875Y31528273D01*
X41201718Y31966924D01*
X41656000Y31966924D01*
X41726788Y31896492D01*
X41916380Y31774474D01*
X42190614Y31621915D01*
X42343137Y31543590D01*
X42707528Y31368621D01*
X42977621Y31253920D01*
X43139182Y31203971D01*
X43177980Y31223259D01*
X43090224Y31308193D01*
X42953753Y31417597D01*
X42874248Y31482426D01*
X43524106Y31482426D01*
X43581397Y31345817D01*
X43691298Y31215632D01*
X43840337Y31094720D01*
X43982111Y31033979D01*
X44071631Y31043067D01*
X44070264Y31058756D01*
X44810409Y31058756D01*
X44852507Y31040848D01*
X44908702Y31058279D01*
X45095329Y31107830D01*
X45168202Y31115000D01*
X45287498Y31163093D01*
X45488601Y31287090D01*
X45599702Y31364855D01*
X45961351Y31364855D01*
X45975151Y31337793D01*
X46087851Y31369532D01*
X46101000Y31374157D01*
X46333427Y31473897D01*
X46613446Y31616799D01*
X46710457Y31671558D01*
X46986293Y31847355D01*
X47107844Y31964826D01*
X47077950Y32028769D01*
X46931496Y32044592D01*
X46691535Y31973632D01*
X46382671Y31760404D01*
X46270333Y31663529D01*
X46056421Y31467754D01*
X45961351Y31364855D01*
X45599702Y31364855D01*
X45730736Y31456572D01*
X45973129Y31641119D01*
X46175007Y31810312D01*
X46295597Y31933730D01*
X46312666Y31968844D01*
X46237142Y32015749D01*
X46046770Y32043292D01*
X45944920Y32046334D01*
X45728331Y32033663D01*
X45568297Y31974409D01*
X45409046Y31836708D01*
X45240977Y31644167D01*
X44995686Y31344620D01*
X44855149Y31154748D01*
X44810409Y31058756D01*
X44070264Y31058756D01*
X44063908Y31131645D01*
X44061401Y31136167D01*
X43927805Y31324738D01*
X43771586Y31484258D01*
X43638855Y31571900D01*
X43591026Y31573061D01*
X43524106Y31482426D01*
X42874248Y31482426D01*
X42741294Y31590836D01*
X42573504Y31728834D01*
X42243333Y31956380D01*
X42140854Y31989000D01*
X42587333Y31989000D01*
X42646398Y31904023D01*
X42794525Y31759503D01*
X42862500Y31700654D01*
X43035547Y31562491D01*
X43120722Y31528615D01*
X43156791Y31590901D01*
X43165528Y31637145D01*
X43166978Y31838541D01*
X43147019Y31925491D01*
X43108566Y31954750D01*
X43688000Y31954750D01*
X43735861Y31854433D01*
X43855633Y31676782D01*
X44011600Y31468282D01*
X44168043Y31275423D01*
X44289245Y31144691D01*
X44333199Y31115000D01*
X44350802Y31191603D01*
X44362474Y31389194D01*
X44365333Y31580667D01*
X44365333Y32046334D01*
X44534666Y32046334D01*
X44538460Y31559500D01*
X44542254Y31072667D01*
X44919460Y31493682D01*
X45110959Y31716596D01*
X45246726Y31892147D01*
X45296666Y31980515D01*
X45220958Y32019776D01*
X45029417Y32043320D01*
X44915666Y32046334D01*
X44534666Y32046334D01*
X44365333Y32046334D01*
X44026666Y32046334D01*
X43814498Y32026022D01*
X43696603Y31975259D01*
X43688000Y31954750D01*
X43108566Y31954750D01*
X43054317Y31996027D01*
X42885297Y32039738D01*
X42709992Y32048678D01*
X42598440Y32014900D01*
X42587333Y31989000D01*
X42140854Y31989000D01*
X41966739Y32044422D01*
X41922446Y32046334D01*
X41738774Y32024319D01*
X41656337Y31970928D01*
X41656000Y31966924D01*
X41201718Y31966924D01*
X41178751Y31984750D01*
X40641538Y32546899D01*
X40183426Y33176189D01*
X39916818Y33676167D01*
X40216983Y33676167D01*
X40271525Y33519396D01*
X40414001Y33280103D01*
X40614223Y32997092D01*
X40841998Y32709169D01*
X41067137Y32455136D01*
X41259450Y32273800D01*
X41356343Y32211705D01*
X41572144Y32155657D01*
X41805227Y32137382D01*
X41980318Y32160324D01*
X42016907Y32181464D01*
X41999774Y32271797D01*
X41903198Y32453151D01*
X41789663Y32625964D01*
X41587561Y32928132D01*
X41390688Y33246562D01*
X41314387Y33379834D01*
X41190949Y33588763D01*
X41151619Y33625794D01*
X41402000Y33625794D01*
X41448288Y33494777D01*
X41569069Y33270784D01*
X41737213Y32996289D01*
X41925591Y32713766D01*
X42107074Y32465691D01*
X42248437Y32300563D01*
X42463938Y32175669D01*
X42717473Y32148284D01*
X42941447Y32217490D01*
X43025560Y32299542D01*
X43917104Y32299542D01*
X43938657Y32175262D01*
X44097158Y32142559D01*
X44140489Y32147325D01*
X44243449Y32181158D01*
X44301260Y32272844D01*
X44329242Y32463513D01*
X44336356Y32616106D01*
X44533959Y32616106D01*
X44542513Y32355565D01*
X44585354Y32195479D01*
X44595014Y32183542D01*
X44709335Y32152290D01*
X44927659Y32143634D01*
X45039514Y32148264D01*
X45233913Y32166130D01*
X45367140Y32210286D01*
X45401281Y32242699D01*
X45768578Y32242699D01*
X45770044Y32203191D01*
X45884653Y32150779D01*
X46095996Y32133176D01*
X46335244Y32149644D01*
X46533570Y32199445D01*
X46559152Y32211646D01*
X46570173Y32221316D01*
X46905333Y32221316D01*
X46968506Y32137722D01*
X47127627Y32136526D01*
X47337094Y32207184D01*
X47551308Y32339154D01*
X47602497Y32382519D01*
X47765695Y32537175D01*
X47811178Y32611088D01*
X47749169Y32634450D01*
X47688500Y32636519D01*
X47534796Y32686851D01*
X47498000Y32766000D01*
X47457622Y32878749D01*
X47423382Y32893000D01*
X47327714Y32829447D01*
X47186618Y32674889D01*
X47041861Y32483480D01*
X46935208Y32309374D01*
X46905333Y32221316D01*
X46570173Y32221316D01*
X46683730Y32320951D01*
X46859473Y32526197D01*
X47029079Y32755813D01*
X47198036Y33009678D01*
X47281541Y33176100D01*
X47293586Y33304693D01*
X47248162Y33445071D01*
X47233158Y33479501D01*
X47143082Y33641840D01*
X47023344Y33717697D01*
X46812513Y33739080D01*
X46733866Y33739667D01*
X46349735Y33739667D01*
X46037582Y33007524D01*
X45906422Y32682224D01*
X45812527Y32414573D01*
X45768578Y32242699D01*
X45401281Y32242699D01*
X45475305Y32312974D01*
X45594516Y32506439D01*
X45731327Y32766000D01*
X45937740Y33165572D01*
X46063378Y33437617D01*
X46102113Y33606601D01*
X46047813Y33696991D01*
X45894350Y33733254D01*
X45635594Y33739855D01*
X45487386Y33739667D01*
X44820029Y33739667D01*
X44677347Y33440461D01*
X44605045Y33214554D01*
X44556026Y32921102D01*
X44533959Y32616106D01*
X44336356Y32616106D01*
X44339397Y32681334D01*
X44343267Y32942649D01*
X44331065Y33047350D01*
X44300355Y33007606D01*
X44283825Y32958768D01*
X44176903Y32722215D01*
X44035748Y32504316D01*
X43917104Y32299542D01*
X43025560Y32299542D01*
X43037561Y32311248D01*
X43063821Y32430477D01*
X43024298Y32626370D01*
X42911649Y32928074D01*
X42840299Y33094415D01*
X42624917Y33584513D01*
X42821638Y33584513D01*
X42875183Y33404742D01*
X42941980Y33231667D01*
X43046430Y32997408D01*
X43128587Y32843673D01*
X43160102Y32808334D01*
X43176029Y32882822D01*
X43165822Y33069869D01*
X43155234Y33159203D01*
X43071194Y33464799D01*
X42924840Y33628798D01*
X42824858Y33653704D01*
X42821638Y33584513D01*
X42624917Y33584513D01*
X42556731Y33739667D01*
X41979365Y33739667D01*
X41651564Y33729859D01*
X41467598Y33697209D01*
X41402930Y33636876D01*
X41402000Y33625794D01*
X41151619Y33625794D01*
X41077567Y33695515D01*
X40912518Y33734383D01*
X40666742Y33739667D01*
X40416660Y33728884D01*
X40253383Y33701156D01*
X40216983Y33676167D01*
X39916818Y33676167D01*
X39832607Y33834089D01*
X39622346Y34459381D01*
X39559905Y34884414D01*
X39532937Y35409934D01*
X39535590Y35612064D01*
X39767938Y35612064D01*
X39819193Y35063182D01*
X39866980Y34718815D01*
X39937670Y34394880D01*
X39996904Y34211650D01*
X40083012Y34032192D01*
X40183206Y33942802D01*
X40354760Y33912198D01*
X40551013Y33909000D01*
X40793627Y33920310D01*
X40947925Y33949257D01*
X40977244Y33972500D01*
X40960674Y34078629D01*
X40917475Y34309777D01*
X40855395Y34625154D01*
X40820447Y34798000D01*
X40713731Y35321368D01*
X40894000Y35321368D01*
X40919688Y35072483D01*
X40985716Y34755942D01*
X41075531Y34432218D01*
X41172578Y34161779D01*
X41251672Y34014834D01*
X41392018Y33952176D01*
X41673505Y33916149D01*
X41924203Y33909000D01*
X42510339Y33909000D01*
X42454597Y34226500D01*
X42384106Y34621936D01*
X42347326Y34787391D01*
X42516217Y34787391D01*
X42537315Y34702828D01*
X42606836Y34609111D01*
X42691708Y34656843D01*
X42745998Y34772429D01*
X42690344Y34855856D01*
X42577548Y34915389D01*
X42535951Y34901841D01*
X42516217Y34787391D01*
X42347326Y34787391D01*
X42325087Y34887427D01*
X42257342Y35059372D01*
X42160673Y35174170D01*
X42014879Y35268222D01*
X41821808Y35366805D01*
X41578592Y35473458D01*
X42449384Y35473458D01*
X42451274Y35468409D01*
X42497835Y35277681D01*
X42502666Y35214409D01*
X42567917Y35119388D01*
X42714607Y35098825D01*
X42869137Y35159072D01*
X42893773Y35180641D01*
X43029410Y35210381D01*
X43259605Y35167892D01*
X43537002Y35073322D01*
X43814245Y34946826D01*
X44043980Y34808553D01*
X44178850Y34678655D01*
X44196000Y34626493D01*
X44242409Y34515224D01*
X44280666Y34501667D01*
X44324910Y34579425D01*
X44355201Y34785407D01*
X44365333Y35052000D01*
X44365333Y35602334D01*
X44534666Y35602334D01*
X44534666Y35023257D01*
X44539747Y34712979D01*
X44564192Y34527883D01*
X44621807Y34423911D01*
X44726398Y34357002D01*
X44746333Y34347739D01*
X44912710Y34211390D01*
X44958000Y34080149D01*
X44972654Y33992464D01*
X45040116Y33941129D01*
X45195633Y33916583D01*
X45474454Y33909265D01*
X45589020Y33909000D01*
X46220040Y33909000D01*
X46401566Y33909000D01*
X46822783Y33909000D01*
X47079064Y33919553D01*
X47205623Y33960367D01*
X47241259Y34045181D01*
X47241307Y34057167D01*
X47189589Y34242846D01*
X47188311Y34245034D01*
X48629576Y34245034D01*
X48645587Y34155578D01*
X48713019Y34107685D01*
X48776654Y34210954D01*
X48832656Y34383660D01*
X48846715Y34456310D01*
X48803366Y34470319D01*
X48715648Y34400935D01*
X48629576Y34245034D01*
X47188311Y34245034D01*
X47120122Y34361730D01*
X47044044Y34532405D01*
X47047206Y34636897D01*
X47042310Y34740679D01*
X47005983Y34755667D01*
X46854556Y34783961D01*
X46786434Y34806607D01*
X46671888Y34791825D01*
X46574584Y34641546D01*
X46486949Y34341570D01*
X46454375Y34184167D01*
X46401566Y33909000D01*
X46220040Y33909000D01*
X46308214Y34226500D01*
X46378803Y34518146D01*
X46386439Y34682262D01*
X46329453Y34749172D01*
X46279104Y34755667D01*
X46162553Y34808460D01*
X46009361Y34939223D01*
X45855443Y35106535D01*
X45771536Y35221334D01*
X48852666Y35221334D01*
X48895000Y35179000D01*
X48937333Y35221334D01*
X48895000Y35263667D01*
X48852666Y35221334D01*
X45771536Y35221334D01*
X45736715Y35268975D01*
X45689091Y35385121D01*
X45707624Y35414764D01*
X45763721Y35465797D01*
X48627770Y35465797D01*
X48641000Y35433000D01*
X48717082Y35352230D01*
X48730663Y35348334D01*
X48767029Y35413840D01*
X48768000Y35433000D01*
X48702912Y35514414D01*
X48678336Y35517667D01*
X48627770Y35465797D01*
X45763721Y35465797D01*
X45799655Y35498487D01*
X45804666Y35524723D01*
X45726925Y35561819D01*
X45521281Y35589261D01*
X45229101Y35601994D01*
X45169666Y35602334D01*
X44534666Y35602334D01*
X44365333Y35602334D01*
X43903650Y35602334D01*
X43597532Y35584068D01*
X43328414Y35537472D01*
X43224020Y35503030D01*
X43035458Y35446104D01*
X42913080Y35496893D01*
X42906770Y35503030D01*
X42748088Y35581759D01*
X42603674Y35602334D01*
X42457802Y35573668D01*
X42449384Y35473458D01*
X41578592Y35473458D01*
X41532173Y35493813D01*
X41266587Y35578923D01*
X41126833Y35600915D01*
X40967115Y35581594D01*
X40903885Y35486649D01*
X40894000Y35321368D01*
X40713731Y35321368D01*
X40665072Y35560000D01*
X39767938Y35612064D01*
X39535590Y35612064D01*
X39540311Y35971567D01*
X39542624Y36001964D01*
X39768497Y36001964D01*
X39789394Y35853865D01*
X39868192Y35772116D01*
X39869061Y35771606D01*
X40072329Y35709376D01*
X40331550Y35693567D01*
X40555209Y35726618D01*
X40610825Y35751844D01*
X40660381Y35859407D01*
X40676695Y35936236D01*
X40867937Y35936236D01*
X40907810Y35798114D01*
X40911873Y35792834D01*
X41029275Y35697267D01*
X41165733Y35729763D01*
X41222003Y35763285D01*
X41285879Y35838943D01*
X41270834Y35904320D01*
X41872062Y35904320D01*
X41872805Y35760945D01*
X41893913Y35731310D01*
X42026584Y35693362D01*
X42162375Y35772643D01*
X42233388Y35920699D01*
X42227515Y35972045D01*
X42418000Y35972045D01*
X42444461Y35804697D01*
X42502519Y35725850D01*
X42560186Y35767602D01*
X42574106Y35815398D01*
X42551122Y35990163D01*
X42510606Y36051594D01*
X42437729Y36082348D01*
X42418000Y35972045D01*
X42227515Y35972045D01*
X42216257Y36070468D01*
X42136582Y36096684D01*
X42768180Y36096684D01*
X42772829Y35894141D01*
X42889744Y35764755D01*
X42947166Y35746753D01*
X43300645Y35706873D01*
X43702986Y35701651D01*
X44055067Y35731676D01*
X44100750Y35739917D01*
X44365333Y35792834D01*
X44365333Y36585073D01*
X44534666Y36585073D01*
X44536744Y36194216D01*
X44558852Y35941636D01*
X44624797Y35796318D01*
X44758390Y35727249D01*
X44983439Y35703414D01*
X45216557Y35696822D01*
X45475354Y35708249D01*
X45662578Y35781911D01*
X45794176Y35896102D01*
X48366564Y35896102D01*
X48383518Y35861967D01*
X48464251Y35774434D01*
X48479102Y35836163D01*
X48458549Y35902319D01*
X48396216Y35994525D01*
X48368062Y35992618D01*
X48366564Y35896102D01*
X45794176Y35896102D01*
X45858952Y35952309D01*
X45891060Y35985116D01*
X46072003Y36196478D01*
X46152280Y36385122D01*
X46164678Y36632562D01*
X46163501Y36662449D01*
X46164299Y36720730D01*
X46668321Y36720730D01*
X46692100Y36639774D01*
X46852633Y36618334D01*
X47053176Y36569818D01*
X47155410Y36496061D01*
X47303490Y36405846D01*
X47533092Y36345314D01*
X47567944Y36340960D01*
X47791011Y36315692D01*
X47936840Y36296057D01*
X47948708Y36293900D01*
X47994194Y36348657D01*
X47990311Y36427834D01*
X47975376Y36449000D01*
X48175333Y36449000D01*
X48204220Y36366535D01*
X48212669Y36364334D01*
X48284955Y36423663D01*
X48302333Y36449000D01*
X48295620Y36527019D01*
X48264996Y36533667D01*
X48178778Y36472207D01*
X48175333Y36449000D01*
X47975376Y36449000D01*
X47916036Y36533094D01*
X47722072Y36589588D01*
X47596044Y36602380D01*
X47357233Y36637200D01*
X47268523Y36700660D01*
X47272574Y36740010D01*
X47238136Y36853820D01*
X47118427Y36940945D01*
X46940812Y36983987D01*
X46801126Y36897121D01*
X46786461Y36881315D01*
X46668321Y36720730D01*
X46164299Y36720730D01*
X46166853Y36906971D01*
X46212123Y37020715D01*
X46278373Y37041667D01*
X46377907Y37105249D01*
X46381371Y37189834D01*
X46348271Y37256773D01*
X46259673Y37302224D01*
X46085947Y37331629D01*
X45797464Y37350429D01*
X45443829Y37362032D01*
X44534666Y37386063D01*
X44534666Y36585073D01*
X44365333Y36585073D01*
X44365333Y37380334D01*
X44078058Y37380334D01*
X43846808Y37343065D01*
X43742048Y37253334D01*
X43631337Y37140742D01*
X43568019Y37126334D01*
X43411616Y37066147D01*
X43226276Y36922434D01*
X43071792Y36750469D01*
X43007973Y36608625D01*
X42957675Y36452379D01*
X42880973Y36326985D01*
X42768180Y36096684D01*
X42136582Y36096684D01*
X42095096Y36110334D01*
X41959623Y36046148D01*
X41872062Y35904320D01*
X41270834Y35904320D01*
X41257278Y35963224D01*
X41182582Y36100656D01*
X41065997Y36274210D01*
X40979641Y36361782D01*
X40970282Y36364334D01*
X40906640Y36292412D01*
X40870036Y36125358D01*
X40867937Y35936236D01*
X40676695Y35936236D01*
X40710563Y36095728D01*
X40753771Y36420435D01*
X40769912Y36597215D01*
X40831174Y37380334D01*
X40452655Y37380334D01*
X40216298Y37371369D01*
X40089673Y37315679D01*
X40013218Y37170066D01*
X39969063Y37029631D01*
X39888686Y36717920D01*
X39815803Y36366176D01*
X39798556Y36264995D01*
X39768497Y36001964D01*
X39542624Y36001964D01*
X39580899Y36504937D01*
X39653568Y36945670D01*
X39666938Y36998956D01*
X39886549Y37583058D01*
X40256187Y37583058D01*
X40349969Y37492390D01*
X40534782Y37505235D01*
X40708112Y37552711D01*
X40783618Y37580397D01*
X40782016Y37666030D01*
X40759284Y37866264D01*
X40738009Y38018015D01*
X40723683Y38114327D01*
X42857488Y38114327D01*
X42948534Y38060732D01*
X43001608Y38057667D01*
X43168335Y38131955D01*
X43254548Y38344896D01*
X43264666Y38487925D01*
X43308916Y38629392D01*
X43423883Y38650446D01*
X43582893Y38569200D01*
X43759272Y38403766D01*
X43926345Y38172253D01*
X44028090Y37969563D01*
X44095016Y37767886D01*
X44075459Y37671774D01*
X44042868Y37653846D01*
X43978220Y37576189D01*
X43988802Y37542436D01*
X44048564Y37474420D01*
X44145017Y37484737D01*
X44231408Y37516392D01*
X44324986Y37641265D01*
X44361629Y37893698D01*
X44534666Y37893698D01*
X44546443Y37676739D01*
X44608922Y37574438D01*
X44762828Y37532413D01*
X44809833Y37526248D01*
X45353063Y37480185D01*
X45743438Y37495514D01*
X45978679Y37572100D01*
X46010285Y37598048D01*
X46110702Y37790343D01*
X46121391Y38030214D01*
X46056344Y38261973D01*
X45929555Y38429935D01*
X45788419Y38481000D01*
X45637837Y38538813D01*
X45568161Y38666876D01*
X45608535Y38797127D01*
X45641710Y38823609D01*
X45709352Y38917199D01*
X45692530Y38960025D01*
X45579498Y38971911D01*
X45463298Y38922295D01*
X45280341Y38839137D01*
X45179178Y38819667D01*
X45063805Y38752486D01*
X44923633Y38585106D01*
X44884551Y38523334D01*
X44754791Y38336729D01*
X44645110Y38233947D01*
X44622188Y38227000D01*
X44567025Y38151975D01*
X44536689Y37964889D01*
X44534666Y37893698D01*
X44361629Y37893698D01*
X44365021Y37917064D01*
X44350831Y38333842D01*
X44311491Y38680850D01*
X44268091Y38997492D01*
X45902764Y38997492D01*
X45937982Y38894163D01*
X46016333Y38819667D01*
X46117963Y38655164D01*
X46143333Y38514919D01*
X46218321Y38307531D01*
X46355000Y38176881D01*
X46506669Y38046984D01*
X46566666Y37937863D01*
X46633276Y37765781D01*
X46789635Y37694250D01*
X46913588Y37723419D01*
X47062356Y37826496D01*
X47112720Y37881410D01*
X47085411Y37973000D01*
X47371000Y37973000D01*
X47377712Y37894982D01*
X47408336Y37888334D01*
X47494554Y37949794D01*
X47498000Y37973000D01*
X47469113Y38055466D01*
X47460663Y38057667D01*
X47388377Y37998338D01*
X47371000Y37973000D01*
X47085411Y37973000D01*
X47084259Y37976862D01*
X46952037Y38109275D01*
X46928082Y38127332D01*
X46857082Y38184667D01*
X47582666Y38184667D01*
X47625000Y38142334D01*
X47667333Y38184667D01*
X47625000Y38227000D01*
X47582666Y38184667D01*
X46857082Y38184667D01*
X46777586Y38248862D01*
X46767381Y38283445D01*
X47864888Y38283445D01*
X47876511Y38233111D01*
X47921333Y38227000D01*
X47991023Y38257979D01*
X47977777Y38283445D01*
X47877298Y38293578D01*
X47864888Y38283445D01*
X46767381Y38283445D01*
X46751797Y38336250D01*
X46826708Y38438667D01*
X47413333Y38438667D01*
X47455666Y38396334D01*
X47498000Y38438667D01*
X47455666Y38481000D01*
X47413333Y38438667D01*
X46826708Y38438667D01*
X46835136Y38450189D01*
X46842979Y38458878D01*
X46968291Y38632047D01*
X46959928Y38773093D01*
X46849877Y38918834D01*
X46683756Y39021501D01*
X47018769Y39021501D01*
X47032333Y38989000D01*
X47144492Y38907495D01*
X47169326Y38904334D01*
X47215230Y38956500D01*
X47201666Y38989000D01*
X47089507Y39070506D01*
X47064673Y39073667D01*
X47018769Y39021501D01*
X46683756Y39021501D01*
X46669661Y39030212D01*
X46374514Y39072557D01*
X46299544Y39073667D01*
X46021276Y39055524D01*
X45902764Y38997492D01*
X44268091Y38997492D01*
X44257650Y39073667D01*
X43816614Y39073667D01*
X43515097Y39053136D01*
X43305420Y38969285D01*
X43138259Y38788727D01*
X42978543Y38506372D01*
X42867929Y38254368D01*
X42857488Y38114327D01*
X40723683Y38114327D01*
X40689692Y38342826D01*
X42592958Y38342826D01*
X42658409Y38311667D01*
X42740116Y38380324D01*
X42834828Y38542868D01*
X42902242Y38699415D01*
X42883567Y38717775D01*
X42763751Y38614413D01*
X42621761Y38453177D01*
X42592958Y38342826D01*
X40689692Y38342826D01*
X40675434Y38438667D01*
X40440015Y38070956D01*
X40285795Y37778346D01*
X40256187Y37583058D01*
X39886549Y37583058D01*
X39958444Y37774275D01*
X40395688Y38492426D01*
X40959433Y39134418D01*
X41198087Y39328911D01*
X43518666Y39328911D01*
X43594811Y39279904D01*
X43789502Y39248799D01*
X43942000Y39243000D01*
X44365333Y39243000D01*
X44365333Y39412334D01*
X45974000Y39412334D01*
X46023608Y39279549D01*
X46185666Y39243000D01*
X46344797Y39270970D01*
X46397333Y39324688D01*
X46331773Y39418343D01*
X46187291Y39521295D01*
X46042188Y39579950D01*
X46021899Y39581667D01*
X45982927Y39510487D01*
X45974000Y39412334D01*
X44365333Y39412334D01*
X44365333Y39528967D01*
X44326170Y39763313D01*
X44261133Y39874445D01*
X46102532Y39874445D01*
X46173728Y39771948D01*
X46323504Y39634193D01*
X46518442Y39486935D01*
X46725126Y39355929D01*
X46910140Y39266930D01*
X47016163Y39243230D01*
X47174810Y39268131D01*
X47200576Y39329431D01*
X47088617Y39429749D01*
X46877101Y39567982D01*
X46620334Y39714002D01*
X46372626Y39837683D01*
X46188283Y39908898D01*
X46143333Y39915929D01*
X46102532Y39874445D01*
X44261133Y39874445D01*
X44230465Y39926848D01*
X44229016Y39928066D01*
X44131962Y39979295D01*
X44026608Y39942697D01*
X43871403Y39798637D01*
X43805683Y39728010D01*
X43639805Y39531098D01*
X43536145Y39377434D01*
X43518666Y39328911D01*
X41198087Y39328911D01*
X41302945Y39414365D01*
X42649029Y39414365D01*
X42673768Y39373847D01*
X42833419Y39367257D01*
X42916226Y39369047D01*
X43112262Y39390248D01*
X43275850Y39462181D01*
X43455220Y39614529D01*
X43646047Y39818208D01*
X43829939Y40033642D01*
X43945289Y40190670D01*
X43969627Y40258339D01*
X43966031Y40259000D01*
X43848807Y40215508D01*
X43636745Y40103138D01*
X43374472Y39949052D01*
X43106613Y39780411D01*
X42877796Y39624376D01*
X42733191Y39508647D01*
X42649029Y39414365D01*
X41302945Y39414365D01*
X41530625Y39599913D01*
X42129218Y39599913D01*
X42167602Y39534994D01*
X42226826Y39473709D01*
X42293695Y39458337D01*
X42400748Y39502132D01*
X42580524Y39618349D01*
X42862500Y39818052D01*
X43077929Y39976856D01*
X43223881Y40093628D01*
X43264666Y40136187D01*
X43195141Y40133036D01*
X43018257Y40078942D01*
X42781553Y39991377D01*
X42532567Y39887814D01*
X42336967Y39795213D01*
X42164984Y39688370D01*
X42129218Y39599913D01*
X41530625Y39599913D01*
X41630445Y39681261D01*
X42389487Y40113966D01*
X43089533Y40377843D01*
X43540522Y40466735D01*
X44091670Y40510435D01*
X44680092Y40509486D01*
D12*
X19685000Y19050000D03*
X10287000Y19050000D03*
X32385000Y19050000D03*
X41783000Y19050000D03*
D13*
X19685000Y13335000D03*
D14*
X19685000Y10795000D03*
D13*
X27305000Y13335000D03*
D14*
X27305000Y10795000D03*
D15*
X9525000Y13335000D03*
D16*
X9525000Y7239000D03*
D17*
X13970000Y10033000D03*
D14*
X11430000Y97155000D03*
X13970000Y97155000D03*
X16510000Y97155000D03*
D13*
X19050000Y97155000D03*
D14*
X6350000Y91440000D03*
D13*
X6350000Y88900000D03*
D14*
X6350000Y59055000D03*
D13*
X6350000Y56515000D03*
X29210000Y80010000D03*
D14*
X26670000Y80010000D03*
X24130000Y80010000D03*
X21590000Y80010000D03*
D18*
X28575000Y18415000D03*
X23475000Y17415000D03*
D14*
X24130000Y66675000D03*
X16510000Y66675000D03*
X24130000Y63500000D03*
X16510000Y63500000D03*
X12065000Y35560000D03*
X19685000Y35560000D03*
X12065000Y38735000D03*
X19685000Y38735000D03*
X48895000Y79375000D03*
X48895000Y74295000D03*
X41275000Y79375000D03*
X41275000Y74295000D03*
X48895000Y60960000D03*
X48895000Y55880000D03*
X41275000Y60960000D03*
X41275000Y55880000D03*
D19*
X30132000Y65974000D03*
X30132000Y64074000D03*
X27432000Y65974000D03*
X27432000Y65024000D03*
X27432000Y64074000D03*
D20*
X41275000Y94615000D03*
D21*
X41275000Y92075000D03*
X41275000Y89535000D03*
X41275000Y86995000D03*
X41275000Y84455000D03*
D22*
X43180000Y22225000D03*
X40640000Y22225000D03*
X38100000Y22225000D03*
X35560000Y22225000D03*
X33020000Y22225000D03*
D23*
X7620000Y22225000D03*
D22*
X10160000Y22225000D03*
X12700000Y22225000D03*
X15240000Y22225000D03*
X17780000Y22225000D03*
X20320000Y22225000D03*
X22860000Y22225000D03*
X25400000Y22225000D03*
X27940000Y22225000D03*
X30480000Y22225000D03*
X7620000Y52705000D03*
X10160000Y52705000D03*
X12700000Y52705000D03*
X15240000Y52705000D03*
X17780000Y52705000D03*
D23*
X43180000Y52705000D03*
D22*
X40640000Y52705000D03*
X38100000Y52705000D03*
X35560000Y52705000D03*
X33020000Y52705000D03*
X30480000Y52705000D03*
X27940000Y52705000D03*
X25400000Y52705000D03*
X22860000Y52705000D03*
X20320000Y52705000D03*
D24*
X4419600Y36837620D03*
X4445000Y33830000D03*
X4445000Y39830000D03*
D25*
X4445000Y30530000D03*
X4445000Y43130000D03*
D26*
X23495000Y5080000D03*
X20955000Y5080000D03*
D20*
X26035000Y5080000D03*
D13*
X3810000Y84455000D03*
X5969000Y84455000D03*
D27*
X5715000Y80137000D03*
D28*
X5715000Y75057000D03*
X5715000Y69977000D03*
X5715000Y64897000D03*
D29*
X7620000Y26035000D03*
X10160000Y26035000D03*
X12700000Y26035000D03*
X15240000Y26035000D03*
X17780000Y26035000D03*
X20320000Y26035000D03*
X22860000Y26035000D03*
X25400000Y26035000D03*
X27940000Y26035000D03*
X30480000Y26035000D03*
X33020000Y26035000D03*
X35560000Y26035000D03*
X38100000Y26035000D03*
X40640000Y26035000D03*
X43180000Y26035000D03*
X7620000Y48895000D03*
X38100000Y48895000D03*
X40640000Y48895000D03*
X35560000Y48895000D03*
X20320000Y48895000D03*
X17780000Y48895000D03*
X22860000Y48895000D03*
X43180000Y48895000D03*
X27940000Y48895000D03*
X25400000Y48895000D03*
X30480000Y48895000D03*
X33020000Y48895000D03*
X12700000Y48895000D03*
X15240000Y48895000D03*
X10160000Y48895000D03*
D30*
X44450000Y35687000D03*
D31*
X39370000Y12319000D03*
X36830000Y12319000D03*
X36830000Y10320020D03*
X39370000Y10320020D03*
D32*
X44099480Y7620000D03*
X32100520Y7620000D03*
D27*
X6985000Y4699000D03*
D28*
X12065000Y4699000D03*
D33*
X15113000Y72009000D03*
X17526000Y72263000D03*
D34*
X19685000Y13335000D02*
X21844000Y13335000D01*
X21844000Y13335000D02*
X21717000Y13335000D01*
X21717000Y13335000D02*
X21844000Y13335000D01*
X20955000Y5080000D02*
X20955000Y7239000D01*
X21844000Y16891000D02*
X19685000Y19050000D01*
X21844000Y8128000D02*
X21844000Y13335000D01*
X21844000Y13335000D02*
X21844000Y16891000D01*
X20955000Y7239000D02*
X21844000Y8128000D01*
X9525000Y7239000D02*
X9525000Y9144000D01*
X12446000Y16891000D02*
X10287000Y19050000D01*
X12446000Y12065000D02*
X12446000Y16891000D01*
X9525000Y9144000D02*
X12446000Y12065000D01*
X26035000Y5080000D02*
X26035000Y7112000D01*
X25781000Y13335000D02*
X27305000Y13335000D01*
X24892000Y12446000D02*
X25781000Y13335000D01*
X24892000Y8255000D02*
X24892000Y12446000D01*
X26035000Y7112000D02*
X24892000Y8255000D01*
D35*
X30132000Y65974000D02*
X30132000Y67658000D01*
D34*
X15113000Y72009000D02*
X17399000Y69723000D01*
X17399000Y69723000D02*
X28575000Y69723000D01*
X28575000Y69723000D02*
X30099000Y68199000D01*
X30099000Y68199000D02*
X30099000Y67691000D01*
D35*
X30132000Y67658000D02*
X30099000Y67691000D01*
D34*
X6604000Y36195000D02*
X6604000Y45466000D01*
X6604000Y45466000D02*
X5842000Y46228000D01*
X5842000Y46228000D02*
X5842000Y52324000D01*
X5842000Y52324000D02*
X2921000Y55245000D01*
X2921000Y55245000D02*
X2921000Y83566000D01*
X2921000Y83566000D02*
X3810000Y84455000D01*
X43180000Y25400000D02*
X43180000Y27051000D01*
X5961380Y36837620D02*
X4419600Y36837620D01*
X10541000Y32258000D02*
X6604000Y36195000D01*
X6604000Y36195000D02*
X5961380Y36837620D01*
X37973000Y32258000D02*
X10541000Y32258000D01*
X43180000Y27051000D02*
X37973000Y32258000D01*
D35*
X27432000Y60198000D02*
X27432000Y64074000D01*
D34*
X22860000Y52070000D02*
X22860000Y55118000D01*
X27432000Y59690000D02*
X27432000Y60198000D01*
X27432000Y60198000D02*
X27432000Y60325000D01*
X22860000Y55118000D02*
X27432000Y59690000D01*
X12573000Y98933000D02*
X40259000Y98933000D01*
X40259000Y98933000D02*
X43815000Y95377000D01*
X43815000Y95377000D02*
X43815000Y88011000D01*
X43815000Y88011000D02*
X42799000Y86995000D01*
X42799000Y86995000D02*
X41275000Y86995000D01*
X6350000Y88900000D02*
X6985000Y88900000D01*
X6985000Y88900000D02*
X9525000Y91440000D01*
X13081000Y98933000D02*
X13970000Y98044000D01*
X10541000Y98933000D02*
X12573000Y98933000D01*
X12573000Y98933000D02*
X13081000Y98933000D01*
X9525000Y97917000D02*
X10541000Y98933000D01*
X9525000Y91440000D02*
X9525000Y97917000D01*
X13970000Y98044000D02*
X13970000Y97155000D01*
X48895000Y55880000D02*
X48895000Y57658000D01*
X45720000Y71120000D02*
X48895000Y74295000D01*
X45720000Y60833000D02*
X45720000Y71120000D01*
X48895000Y57658000D02*
X45720000Y60833000D01*
X30480000Y22225000D02*
X31750000Y20955000D01*
X39243000Y20955000D02*
X40513000Y22225000D01*
X33782000Y20955000D02*
X39243000Y20955000D01*
X31750000Y20955000D02*
X33782000Y20955000D01*
X40513000Y22225000D02*
X40640000Y22225000D01*
D35*
X27432000Y65024000D02*
X25781000Y65024000D01*
D34*
X25781000Y65024000D02*
X24257000Y63500000D01*
X24130000Y63500000D02*
X24257000Y63500000D01*
X25400000Y52070000D02*
X25400000Y53594000D01*
X31115000Y80010000D02*
X29210000Y80010000D01*
X36195000Y74930000D02*
X31115000Y80010000D01*
X36195000Y61595000D02*
X36195000Y74930000D01*
X35052000Y60452000D02*
X36195000Y61595000D01*
X32258000Y60452000D02*
X35052000Y60452000D01*
X25400000Y53594000D02*
X32258000Y60452000D01*
X20320000Y48260000D02*
X20320000Y46482000D01*
X43180000Y46609000D02*
X43180000Y48260000D01*
X41910000Y45339000D02*
X43180000Y46609000D01*
X21463000Y45339000D02*
X41910000Y45339000D01*
X20320000Y46482000D02*
X21463000Y45339000D01*
X10160000Y83566000D02*
X21209000Y94615000D01*
X10160000Y52070000D02*
X10160000Y83566000D01*
X41275000Y94615000D02*
X21209000Y94615000D01*
X12700000Y52070000D02*
X12700000Y52578000D01*
X12700000Y52578000D02*
X11557000Y53721000D01*
X39751000Y92075000D02*
X41275000Y92075000D01*
X38608000Y93218000D02*
X39751000Y92075000D01*
X21717000Y93218000D02*
X38608000Y93218000D01*
X11557000Y83058000D02*
X21717000Y93218000D01*
X11557000Y53721000D02*
X11557000Y83058000D01*
X15240000Y52070000D02*
X15240000Y53721000D01*
X13081000Y74295000D02*
X18415000Y79629000D01*
X13081000Y61722000D02*
X13081000Y74295000D01*
X16764000Y58039000D02*
X13081000Y61722000D01*
X16764000Y55245000D02*
X16764000Y58039000D01*
X15240000Y53721000D02*
X16764000Y55245000D01*
X39370000Y89535000D02*
X41275000Y89535000D01*
X36830000Y92075000D02*
X39370000Y89535000D01*
X22225000Y92075000D02*
X36830000Y92075000D01*
X18415000Y88265000D02*
X22225000Y92075000D01*
X18415000Y79629000D02*
X18415000Y88265000D01*
X44958000Y56388000D02*
X44958000Y57277000D01*
X44958000Y57277000D02*
X41275000Y60960000D01*
X44958000Y56388000D02*
X44958000Y45847000D01*
X17780000Y46101000D02*
X17780000Y48260000D01*
X20320000Y43561000D02*
X17780000Y46101000D01*
X42672000Y43561000D02*
X20320000Y43561000D01*
X44958000Y45847000D02*
X42672000Y43561000D01*
X46609000Y53467000D02*
X46609000Y57531000D01*
X43942000Y60198000D02*
X43942000Y64135000D01*
X46609000Y57531000D02*
X43942000Y60198000D01*
X43942000Y64135000D02*
X43942000Y79375000D01*
X46609000Y53467000D02*
X46609000Y45466000D01*
X7620000Y46736000D02*
X7620000Y48260000D01*
X12446000Y41910000D02*
X7620000Y46736000D01*
X43053000Y41910000D02*
X12446000Y41910000D01*
X46609000Y45466000D02*
X43053000Y41910000D01*
X41275000Y79375000D02*
X43942000Y79375000D01*
X43942000Y79375000D02*
X46609000Y79375000D01*
X46609000Y79375000D02*
X48895000Y79375000D01*
D35*
X30132000Y64074000D02*
X31689000Y64074000D01*
D34*
X17526000Y72263000D02*
X28321000Y72263000D01*
X28321000Y72263000D02*
X32512000Y68072000D01*
X32512000Y68072000D02*
X32512000Y64897000D01*
X32512000Y64897000D02*
X31623000Y64008000D01*
D35*
X31689000Y64074000D02*
X31623000Y64008000D01*
D34*
X5715000Y69977000D02*
X8382000Y72644000D01*
X8382000Y72644000D02*
X8382000Y86106000D01*
X8382000Y86106000D02*
X11430000Y89154000D01*
X11430000Y89154000D02*
X11430000Y97155000D01*
D36*
G36*
X47623123Y101038945D02*
X48985580Y100128581D01*
X49895945Y98766125D01*
X50231000Y97081686D01*
X50231000Y80373574D01*
X49831437Y80773834D01*
X49224845Y81025713D01*
X48568037Y81026286D01*
X47961005Y80775466D01*
X47575868Y80391000D01*
X42593604Y80391000D01*
X42211437Y80773834D01*
X41604845Y81025713D01*
X40948037Y81026286D01*
X40341005Y80775466D01*
X39876166Y80311437D01*
X39624287Y79704845D01*
X39623714Y79048037D01*
X39874534Y78441005D01*
X40338563Y77976166D01*
X40945155Y77724287D01*
X41601963Y77723714D01*
X42208995Y77974534D01*
X42594132Y78359000D01*
X42926000Y78359000D01*
X42926000Y74324910D01*
X42913014Y74683019D01*
X42707622Y75178880D01*
X42439107Y75279502D01*
X41454605Y74295000D01*
X42439107Y73310498D01*
X42707622Y73411120D01*
X42926000Y73997595D01*
X42926000Y61287655D01*
X42675466Y61893995D01*
X42211437Y62358834D01*
X41604845Y62610713D01*
X40948037Y62611286D01*
X40341005Y62360466D01*
X39876166Y61896437D01*
X39624287Y61289845D01*
X39623714Y60633037D01*
X39874534Y60026005D01*
X40338563Y59561166D01*
X40945155Y59309287D01*
X41489348Y59308812D01*
X43942000Y56856159D01*
X43942000Y54038081D01*
X43878500Y54050940D01*
X42481500Y54050940D01*
X42246183Y54006662D01*
X42030059Y53867590D01*
X41885069Y53655390D01*
X41834060Y53403500D01*
X41834060Y53339360D01*
X41809800Y53397929D01*
X41574188Y53459583D01*
X40819605Y52705000D01*
X41574188Y51950417D01*
X41809800Y52012071D01*
X41834060Y52080998D01*
X41834060Y52006500D01*
X41878338Y51771183D01*
X42017410Y51555059D01*
X42229610Y51410069D01*
X42481500Y51359060D01*
X43878500Y51359060D01*
X43942000Y51371008D01*
X43942000Y50338312D01*
X43753489Y50464271D01*
X43180000Y50578345D01*
X42606511Y50464271D01*
X42120330Y50139415D01*
X41913539Y49829931D01*
X41542036Y50245732D01*
X41014791Y50499709D01*
X40999026Y50502358D01*
X40767000Y50381217D01*
X40767000Y49022000D01*
X40787000Y49022000D01*
X40787000Y48768000D01*
X40767000Y48768000D01*
X40767000Y47408783D01*
X40999026Y47287642D01*
X41014791Y47290291D01*
X41542036Y47544268D01*
X41913539Y47960069D01*
X42120330Y47650585D01*
X42164000Y47621406D01*
X42164000Y47029841D01*
X41489160Y46355000D01*
X21883841Y46355000D01*
X21336000Y46902840D01*
X21336000Y47621406D01*
X21379670Y47650585D01*
X21586461Y47960069D01*
X21957964Y47544268D01*
X22485209Y47290291D01*
X22500974Y47287642D01*
X22733000Y47408783D01*
X22733000Y48768000D01*
X22713000Y48768000D01*
X22713000Y49022000D01*
X22733000Y49022000D01*
X22733000Y50381217D01*
X22987000Y50381217D01*
X22987000Y49022000D01*
X23007000Y49022000D01*
X23007000Y48768000D01*
X22987000Y48768000D01*
X22987000Y47408783D01*
X23219026Y47287642D01*
X23234791Y47290291D01*
X23762036Y47544268D01*
X24133539Y47960069D01*
X24340330Y47650585D01*
X24826511Y47325729D01*
X25400000Y47211655D01*
X25973489Y47325729D01*
X26459670Y47650585D01*
X26670000Y47965366D01*
X26880330Y47650585D01*
X27366511Y47325729D01*
X27940000Y47211655D01*
X28513489Y47325729D01*
X28999670Y47650585D01*
X29210000Y47965366D01*
X29420330Y47650585D01*
X29906511Y47325729D01*
X30480000Y47211655D01*
X31053489Y47325729D01*
X31539670Y47650585D01*
X31750000Y47965366D01*
X31960330Y47650585D01*
X32446511Y47325729D01*
X33020000Y47211655D01*
X33593489Y47325729D01*
X34079670Y47650585D01*
X34290000Y47965366D01*
X34500330Y47650585D01*
X34986511Y47325729D01*
X35560000Y47211655D01*
X36133489Y47325729D01*
X36619670Y47650585D01*
X36830000Y47965366D01*
X37040330Y47650585D01*
X37526511Y47325729D01*
X38100000Y47211655D01*
X38673489Y47325729D01*
X39159670Y47650585D01*
X39366461Y47960069D01*
X39737964Y47544268D01*
X40265209Y47290291D01*
X40280974Y47287642D01*
X40513000Y47408783D01*
X40513000Y48768000D01*
X40493000Y48768000D01*
X40493000Y49022000D01*
X40513000Y49022000D01*
X40513000Y50381217D01*
X40280974Y50502358D01*
X40265209Y50499709D01*
X39737964Y50245732D01*
X39366461Y49829931D01*
X39159670Y50139415D01*
X38673489Y50464271D01*
X38100000Y50578345D01*
X37526511Y50464271D01*
X37040330Y50139415D01*
X36830000Y49824634D01*
X36619670Y50139415D01*
X36133489Y50464271D01*
X35560000Y50578345D01*
X34986511Y50464271D01*
X34500330Y50139415D01*
X34290000Y49824634D01*
X34079670Y50139415D01*
X33593489Y50464271D01*
X33020000Y50578345D01*
X32446511Y50464271D01*
X31960330Y50139415D01*
X31750000Y49824634D01*
X31539670Y50139415D01*
X31053489Y50464271D01*
X30480000Y50578345D01*
X29906511Y50464271D01*
X29420330Y50139415D01*
X29210000Y49824634D01*
X28999670Y50139415D01*
X28513489Y50464271D01*
X27940000Y50578345D01*
X27366511Y50464271D01*
X26880330Y50139415D01*
X26670000Y49824634D01*
X26459670Y50139415D01*
X25973489Y50464271D01*
X25400000Y50578345D01*
X24826511Y50464271D01*
X24340330Y50139415D01*
X24133539Y49829931D01*
X23762036Y50245732D01*
X23234791Y50499709D01*
X23219026Y50502358D01*
X22987000Y50381217D01*
X22733000Y50381217D01*
X22500974Y50502358D01*
X22485209Y50499709D01*
X21957964Y50245732D01*
X21586461Y49829931D01*
X21379670Y50139415D01*
X20893489Y50464271D01*
X20320000Y50578345D01*
X19746511Y50464271D01*
X19260330Y50139415D01*
X19050000Y49824634D01*
X18839670Y50139415D01*
X18353489Y50464271D01*
X17780000Y50578345D01*
X17206511Y50464271D01*
X16720330Y50139415D01*
X16510000Y49824634D01*
X16299670Y50139415D01*
X15813489Y50464271D01*
X15240000Y50578345D01*
X14666511Y50464271D01*
X14180330Y50139415D01*
X13970000Y49824634D01*
X13759670Y50139415D01*
X13273489Y50464271D01*
X12700000Y50578345D01*
X12126511Y50464271D01*
X11640330Y50139415D01*
X11430000Y49824634D01*
X11219670Y50139415D01*
X10733489Y50464271D01*
X10160000Y50578345D01*
X9586511Y50464271D01*
X9100330Y50139415D01*
X8890000Y49824634D01*
X8679670Y50139415D01*
X8193489Y50464271D01*
X7620000Y50578345D01*
X7046511Y50464271D01*
X6858000Y50338312D01*
X6858000Y51580830D01*
X6863647Y51575173D01*
X7353587Y51371732D01*
X7884086Y51371269D01*
X8374380Y51573854D01*
X8749827Y51948647D01*
X8890094Y52286446D01*
X9028854Y51950620D01*
X9202308Y51776863D01*
X9221338Y51681194D01*
X9441580Y51351580D01*
X9771194Y51131338D01*
X10160000Y51054000D01*
X10548806Y51131338D01*
X10878420Y51351580D01*
X11098662Y51681194D01*
X11117679Y51776799D01*
X11289827Y51948647D01*
X11430094Y52286446D01*
X11568854Y51950620D01*
X11742308Y51776863D01*
X11761338Y51681194D01*
X11981580Y51351580D01*
X12311194Y51131338D01*
X12700000Y51054000D01*
X13088806Y51131338D01*
X13418420Y51351580D01*
X13638662Y51681194D01*
X13657679Y51776799D01*
X13829827Y51948647D01*
X13970094Y52286446D01*
X14108854Y51950620D01*
X14282308Y51776863D01*
X14301338Y51681194D01*
X14521580Y51351580D01*
X14851194Y51131338D01*
X15240000Y51054000D01*
X15628806Y51131338D01*
X15958420Y51351580D01*
X16178662Y51681194D01*
X16197679Y51776799D01*
X16369827Y51948647D01*
X16510094Y52286446D01*
X16648854Y51950620D01*
X17023647Y51575173D01*
X17513587Y51371732D01*
X18044086Y51371269D01*
X18534380Y51573854D01*
X18909827Y51948647D01*
X19050094Y52286446D01*
X19188854Y51950620D01*
X19563647Y51575173D01*
X20053587Y51371732D01*
X20584086Y51371269D01*
X21074380Y51573854D01*
X21271681Y51770812D01*
X22105417Y51770812D01*
X22167071Y51535200D01*
X22667480Y51359073D01*
X23197199Y51387852D01*
X23552929Y51535200D01*
X23614583Y51770812D01*
X22860000Y52525395D01*
X22105417Y51770812D01*
X21271681Y51770812D01*
X21449827Y51948647D01*
X21583314Y52270118D01*
X21690200Y52012071D01*
X21925812Y51950417D01*
X22680395Y52705000D01*
X21925812Y53459583D01*
X21690200Y53397929D01*
X21591917Y53118688D01*
X21451146Y53459380D01*
X21271652Y53639188D01*
X22105417Y53639188D01*
X22860000Y52884605D01*
X23614583Y53639188D01*
X23552929Y53874800D01*
X23052520Y54050927D01*
X22522801Y54022148D01*
X22167071Y53874800D01*
X22105417Y53639188D01*
X21271652Y53639188D01*
X21076353Y53834827D01*
X20586413Y54038268D01*
X20055914Y54038731D01*
X19565620Y53836146D01*
X19190173Y53461353D01*
X19049906Y53123554D01*
X18911146Y53459380D01*
X18536353Y53834827D01*
X18046413Y54038268D01*
X17515914Y54038731D01*
X17025620Y53836146D01*
X16650173Y53461353D01*
X16509906Y53123554D01*
X16384033Y53428192D01*
X17482420Y54526579D01*
X17702661Y54856193D01*
X17702662Y54856194D01*
X17780000Y55245000D01*
X17780000Y58039000D01*
X17738145Y58249420D01*
X17702662Y58427807D01*
X17482421Y58757420D01*
X14097000Y62142840D01*
X14097000Y66348037D01*
X14858714Y66348037D01*
X15109534Y65741005D01*
X15573563Y65276166D01*
X16028291Y65087346D01*
X15576005Y64900466D01*
X15111166Y64436437D01*
X14859287Y63829845D01*
X14858714Y63173037D01*
X15109534Y62566005D01*
X15573563Y62101166D01*
X16180155Y61849287D01*
X16836963Y61848714D01*
X17443995Y62099534D01*
X17908834Y62563563D01*
X18160713Y63170155D01*
X18161286Y63826963D01*
X17910466Y64433995D01*
X17446437Y64898834D01*
X16991709Y65087654D01*
X17443995Y65274534D01*
X17908834Y65738563D01*
X18160713Y66345155D01*
X18160715Y66348037D01*
X22478714Y66348037D01*
X22729534Y65741005D01*
X23193563Y65276166D01*
X23648291Y65087346D01*
X23196005Y64900466D01*
X22731166Y64436437D01*
X22479287Y63829845D01*
X22478714Y63173037D01*
X22729534Y62566005D01*
X23193563Y62101166D01*
X23800155Y61849287D01*
X24456963Y61848714D01*
X25063995Y62099534D01*
X25528834Y62563563D01*
X25780713Y63170155D01*
X25781077Y63587236D01*
X25982091Y63788250D01*
X26297000Y63788250D01*
X26297000Y63672691D01*
X26393673Y63439302D01*
X26572301Y63260673D01*
X26805690Y63164000D01*
X27146250Y63164000D01*
X27305000Y63322750D01*
X27305000Y63947000D01*
X27559000Y63947000D01*
X27559000Y63322750D01*
X27717750Y63164000D01*
X28058310Y63164000D01*
X28291699Y63260673D01*
X28470327Y63439302D01*
X28567000Y63672691D01*
X28567000Y63788250D01*
X28408250Y63947000D01*
X27559000Y63947000D01*
X27305000Y63947000D01*
X26455750Y63947000D01*
X26297000Y63788250D01*
X25982091Y63788250D01*
X26328841Y64135000D01*
X26766868Y64135000D01*
X26932000Y64101560D01*
X27932000Y64101560D01*
X28167317Y64145838D01*
X28253041Y64201000D01*
X28408250Y64201000D01*
X28567000Y64359750D01*
X28567000Y64475309D01*
X28538130Y64545007D01*
X28579440Y64749000D01*
X28579440Y65299000D01*
X28540426Y65506342D01*
X28579440Y65699000D01*
X28579440Y66249000D01*
X28535162Y66484317D01*
X28396090Y66700441D01*
X28183890Y66845431D01*
X27932000Y66896440D01*
X26932000Y66896440D01*
X26696683Y66852162D01*
X26480559Y66713090D01*
X26335569Y66500890D01*
X26284560Y66249000D01*
X26284560Y65913000D01*
X26244130Y65913000D01*
X26169807Y65962661D01*
X25781000Y66039999D01*
X25642567Y66012463D01*
X25780713Y66345155D01*
X25781286Y67001963D01*
X25530466Y67608995D01*
X25066437Y68073834D01*
X24459845Y68325713D01*
X23803037Y68326286D01*
X23196005Y68075466D01*
X22731166Y67611437D01*
X22479287Y67004845D01*
X22478714Y66348037D01*
X18160715Y66348037D01*
X18161286Y67001963D01*
X17910466Y67608995D01*
X17446437Y68073834D01*
X16839845Y68325713D01*
X16183037Y68326286D01*
X15576005Y68075466D01*
X15111166Y67611437D01*
X14859287Y67004845D01*
X14858714Y66348037D01*
X14097000Y66348037D01*
X14097000Y72009000D01*
X14097001Y72009000D01*
X14174338Y71620193D01*
X14394580Y71290580D01*
X16680579Y69004580D01*
X16825090Y68908021D01*
X17010194Y68784338D01*
X17399000Y68707000D01*
X28154160Y68707000D01*
X29083000Y67778159D01*
X29083000Y67691000D01*
X29160338Y67302194D01*
X29243000Y67178482D01*
X29243000Y66753270D01*
X29180559Y66713090D01*
X29035569Y66500890D01*
X28984560Y66249000D01*
X28984560Y65699000D01*
X29028838Y65463683D01*
X29167910Y65247559D01*
X29380110Y65102569D01*
X29632000Y65051560D01*
X30632000Y65051560D01*
X30867317Y65095838D01*
X31083441Y65234910D01*
X31228431Y65447110D01*
X31279440Y65699000D01*
X31279440Y66249000D01*
X31235162Y66484317D01*
X31096090Y66700441D01*
X31021000Y66751748D01*
X31021000Y67277258D01*
X31037662Y67302194D01*
X31115000Y67691000D01*
X31115000Y68032159D01*
X31496000Y67651159D01*
X31496000Y65317841D01*
X31141160Y64963000D01*
X30797132Y64963000D01*
X30632000Y64996440D01*
X29632000Y64996440D01*
X29396683Y64952162D01*
X29180559Y64813090D01*
X29035569Y64600890D01*
X28984560Y64349000D01*
X28984560Y63799000D01*
X29028838Y63563683D01*
X29167910Y63347559D01*
X29380110Y63202569D01*
X29632000Y63151560D01*
X30632000Y63151560D01*
X30809718Y63185000D01*
X31061094Y63185000D01*
X31234193Y63069338D01*
X31623000Y62992001D01*
X32011807Y63069338D01*
X32341420Y63289580D01*
X33230421Y64178580D01*
X33450662Y64508193D01*
X33469100Y64600890D01*
X33528000Y64897000D01*
X33528000Y68072000D01*
X33450662Y68460806D01*
X33450662Y68460807D01*
X33230420Y68790421D01*
X29039420Y72981420D01*
X28709807Y73201662D01*
X28645300Y73214493D01*
X28321000Y73279000D01*
X17526000Y73279000D01*
X17137194Y73201662D01*
X16807580Y72981420D01*
X16587338Y72651806D01*
X16510000Y72263000D01*
X16563176Y71995664D01*
X15831420Y72727420D01*
X15501807Y72947662D01*
X15113000Y73024999D01*
X14724193Y72947662D01*
X14394580Y72727420D01*
X14174338Y72397807D01*
X14097001Y72009000D01*
X14097000Y72009000D01*
X14097000Y73874160D01*
X19068733Y78845893D01*
X20605498Y78845893D01*
X20706120Y78577378D01*
X21321642Y78348184D01*
X21978019Y78371986D01*
X22473880Y78577378D01*
X22574502Y78845893D01*
X21590000Y79830395D01*
X20605498Y78845893D01*
X19068733Y78845893D01*
X19133420Y78910579D01*
X19353662Y79240193D01*
X19380476Y79375000D01*
X19431000Y79629000D01*
X19431000Y80278358D01*
X19928184Y80278358D01*
X19951986Y79621981D01*
X20157378Y79126120D01*
X20425893Y79025498D01*
X21410395Y80010000D01*
X21769605Y80010000D01*
X22754107Y79025498D01*
X22772917Y79032547D01*
X23193563Y78611166D01*
X23800155Y78359287D01*
X24456963Y78358714D01*
X25063995Y78609534D01*
X25400179Y78945132D01*
X25733563Y78611166D01*
X26340155Y78359287D01*
X26996963Y78358714D01*
X27603995Y78609534D01*
X27654421Y78659872D01*
X27729910Y78542559D01*
X27942110Y78397569D01*
X28194000Y78346560D01*
X30226000Y78346560D01*
X30461317Y78390838D01*
X30677441Y78529910D01*
X30822431Y78742110D01*
X30843249Y78844911D01*
X35179000Y74509159D01*
X35179000Y62015841D01*
X34631160Y61468000D01*
X32258000Y61468000D01*
X31869193Y61390662D01*
X31539580Y61170421D01*
X24681580Y54312420D01*
X24461338Y53982807D01*
X24461338Y53982806D01*
X24384000Y53594000D01*
X24384000Y53574982D01*
X24270173Y53461353D01*
X24136686Y53139882D01*
X24029800Y53397929D01*
X23794188Y53459583D01*
X23039605Y52705000D01*
X23794188Y51950417D01*
X24029800Y52012071D01*
X24128083Y52291312D01*
X24268854Y51950620D01*
X24442308Y51776863D01*
X24461338Y51681194D01*
X24681580Y51351580D01*
X25011194Y51131338D01*
X25400000Y51054000D01*
X25788806Y51131338D01*
X26118420Y51351580D01*
X26338662Y51681194D01*
X26357679Y51776799D01*
X26529827Y51948647D01*
X26670094Y52286446D01*
X26808854Y51950620D01*
X27183647Y51575173D01*
X27673587Y51371732D01*
X28204086Y51371269D01*
X28694380Y51573854D01*
X29069827Y51948647D01*
X29210094Y52286446D01*
X29348854Y51950620D01*
X29723647Y51575173D01*
X30213587Y51371732D01*
X30744086Y51371269D01*
X31234380Y51573854D01*
X31609827Y51948647D01*
X31750094Y52286446D01*
X31888854Y51950620D01*
X32263647Y51575173D01*
X32753587Y51371732D01*
X33284086Y51371269D01*
X33774380Y51573854D01*
X34149827Y51948647D01*
X34290094Y52286446D01*
X34428854Y51950620D01*
X34803647Y51575173D01*
X35293587Y51371732D01*
X35824086Y51371269D01*
X36314380Y51573854D01*
X36689827Y51948647D01*
X36830094Y52286446D01*
X36968854Y51950620D01*
X37343647Y51575173D01*
X37833587Y51371732D01*
X38364086Y51371269D01*
X38854380Y51573854D01*
X39051681Y51770812D01*
X39885417Y51770812D01*
X39947071Y51535200D01*
X40447480Y51359073D01*
X40977199Y51387852D01*
X41332929Y51535200D01*
X41394583Y51770812D01*
X40640000Y52525395D01*
X39885417Y51770812D01*
X39051681Y51770812D01*
X39229827Y51948647D01*
X39363314Y52270118D01*
X39470200Y52012071D01*
X39705812Y51950417D01*
X40460395Y52705000D01*
X39705812Y53459583D01*
X39470200Y53397929D01*
X39371917Y53118688D01*
X39231146Y53459380D01*
X39051652Y53639188D01*
X39885417Y53639188D01*
X40640000Y52884605D01*
X41394583Y53639188D01*
X41332929Y53874800D01*
X40832520Y54050927D01*
X40302801Y54022148D01*
X39947071Y53874800D01*
X39885417Y53639188D01*
X39051652Y53639188D01*
X38856353Y53834827D01*
X38366413Y54038268D01*
X37835914Y54038731D01*
X37345620Y53836146D01*
X36970173Y53461353D01*
X36829906Y53123554D01*
X36691146Y53459380D01*
X36316353Y53834827D01*
X35826413Y54038268D01*
X35295914Y54038731D01*
X34805620Y53836146D01*
X34430173Y53461353D01*
X34289906Y53123554D01*
X34151146Y53459380D01*
X33776353Y53834827D01*
X33286413Y54038268D01*
X32755914Y54038731D01*
X32265620Y53836146D01*
X31890173Y53461353D01*
X31749906Y53123554D01*
X31611146Y53459380D01*
X31236353Y53834827D01*
X30746413Y54038268D01*
X30215914Y54038731D01*
X29725620Y53836146D01*
X29350173Y53461353D01*
X29209906Y53123554D01*
X29071146Y53459380D01*
X28696353Y53834827D01*
X28206413Y54038268D01*
X27675914Y54038731D01*
X27185620Y53836146D01*
X26810173Y53461353D01*
X26669906Y53123554D01*
X26581165Y53338325D01*
X29350025Y56107185D01*
X34514630Y56107185D01*
X34838980Y55322200D01*
X35439041Y54721091D01*
X36223459Y54395372D01*
X37072815Y54394630D01*
X37850328Y54715893D01*
X40290498Y54715893D01*
X40391120Y54447378D01*
X41006642Y54218184D01*
X41663019Y54241986D01*
X42158880Y54447378D01*
X42259502Y54715893D01*
X41275000Y55700395D01*
X40290498Y54715893D01*
X37850328Y54715893D01*
X37857800Y54718980D01*
X38458909Y55319041D01*
X38784628Y56103459D01*
X38784667Y56148358D01*
X39613184Y56148358D01*
X39636986Y55491981D01*
X39842378Y54996120D01*
X40110893Y54895498D01*
X41095395Y55880000D01*
X41454605Y55880000D01*
X42439107Y54895498D01*
X42707622Y54996120D01*
X42936816Y55611642D01*
X42913014Y56268019D01*
X42707622Y56763880D01*
X42439107Y56864502D01*
X41454605Y55880000D01*
X41095395Y55880000D01*
X40110893Y56864502D01*
X39842378Y56763880D01*
X39613184Y56148358D01*
X38784667Y56148358D01*
X38785370Y56952815D01*
X38747649Y57044107D01*
X40290498Y57044107D01*
X41275000Y56059605D01*
X42259502Y57044107D01*
X42158880Y57312622D01*
X41543358Y57541816D01*
X40886981Y57518014D01*
X40391120Y57312622D01*
X40290498Y57044107D01*
X38747649Y57044107D01*
X38461020Y57737800D01*
X37860959Y58338909D01*
X37076541Y58664628D01*
X36227185Y58665370D01*
X35442200Y58341020D01*
X34841091Y57740959D01*
X34515372Y56956541D01*
X34514630Y56107185D01*
X29350025Y56107185D01*
X32678841Y59436000D01*
X35052000Y59436000D01*
X35376300Y59500507D01*
X35440807Y59513338D01*
X35770420Y59733580D01*
X36913420Y60876579D01*
X37133662Y61206193D01*
X37150301Y61289845D01*
X37211000Y61595000D01*
X37211000Y73130893D01*
X40290498Y73130893D01*
X40391120Y72862378D01*
X41006642Y72633184D01*
X41663019Y72656986D01*
X42158880Y72862378D01*
X42259502Y73130893D01*
X41275000Y74115395D01*
X40290498Y73130893D01*
X37211000Y73130893D01*
X37211000Y74563358D01*
X39613184Y74563358D01*
X39636986Y73906981D01*
X39842378Y73411120D01*
X40110893Y73310498D01*
X41095395Y74295000D01*
X40110893Y75279502D01*
X39842378Y75178880D01*
X39613184Y74563358D01*
X37211000Y74563358D01*
X37211000Y74930000D01*
X37133662Y75318806D01*
X37133662Y75318807D01*
X37039917Y75459107D01*
X40290498Y75459107D01*
X41275000Y74474605D01*
X42259502Y75459107D01*
X42158880Y75727622D01*
X41543358Y75956816D01*
X40886981Y75933014D01*
X40391120Y75727622D01*
X40290498Y75459107D01*
X37039917Y75459107D01*
X36913421Y75648420D01*
X33954656Y78607185D01*
X34514630Y78607185D01*
X34838980Y77822200D01*
X35439041Y77221091D01*
X36223459Y76895372D01*
X37072815Y76894630D01*
X37857800Y77218980D01*
X38458909Y77819041D01*
X38784628Y78603459D01*
X38785370Y79452815D01*
X38461020Y80237800D01*
X37860959Y80838909D01*
X37076541Y81164628D01*
X36227185Y81165370D01*
X35442200Y80841020D01*
X34841091Y80240959D01*
X34515372Y79456541D01*
X34514630Y78607185D01*
X33954656Y78607185D01*
X31833420Y80728420D01*
X31503807Y80948662D01*
X31439300Y80961493D01*
X31115000Y81026000D01*
X30873440Y81026000D01*
X30829162Y81261317D01*
X30690090Y81477441D01*
X30477890Y81622431D01*
X30226000Y81673440D01*
X28194000Y81673440D01*
X27958683Y81629162D01*
X27742559Y81490090D01*
X27654287Y81360900D01*
X27606437Y81408834D01*
X26999845Y81660713D01*
X26343037Y81661286D01*
X25736005Y81410466D01*
X25399821Y81074868D01*
X25066437Y81408834D01*
X24459845Y81660713D01*
X23803037Y81661286D01*
X23196005Y81410466D01*
X22772435Y80987634D01*
X22754107Y80994502D01*
X21769605Y80010000D01*
X21410395Y80010000D01*
X20425893Y80994502D01*
X20157378Y80893880D01*
X19928184Y80278358D01*
X19431000Y80278358D01*
X19431000Y81174107D01*
X20605498Y81174107D01*
X21590000Y80189605D01*
X22574502Y81174107D01*
X22473880Y81442622D01*
X21858358Y81671816D01*
X21201981Y81648014D01*
X20706120Y81442622D01*
X20605498Y81174107D01*
X19431000Y81174107D01*
X19431000Y84111437D01*
X39539880Y84111437D01*
X39803434Y83473587D01*
X40291020Y82985149D01*
X40928409Y82720482D01*
X41618563Y82719880D01*
X42256413Y82983434D01*
X42744851Y83471020D01*
X43009518Y84108409D01*
X43010120Y84798563D01*
X42746566Y85436413D01*
X42258980Y85924851D01*
X42099196Y85991199D01*
X41275000Y86815395D01*
X40451362Y85991757D01*
X40293587Y85926566D01*
X39805149Y85438980D01*
X39540482Y84801591D01*
X39539880Y84111437D01*
X19431000Y84111437D01*
X19431000Y87283363D01*
X39529857Y87283363D01*
X39552346Y86593575D01*
X39773049Y86060750D01*
X40050263Y85949868D01*
X41095395Y86995000D01*
X41454605Y86995000D01*
X42499737Y85949868D01*
X42776951Y86060750D01*
X43020143Y86706637D01*
X42997654Y87396425D01*
X42776951Y87929250D01*
X42499737Y88040132D01*
X41454605Y86995000D01*
X41095395Y86995000D01*
X40050263Y88040132D01*
X39773049Y87929250D01*
X39529857Y87283363D01*
X19431000Y87283363D01*
X19431000Y87844160D01*
X22645841Y91059000D01*
X36409160Y91059000D01*
X38651579Y88816580D01*
X38871821Y88669419D01*
X38981194Y88596338D01*
X39370000Y88519000D01*
X39837961Y88519000D01*
X40291020Y88065149D01*
X40450804Y87998801D01*
X41275000Y87174605D01*
X42098638Y87998243D01*
X42256413Y88063434D01*
X42744851Y88551020D01*
X43009518Y89188409D01*
X43010120Y89878563D01*
X42746566Y90516413D01*
X42458407Y90805076D01*
X42744851Y91091020D01*
X43009518Y91728409D01*
X43010120Y92418563D01*
X42746566Y93056413D01*
X42731494Y93071511D01*
X42776731Y93100620D01*
X42921721Y93312820D01*
X42972730Y93564710D01*
X42972730Y95665290D01*
X42928452Y95900607D01*
X42789380Y96116731D01*
X42577180Y96261721D01*
X42325290Y96312730D01*
X40224710Y96312730D01*
X39989393Y96268452D01*
X39773269Y96129380D01*
X39628279Y95917180D01*
X39577270Y95665290D01*
X39577270Y95631000D01*
X21209000Y95631000D01*
X20820193Y95553662D01*
X20490580Y95333421D01*
X9441580Y84284420D01*
X9398000Y84219198D01*
X9398000Y85685160D01*
X12148421Y88435580D01*
X12368662Y88765193D01*
X12381493Y88829700D01*
X12446000Y89154000D01*
X12446000Y95836396D01*
X12600766Y95990893D01*
X12985498Y95990893D01*
X13086120Y95722378D01*
X13701642Y95493184D01*
X14358019Y95516986D01*
X14853880Y95722378D01*
X14954502Y95990893D01*
X13970000Y96975395D01*
X12985498Y95990893D01*
X12600766Y95990893D01*
X12787565Y96177366D01*
X12805893Y96170498D01*
X13790395Y97155000D01*
X14149605Y97155000D01*
X15134107Y96170498D01*
X15152917Y96177547D01*
X15573563Y95756166D01*
X16180155Y95504287D01*
X16836963Y95503714D01*
X17443995Y95754534D01*
X17494421Y95804872D01*
X17569910Y95687559D01*
X17782110Y95542569D01*
X18034000Y95491560D01*
X20066000Y95491560D01*
X20301317Y95535838D01*
X20517441Y95674910D01*
X20662431Y95887110D01*
X20713440Y96139000D01*
X20713440Y96736185D01*
X43880630Y96736185D01*
X44204980Y95951200D01*
X44805041Y95350091D01*
X45589459Y95024372D01*
X46438815Y95023630D01*
X47223800Y95347980D01*
X47824909Y95948041D01*
X48150628Y96732459D01*
X48151370Y97581815D01*
X47827020Y98366800D01*
X47226959Y98967909D01*
X46442541Y99293628D01*
X45593185Y99294370D01*
X44808200Y98970020D01*
X44207091Y98369959D01*
X43881372Y97585541D01*
X43880630Y96736185D01*
X20713440Y96736185D01*
X20713440Y98171000D01*
X20669162Y98406317D01*
X20530090Y98622441D01*
X20317890Y98767431D01*
X20066000Y98818440D01*
X18034000Y98818440D01*
X17798683Y98774162D01*
X17582559Y98635090D01*
X17494287Y98505900D01*
X17446437Y98553834D01*
X16839845Y98805713D01*
X16183037Y98806286D01*
X15576005Y98555466D01*
X15152435Y98132634D01*
X15134107Y98139502D01*
X14149605Y97155000D01*
X13790395Y97155000D01*
X12805893Y98139502D01*
X12787083Y98132453D01*
X12600755Y98319107D01*
X12985498Y98319107D01*
X13970000Y97334605D01*
X14954502Y98319107D01*
X14853880Y98587622D01*
X14238358Y98816816D01*
X13581981Y98793014D01*
X13086120Y98587622D01*
X12985498Y98319107D01*
X12600755Y98319107D01*
X12366437Y98553834D01*
X11759845Y98805713D01*
X11103037Y98806286D01*
X10496005Y98555466D01*
X10031166Y98091437D01*
X9779287Y97484845D01*
X9778714Y96828037D01*
X10029534Y96221005D01*
X10414000Y95835868D01*
X10414000Y89574841D01*
X7663580Y86824420D01*
X7443338Y86494807D01*
X7443338Y86494806D01*
X7366000Y86106000D01*
X7366000Y85979214D01*
X7236890Y86067431D01*
X6985000Y86118440D01*
X4953000Y86118440D01*
X4887169Y86106053D01*
X4826000Y86118440D01*
X2794000Y86118440D01*
X2558683Y86074162D01*
X2342559Y85935090D01*
X2197569Y85722890D01*
X2146560Y85471000D01*
X2146560Y84200581D01*
X1982338Y83954807D01*
X1982338Y83954806D01*
X1905000Y83566000D01*
X1905000Y55245000D01*
X1926025Y55139302D01*
X1982338Y54856193D01*
X2202580Y54526580D01*
X4826000Y51903159D01*
X4826000Y46228000D01*
X4867855Y46017580D01*
X4903338Y45839193D01*
X5123580Y45509580D01*
X5588000Y45045159D01*
X5588000Y44324984D01*
X5386827Y44365000D01*
X3503173Y44365000D01*
X3030559Y44270991D01*
X2629896Y44003277D01*
X2362182Y43602614D01*
X2268173Y43130000D01*
X2362182Y42657386D01*
X2629896Y42256723D01*
X3030559Y41989009D01*
X3503173Y41895000D01*
X5386827Y41895000D01*
X5588000Y41935016D01*
X5588000Y40999264D01*
X5372363Y41215278D01*
X4771648Y41464716D01*
X4121205Y41465284D01*
X3520057Y41216894D01*
X3059722Y40757363D01*
X2810284Y40156648D01*
X2809716Y39506205D01*
X3058106Y38905057D01*
X3517637Y38444722D01*
X3771990Y38339106D01*
X3494657Y38224514D01*
X3034322Y37764983D01*
X2784884Y37164268D01*
X2784316Y36513825D01*
X3032706Y35912677D01*
X3492237Y35452342D01*
X3790323Y35328566D01*
X3520057Y35216894D01*
X3059722Y34757363D01*
X2810284Y34156648D01*
X2809716Y33506205D01*
X3058106Y32905057D01*
X3517637Y32444722D01*
X4118352Y32195284D01*
X4768795Y32194716D01*
X5369943Y32443106D01*
X5830278Y32902637D01*
X6079716Y33503352D01*
X6080284Y34153795D01*
X5831894Y34754943D01*
X5372363Y35215278D01*
X5074277Y35339054D01*
X5344543Y35450726D01*
X5628236Y35733923D01*
X5885580Y35476579D01*
X5885583Y35476577D01*
X9822580Y31539579D01*
X10152193Y31319338D01*
X10208224Y31308193D01*
X10541000Y31242000D01*
X37552160Y31242000D01*
X41284250Y27509909D01*
X41014791Y27639709D01*
X40999026Y27642358D01*
X40767000Y27521217D01*
X40767000Y26162000D01*
X40787000Y26162000D01*
X40787000Y25908000D01*
X40767000Y25908000D01*
X40767000Y24548783D01*
X40999026Y24427642D01*
X41014791Y24430291D01*
X41542036Y24684268D01*
X41913539Y25100069D01*
X42120330Y24790585D01*
X42606511Y24465729D01*
X43180000Y24351655D01*
X43753489Y24465729D01*
X44239670Y24790585D01*
X44564526Y25276766D01*
X44678600Y25850255D01*
X44678600Y26219745D01*
X44564526Y26793234D01*
X44239670Y27279415D01*
X44136908Y27348079D01*
X44118662Y27439806D01*
X44118662Y27439807D01*
X43898420Y27769421D01*
X38691420Y32976420D01*
X38361807Y33196662D01*
X38281298Y33212676D01*
X37973000Y33274000D01*
X10961841Y33274000D01*
X7620000Y36615840D01*
X7620000Y38408037D01*
X10413714Y38408037D01*
X10664534Y37801005D01*
X11128563Y37336166D01*
X11583291Y37147346D01*
X11131005Y36960466D01*
X10666166Y36496437D01*
X10414287Y35889845D01*
X10413714Y35233037D01*
X10664534Y34626005D01*
X11128563Y34161166D01*
X11735155Y33909287D01*
X12391963Y33908714D01*
X12998995Y34159534D01*
X13463834Y34623563D01*
X13715713Y35230155D01*
X13716286Y35886963D01*
X13465466Y36493995D01*
X13001437Y36958834D01*
X12546709Y37147654D01*
X12998995Y37334534D01*
X13463834Y37798563D01*
X13715713Y38405155D01*
X13715715Y38408037D01*
X18033714Y38408037D01*
X18284534Y37801005D01*
X18748563Y37336166D01*
X19203291Y37147346D01*
X18751005Y36960466D01*
X18286166Y36496437D01*
X18034287Y35889845D01*
X18033714Y35233037D01*
X18284534Y34626005D01*
X18748563Y34161166D01*
X19355155Y33909287D01*
X20011963Y33908714D01*
X20618995Y34159534D01*
X21083834Y34623563D01*
X21335713Y35230155D01*
X21336286Y35886963D01*
X21085466Y36493995D01*
X20621437Y36958834D01*
X20166709Y37147654D01*
X20618995Y37334534D01*
X21083834Y37798563D01*
X21335713Y38405155D01*
X21336286Y39061963D01*
X21085466Y39668995D01*
X20621437Y40133834D01*
X20014845Y40385713D01*
X19358037Y40386286D01*
X18751005Y40135466D01*
X18286166Y39671437D01*
X18034287Y39064845D01*
X18033714Y38408037D01*
X13715715Y38408037D01*
X13716286Y39061963D01*
X13465466Y39668995D01*
X13001437Y40133834D01*
X12394845Y40385713D01*
X11738037Y40386286D01*
X11131005Y40135466D01*
X10666166Y39671437D01*
X10414287Y39064845D01*
X10413714Y38408037D01*
X7620000Y38408037D01*
X7620000Y45299160D01*
X11727580Y41191579D01*
X12057193Y40971338D01*
X12446000Y40894000D01*
X42644372Y40894000D01*
X42163749Y40712833D01*
X42120670Y40686015D01*
X42072529Y40669967D01*
X41313487Y40237262D01*
X41273225Y40202342D01*
X41226135Y40177379D01*
X41126315Y40096031D01*
X41126314Y40096030D01*
X40898638Y39910485D01*
X40898634Y39910483D01*
X40793776Y39825029D01*
X40793775Y39825027D01*
X40793774Y39825027D01*
X40555120Y39630534D01*
X40521017Y39589269D01*
X40478528Y39556709D01*
X39914783Y38914718D01*
X39886827Y38866369D01*
X39849038Y38825252D01*
X39411794Y38107101D01*
X39391137Y38050607D01*
X39359388Y37999512D01*
X39287493Y37808295D01*
X39287493Y37808293D01*
X39287492Y37808292D01*
X39067881Y37224190D01*
X39061907Y37187929D01*
X39046180Y37154711D01*
X39032810Y37101425D01*
X39031490Y37074769D01*
X39022094Y37049789D01*
X38949425Y36609056D01*
X38950357Y36580764D01*
X38942744Y36553499D01*
X38904469Y36050526D01*
X38904469Y36050523D01*
X38902156Y36020126D01*
X38903699Y36007370D01*
X38902624Y36001964D01*
X38903793Y35996089D01*
X38900366Y35979971D01*
X38895645Y35620468D01*
X38895645Y35620463D01*
X38892992Y35418333D01*
X38896797Y35397799D01*
X38893778Y35377134D01*
X38920746Y34851614D01*
X38928245Y34821951D01*
X38926701Y34791391D01*
X38989142Y34366358D01*
X39008397Y34312306D01*
X39015723Y34255398D01*
X39225985Y33630106D01*
X39252473Y33583921D01*
X39267880Y33532952D01*
X39352091Y33375029D01*
X39352093Y33375027D01*
X39618698Y32875053D01*
X39647165Y32840296D01*
X39666010Y32799519D01*
X40124122Y32170229D01*
X40155751Y32141047D01*
X40178844Y32104729D01*
X40716057Y31542580D01*
X40742912Y31523741D01*
X40749170Y31514376D01*
X40764951Y31503831D01*
X40786340Y31479168D01*
X40809307Y31461342D01*
X41374464Y31022691D01*
X41413027Y31003408D01*
X41445367Y30974890D01*
X41714755Y30818379D01*
X41742206Y30808977D01*
X41765598Y30791814D01*
X42261829Y30560219D01*
X42289377Y30553468D01*
X42313623Y30538757D01*
X42833984Y30349383D01*
X42867509Y30344224D01*
X42898190Y30329764D01*
X43364001Y30213756D01*
X43402621Y30211911D01*
X43439313Y30199725D01*
X43617155Y30177503D01*
X43640735Y30179205D01*
X43663656Y30173408D01*
X44083243Y30151842D01*
X44101795Y30154551D01*
X44120210Y30151011D01*
X44592849Y30154051D01*
X44609300Y30157434D01*
X44625936Y30155120D01*
X45077919Y30181439D01*
X45101751Y30187639D01*
X45126324Y30186109D01*
X45483942Y30234380D01*
X45513480Y30244515D01*
X45544692Y30245588D01*
X45620912Y30263493D01*
X45642287Y30273221D01*
X45665637Y30275725D01*
X45986105Y30375980D01*
X46003489Y30385467D01*
X46023014Y30388776D01*
X46405788Y30534710D01*
X46419808Y30543511D01*
X46435968Y30547106D01*
X46814021Y30713774D01*
X46832796Y30726940D01*
X46854774Y30733490D01*
X47191239Y30911222D01*
X47225221Y30938833D01*
X47265105Y30956905D01*
X47976334Y31466580D01*
X48017894Y31510954D01*
X48067558Y31546016D01*
X48673015Y32183390D01*
X48704374Y32233036D01*
X48745395Y32275060D01*
X49237749Y33031546D01*
X49258267Y33082823D01*
X49289521Y33128354D01*
X49661437Y33995364D01*
X49672621Y34048124D01*
X49695294Y34097058D01*
X49780480Y34448882D01*
X49782097Y34488095D01*
X49794156Y34525445D01*
X49854990Y35047720D01*
X49852754Y35075467D01*
X49859001Y35102596D01*
X49876437Y35684430D01*
X49872514Y35707787D01*
X49876129Y35731192D01*
X49850868Y36316596D01*
X49844540Y36342514D01*
X49846428Y36369128D01*
X49779173Y36902114D01*
X49766436Y36940309D01*
X49764265Y36980514D01*
X49655718Y37405091D01*
X49639680Y37438579D01*
X49633438Y37475177D01*
X49563526Y37657989D01*
X49550351Y37678928D01*
X49544343Y37702928D01*
X49269953Y38283304D01*
X49242301Y38320601D01*
X49224676Y38363553D01*
X48878446Y38885466D01*
X48848929Y38915180D01*
X48828146Y38951543D01*
X48369089Y39479635D01*
X48337514Y39504084D01*
X48313567Y39536047D01*
X47783861Y40011489D01*
X47739204Y40037962D01*
X47701806Y40073972D01*
X46953017Y40554068D01*
X46900193Y40574787D01*
X46853041Y40606356D01*
X46036169Y40945599D01*
X46000730Y40952682D01*
X45968641Y40969310D01*
X45895170Y40990575D01*
X45863905Y40993251D01*
X45834777Y41004921D01*
X45360450Y41093543D01*
X45326574Y41093149D01*
X45293981Y41102388D01*
X44731165Y41147445D01*
X44705982Y41144499D01*
X44681124Y41149485D01*
X44092702Y41150434D01*
X44067052Y41145375D01*
X44041084Y41148433D01*
X43661845Y41118363D01*
X43771420Y41191580D01*
X47327420Y44747579D01*
X47547661Y45077193D01*
X47547662Y45077194D01*
X47625000Y45466000D01*
X47625000Y54715893D01*
X47910498Y54715893D01*
X48011120Y54447378D01*
X48626642Y54218184D01*
X49283019Y54241986D01*
X49778880Y54447378D01*
X49879502Y54715893D01*
X48895000Y55700395D01*
X47910498Y54715893D01*
X47625000Y54715893D01*
X47625000Y54935180D01*
X47730893Y54895498D01*
X48715395Y55880000D01*
X47730893Y56864502D01*
X47625000Y56824820D01*
X47625000Y57044107D01*
X47910498Y57044107D01*
X48895000Y56059605D01*
X49879502Y57044107D01*
X49778880Y57312622D01*
X49163358Y57541816D01*
X48506981Y57518014D01*
X48011120Y57312622D01*
X47910498Y57044107D01*
X47625000Y57044107D01*
X47625000Y57531000D01*
X47547662Y57919806D01*
X47547662Y57919807D01*
X47327421Y58249420D01*
X44958000Y60618840D01*
X44958000Y73130893D01*
X47910498Y73130893D01*
X48011120Y72862378D01*
X48626642Y72633184D01*
X49283019Y72656986D01*
X49778880Y72862378D01*
X49879502Y73130893D01*
X48895000Y74115395D01*
X47910498Y73130893D01*
X44958000Y73130893D01*
X44958000Y74563358D01*
X47233184Y74563358D01*
X47256986Y73906981D01*
X47462378Y73411120D01*
X47730893Y73310498D01*
X48715395Y74295000D01*
X47730893Y75279502D01*
X47462378Y75178880D01*
X47233184Y74563358D01*
X44958000Y74563358D01*
X44958000Y75459107D01*
X47910498Y75459107D01*
X48895000Y74474605D01*
X49879502Y75459107D01*
X49778880Y75727622D01*
X49163358Y75956816D01*
X48506981Y75933014D01*
X48011120Y75727622D01*
X47910498Y75459107D01*
X44958000Y75459107D01*
X44958000Y78359000D01*
X47576396Y78359000D01*
X47958563Y77976166D01*
X48565155Y77724287D01*
X49221963Y77723714D01*
X49828995Y77974534D01*
X50231000Y78375838D01*
X50231000Y75215088D01*
X50059107Y75279502D01*
X49074605Y74295000D01*
X50059107Y73310498D01*
X50231000Y73374912D01*
X50231000Y61958574D01*
X49831437Y62358834D01*
X49224845Y62610713D01*
X48568037Y62611286D01*
X47961005Y62360466D01*
X47496166Y61896437D01*
X47244287Y61289845D01*
X47243714Y60633037D01*
X47494534Y60026005D01*
X47958563Y59561166D01*
X48565155Y59309287D01*
X49221963Y59308714D01*
X49828995Y59559534D01*
X50231000Y59960838D01*
X50231000Y56800088D01*
X50059107Y56864502D01*
X49074605Y55880000D01*
X50059107Y54895498D01*
X50231000Y54959912D01*
X50231000Y7236314D01*
X49895945Y5551875D01*
X48985580Y4189419D01*
X47623123Y3279055D01*
X45938686Y2944000D01*
X12777501Y2944000D01*
X13089275Y3073141D01*
X13218483Y3365911D01*
X12065000Y4519395D01*
X10911517Y3365911D01*
X11040725Y3073141D01*
X11377843Y2944000D01*
X8622048Y2944000D01*
X8686121Y2985230D01*
X8831111Y3197430D01*
X8882120Y3449320D01*
X8882120Y5604510D01*
X10271796Y5604510D01*
X10403696Y5630746D01*
X10170929Y5023117D01*
X10191072Y4273616D01*
X10439141Y3674725D01*
X10731911Y3545517D01*
X11885395Y4699000D01*
X12244605Y4699000D01*
X13398089Y3545517D01*
X13690859Y3674725D01*
X13959071Y4374883D01*
X13938928Y5124384D01*
X13690859Y5723275D01*
X13398089Y5852483D01*
X12244605Y4699000D01*
X11885395Y4699000D01*
X11871252Y4713142D01*
X12050858Y4892748D01*
X12065000Y4878605D01*
X13218483Y6032089D01*
X13089275Y6324859D01*
X12389117Y6593071D01*
X11756859Y6576079D01*
X11781868Y6613508D01*
X11906286Y7239000D01*
X11781868Y7864492D01*
X11427555Y8394759D01*
X10897288Y8749072D01*
X10621725Y8803885D01*
X12335510Y10517669D01*
X12335510Y9286204D01*
X12459928Y8660712D01*
X12814241Y8130445D01*
X13344508Y7776132D01*
X13970000Y7651714D01*
X14595492Y7776132D01*
X15125759Y8130445D01*
X15480072Y8660712D01*
X15604490Y9286204D01*
X15604490Y10779796D01*
X15480072Y11405288D01*
X15125759Y11935555D01*
X14595492Y12289868D01*
X13970000Y12414286D01*
X13462000Y12313239D01*
X13462000Y16891000D01*
X13384662Y17279806D01*
X13384662Y17279807D01*
X13164420Y17609421D01*
X12166072Y18607768D01*
X12191668Y18669410D01*
X12192330Y19427265D01*
X11902922Y20127686D01*
X11367505Y20664039D01*
X10667590Y20954668D01*
X10577714Y20954747D01*
X10914380Y21093854D01*
X11289827Y21468647D01*
X11430094Y21806446D01*
X11568854Y21470620D01*
X11943647Y21095173D01*
X12433587Y20891732D01*
X12964086Y20891269D01*
X13454380Y21093854D01*
X13829827Y21468647D01*
X13970094Y21806446D01*
X14108854Y21470620D01*
X14483647Y21095173D01*
X14973587Y20891732D01*
X15504086Y20891269D01*
X15994380Y21093854D01*
X16369827Y21468647D01*
X16510094Y21806446D01*
X16648854Y21470620D01*
X17023647Y21095173D01*
X17513587Y20891732D01*
X18044086Y20891269D01*
X18534380Y21093854D01*
X18909827Y21468647D01*
X19050094Y21806446D01*
X19188854Y21470620D01*
X19563647Y21095173D01*
X19901676Y20954811D01*
X19307735Y20955330D01*
X18607314Y20665922D01*
X18070961Y20130505D01*
X17780332Y19430590D01*
X17779670Y18672735D01*
X18069078Y17972314D01*
X18604495Y17435961D01*
X19304410Y17145332D01*
X20062265Y17144670D01*
X20126817Y17171342D01*
X20828000Y16470159D01*
X20828000Y14972722D01*
X20701000Y14998440D01*
X18669000Y14998440D01*
X18433683Y14954162D01*
X18217559Y14815090D01*
X18072569Y14602890D01*
X18021560Y14351000D01*
X18021560Y12319000D01*
X18065838Y12083683D01*
X18204910Y11867559D01*
X18400057Y11734221D01*
X18252378Y11678880D01*
X18023184Y11063358D01*
X18046986Y10406981D01*
X18252378Y9911120D01*
X18520893Y9810498D01*
X19505395Y10795000D01*
X19491253Y10809142D01*
X19670858Y10988747D01*
X19685000Y10974605D01*
X19699143Y10988747D01*
X19878748Y10809142D01*
X19864605Y10795000D01*
X19878748Y10780857D01*
X19699143Y10601252D01*
X19685000Y10615395D01*
X18700498Y9630893D01*
X18801120Y9362378D01*
X19416642Y9133184D01*
X20073019Y9156986D01*
X20568880Y9362378D01*
X20669501Y9630891D01*
X20783741Y9516651D01*
X20828000Y9560910D01*
X20828000Y8548841D01*
X20236580Y7957420D01*
X20016338Y7627807D01*
X20016338Y7627806D01*
X19939000Y7239000D01*
X19939000Y6447055D01*
X19527114Y6035887D01*
X19270003Y5416696D01*
X19269418Y4746246D01*
X19525447Y4126607D01*
X19999113Y3652114D01*
X20618304Y3395003D01*
X21288754Y3394418D01*
X21908393Y3650447D01*
X22382886Y4124113D01*
X22399487Y4164092D01*
X23315395Y5080000D01*
X22400432Y5994963D01*
X22384553Y6033393D01*
X22149444Y6268913D01*
X22485692Y6268913D01*
X23495000Y5259605D01*
X23509143Y5273747D01*
X23688748Y5094142D01*
X23674605Y5080000D01*
X23688748Y5065857D01*
X23509143Y4886252D01*
X23495000Y4900395D01*
X22485692Y3891087D01*
X22590513Y3619014D01*
X23218458Y3384093D01*
X23888504Y3407358D01*
X24399487Y3619014D01*
X24435032Y3711276D01*
X24520620Y3578269D01*
X24732820Y3433279D01*
X24984710Y3382270D01*
X27085290Y3382270D01*
X27320607Y3426548D01*
X27536731Y3565620D01*
X27681721Y3777820D01*
X27732730Y4029710D01*
X27732730Y6130290D01*
X27688452Y6365607D01*
X27549380Y6581731D01*
X27337180Y6726721D01*
X27085290Y6777730D01*
X27051000Y6777730D01*
X27051000Y7112000D01*
X26973662Y7500806D01*
X26973662Y7500807D01*
X26753420Y7830421D01*
X26167116Y8416725D01*
X30465520Y8416725D01*
X30465520Y6823275D01*
X30589977Y6197588D01*
X30944400Y5667155D01*
X31474833Y5312732D01*
X32100520Y5188275D01*
X32726207Y5312732D01*
X33256640Y5667155D01*
X33611063Y6197588D01*
X33735520Y6823275D01*
X33735520Y7493000D01*
X42464480Y7493000D01*
X42464480Y6743000D01*
X42637538Y6126980D01*
X43033163Y5624078D01*
X43591125Y5310856D01*
X43719046Y5279876D01*
X43972480Y5399223D01*
X43972480Y7493000D01*
X44226480Y7493000D01*
X44226480Y5399223D01*
X44479914Y5279876D01*
X44607835Y5310856D01*
X45165797Y5624078D01*
X45561422Y6126980D01*
X45734480Y6743000D01*
X45734480Y7493000D01*
X44226480Y7493000D01*
X43972480Y7493000D01*
X42464480Y7493000D01*
X33735520Y7493000D01*
X33735520Y8416725D01*
X33719553Y8497000D01*
X42464480Y8497000D01*
X42464480Y7747000D01*
X43972480Y7747000D01*
X43972480Y9840777D01*
X44226480Y9840777D01*
X44226480Y7747000D01*
X45734480Y7747000D01*
X45734480Y8497000D01*
X45561422Y9113020D01*
X45165797Y9615922D01*
X44607835Y9929144D01*
X44479914Y9960124D01*
X44226480Y9840777D01*
X43972480Y9840777D01*
X43719046Y9960124D01*
X43591125Y9929144D01*
X43033163Y9615922D01*
X42637538Y9113020D01*
X42464480Y8497000D01*
X33719553Y8497000D01*
X33611063Y9042412D01*
X33256640Y9572845D01*
X32726207Y9927268D01*
X32100520Y10051725D01*
X31474833Y9927268D01*
X30944400Y9572845D01*
X30589977Y9042412D01*
X30465520Y8416725D01*
X26167116Y8416725D01*
X25908000Y8675840D01*
X25908000Y9630893D01*
X26320498Y9630893D01*
X26421120Y9362378D01*
X27036642Y9133184D01*
X27693019Y9156986D01*
X28188880Y9362378D01*
X28289502Y9630893D01*
X27305000Y10615395D01*
X26320498Y9630893D01*
X25908000Y9630893D01*
X25908000Y9897771D01*
X26140893Y9810498D01*
X27125395Y10795000D01*
X27111253Y10809142D01*
X27290858Y10988747D01*
X27305000Y10974605D01*
X27319143Y10988747D01*
X27498748Y10809142D01*
X27484605Y10795000D01*
X28469107Y9810498D01*
X28737622Y9911120D01*
X28966816Y10526642D01*
X28943014Y11183019D01*
X28737622Y11678880D01*
X28586746Y11735419D01*
X28772441Y11854910D01*
X28902129Y12044715D01*
X35444760Y12044715D01*
X35655169Y11535485D01*
X35870803Y11319475D01*
X35656539Y11105584D01*
X35445241Y10596722D01*
X35444760Y10045735D01*
X35655169Y9536505D01*
X36044436Y9146559D01*
X36553298Y8935261D01*
X37104285Y8934780D01*
X37613515Y9145189D01*
X37817183Y9348503D01*
X38578088Y9348503D01*
X38646077Y9107560D01*
X39165171Y8922819D01*
X39715448Y8950790D01*
X40093923Y9107560D01*
X40161912Y9348503D01*
X39370000Y10140415D01*
X38578088Y9348503D01*
X37817183Y9348503D01*
X38003461Y9534456D01*
X38093377Y9750999D01*
X38157540Y9596097D01*
X38398483Y9528108D01*
X39190395Y10320020D01*
X39549605Y10320020D01*
X40341517Y9528108D01*
X40582460Y9596097D01*
X40767201Y10115191D01*
X40739230Y10665468D01*
X40582460Y11043943D01*
X40341517Y11111932D01*
X39549605Y10320020D01*
X39190395Y10320020D01*
X38398483Y11111932D01*
X38157540Y11043943D01*
X38098268Y10877399D01*
X38004831Y11103535D01*
X37789197Y11319545D01*
X38003461Y11533436D01*
X38099976Y11765870D01*
X38195169Y11535485D01*
X38584436Y11145539D01*
X38823250Y11046375D01*
X39370000Y10499625D01*
X39916690Y11046315D01*
X40153515Y11144169D01*
X40543461Y11533436D01*
X40754759Y12042298D01*
X40755240Y12593285D01*
X40544831Y13102515D01*
X40155564Y13492461D01*
X39646702Y13703759D01*
X39095715Y13704240D01*
X38586485Y13493831D01*
X38196539Y13104564D01*
X38100024Y12872130D01*
X38004831Y13102515D01*
X37615564Y13492461D01*
X37106702Y13703759D01*
X36555715Y13704240D01*
X36046485Y13493831D01*
X35656539Y13104564D01*
X35445241Y12595702D01*
X35444760Y12044715D01*
X28902129Y12044715D01*
X28917431Y12067110D01*
X28968440Y12319000D01*
X28968440Y14351000D01*
X28924162Y14586317D01*
X28785090Y14802441D01*
X28572890Y14947431D01*
X28321000Y14998440D01*
X26289000Y14998440D01*
X26053683Y14954162D01*
X25837559Y14815090D01*
X25692569Y14602890D01*
X25641560Y14351000D01*
X25641560Y14323264D01*
X25456700Y14286493D01*
X25392193Y14273662D01*
X25062580Y14053421D01*
X24173580Y13164420D01*
X23953338Y12834807D01*
X23953338Y12834806D01*
X23876000Y12446000D01*
X23876000Y8255000D01*
X23935192Y7957420D01*
X23953338Y7866193D01*
X24173580Y7536580D01*
X24940709Y6769451D01*
X24749393Y6733452D01*
X24533269Y6594380D01*
X24434569Y6449928D01*
X24399487Y6540986D01*
X23771542Y6775907D01*
X23101496Y6752642D01*
X22590513Y6540986D01*
X22485692Y6268913D01*
X22149444Y6268913D01*
X21971000Y6447668D01*
X21971000Y6818160D01*
X22562421Y7409580D01*
X22782662Y7739193D01*
X22807585Y7864492D01*
X22860000Y8128000D01*
X22860000Y15951451D01*
X23157841Y15827776D01*
X23789388Y15827225D01*
X24373072Y16068398D01*
X24820032Y16514579D01*
X24912051Y16736185D01*
X43880630Y16736185D01*
X44204980Y15951200D01*
X44805041Y15350091D01*
X45589459Y15024372D01*
X46438815Y15023630D01*
X47223800Y15347980D01*
X47824909Y15948041D01*
X48150628Y16732459D01*
X48151370Y17581815D01*
X47827020Y18366800D01*
X47226959Y18967909D01*
X46442541Y19293628D01*
X45593185Y19294370D01*
X44808200Y18970020D01*
X44207091Y18369959D01*
X43881372Y17585541D01*
X43880630Y16736185D01*
X24912051Y16736185D01*
X25062224Y17097841D01*
X25062775Y17729388D01*
X24909389Y18100612D01*
X26987225Y18100612D01*
X27228398Y17516928D01*
X27674579Y17069968D01*
X28257841Y16827776D01*
X28889388Y16827225D01*
X29473072Y17068398D01*
X29920032Y17514579D01*
X30162224Y18097841D01*
X30162725Y18672735D01*
X30479670Y18672735D01*
X30769078Y17972314D01*
X31304495Y17435961D01*
X32004410Y17145332D01*
X32762265Y17144670D01*
X33462686Y17434078D01*
X33999039Y17969495D01*
X34289668Y18669410D01*
X34289670Y18672735D01*
X39877670Y18672735D01*
X40167078Y17972314D01*
X40702495Y17435961D01*
X41402410Y17145332D01*
X42160265Y17144670D01*
X42860686Y17434078D01*
X43397039Y17969495D01*
X43687668Y18669410D01*
X43688330Y19427265D01*
X43398922Y20127686D01*
X42863505Y20664039D01*
X42163590Y20954668D01*
X41405735Y20955330D01*
X40705314Y20665922D01*
X40168961Y20130505D01*
X39878332Y19430590D01*
X39877670Y18672735D01*
X34289670Y18672735D01*
X34290330Y19427265D01*
X34000922Y20127686D01*
X33465505Y20664039D01*
X32917502Y20891589D01*
X33284086Y20891269D01*
X33774380Y21093854D01*
X34149827Y21468647D01*
X34290094Y21806446D01*
X34428854Y21470620D01*
X34803647Y21095173D01*
X35293587Y20891732D01*
X35824086Y20891269D01*
X36314380Y21093854D01*
X36689827Y21468647D01*
X36830094Y21806446D01*
X36968854Y21470620D01*
X37343647Y21095173D01*
X37833587Y20891732D01*
X38364086Y20891269D01*
X38854380Y21093854D01*
X39051681Y21290812D01*
X39885417Y21290812D01*
X39947071Y21055200D01*
X40447480Y20879073D01*
X40977199Y20907852D01*
X41332929Y21055200D01*
X41394583Y21290812D01*
X40640000Y22045395D01*
X39885417Y21290812D01*
X39051681Y21290812D01*
X39229827Y21468647D01*
X39363314Y21790118D01*
X39470200Y21532071D01*
X39705812Y21470417D01*
X40460395Y22225000D01*
X40819605Y22225000D01*
X41574188Y21470417D01*
X41809800Y21532071D01*
X41908083Y21811312D01*
X42048854Y21470620D01*
X42423647Y21095173D01*
X42913587Y20891732D01*
X43444086Y20891269D01*
X43934380Y21093854D01*
X44309827Y21468647D01*
X44513268Y21958587D01*
X44513731Y22489086D01*
X44311146Y22979380D01*
X43936353Y23354827D01*
X43446413Y23558268D01*
X42915914Y23558731D01*
X42425620Y23356146D01*
X42050173Y22981353D01*
X41916686Y22659882D01*
X41809800Y22917929D01*
X41574188Y22979583D01*
X40819605Y22225000D01*
X40460395Y22225000D01*
X39705812Y22979583D01*
X39470200Y22917929D01*
X39371917Y22638688D01*
X39231146Y22979380D01*
X39051652Y23159188D01*
X39885417Y23159188D01*
X40640000Y22404605D01*
X41394583Y23159188D01*
X41332929Y23394800D01*
X40832520Y23570927D01*
X40302801Y23542148D01*
X39947071Y23394800D01*
X39885417Y23159188D01*
X39051652Y23159188D01*
X38856353Y23354827D01*
X38366413Y23558268D01*
X37835914Y23558731D01*
X37345620Y23356146D01*
X36970173Y22981353D01*
X36829906Y22643554D01*
X36691146Y22979380D01*
X36316353Y23354827D01*
X35826413Y23558268D01*
X35295914Y23558731D01*
X34805620Y23356146D01*
X34430173Y22981353D01*
X34289906Y22643554D01*
X34151146Y22979380D01*
X33776353Y23354827D01*
X33286413Y23558268D01*
X32755914Y23558731D01*
X32265620Y23356146D01*
X31890173Y22981353D01*
X31756686Y22659882D01*
X31649800Y22917929D01*
X31414188Y22979583D01*
X30659605Y22225000D01*
X31414188Y21470417D01*
X31649800Y21532071D01*
X31748083Y21811312D01*
X31888854Y21470620D01*
X32263647Y21095173D01*
X32601676Y20954811D01*
X32007735Y20955330D01*
X31307314Y20665922D01*
X30770961Y20130505D01*
X30480332Y19430590D01*
X30479670Y18672735D01*
X30162725Y18672735D01*
X30162775Y18729388D01*
X29921602Y19313072D01*
X29475421Y19760032D01*
X28892159Y20002224D01*
X28260612Y20002775D01*
X27676928Y19761602D01*
X27229968Y19315421D01*
X26987776Y18732159D01*
X26987225Y18100612D01*
X24909389Y18100612D01*
X24821602Y18313072D01*
X24375421Y18760032D01*
X23792159Y19002224D01*
X23160612Y19002775D01*
X22576928Y18761602D01*
X22129968Y18315421D01*
X22049708Y18122133D01*
X21564072Y18607768D01*
X21589668Y18669410D01*
X21590330Y19427265D01*
X21300922Y20127686D01*
X20765505Y20664039D01*
X20217502Y20891589D01*
X20584086Y20891269D01*
X21074380Y21093854D01*
X21449827Y21468647D01*
X21590094Y21806446D01*
X21728854Y21470620D01*
X22103647Y21095173D01*
X22593587Y20891732D01*
X23124086Y20891269D01*
X23614380Y21093854D01*
X23989827Y21468647D01*
X24130094Y21806446D01*
X24268854Y21470620D01*
X24643647Y21095173D01*
X25133587Y20891732D01*
X25664086Y20891269D01*
X26154380Y21093854D01*
X26529827Y21468647D01*
X26670094Y21806446D01*
X26808854Y21470620D01*
X27183647Y21095173D01*
X27673587Y20891732D01*
X28204086Y20891269D01*
X28694380Y21093854D01*
X28891681Y21290812D01*
X29725417Y21290812D01*
X29787071Y21055200D01*
X30287480Y20879073D01*
X30817199Y20907852D01*
X31172929Y21055200D01*
X31234583Y21290812D01*
X30480000Y22045395D01*
X29725417Y21290812D01*
X28891681Y21290812D01*
X29069827Y21468647D01*
X29203314Y21790118D01*
X29310200Y21532071D01*
X29545812Y21470417D01*
X30300395Y22225000D01*
X29545812Y22979583D01*
X29310200Y22917929D01*
X29211917Y22638688D01*
X29071146Y22979380D01*
X28891652Y23159188D01*
X29725417Y23159188D01*
X30480000Y22404605D01*
X31234583Y23159188D01*
X31172929Y23394800D01*
X30672520Y23570927D01*
X30142801Y23542148D01*
X29787071Y23394800D01*
X29725417Y23159188D01*
X28891652Y23159188D01*
X28696353Y23354827D01*
X28206413Y23558268D01*
X27675914Y23558731D01*
X27185620Y23356146D01*
X26810173Y22981353D01*
X26669906Y22643554D01*
X26531146Y22979380D01*
X26156353Y23354827D01*
X25666413Y23558268D01*
X25135914Y23558731D01*
X24645620Y23356146D01*
X24270173Y22981353D01*
X24129906Y22643554D01*
X23991146Y22979380D01*
X23616353Y23354827D01*
X23126413Y23558268D01*
X22595914Y23558731D01*
X22105620Y23356146D01*
X21730173Y22981353D01*
X21589906Y22643554D01*
X21451146Y22979380D01*
X21076353Y23354827D01*
X20586413Y23558268D01*
X20055914Y23558731D01*
X19565620Y23356146D01*
X19190173Y22981353D01*
X19049906Y22643554D01*
X18911146Y22979380D01*
X18536353Y23354827D01*
X18046413Y23558268D01*
X17515914Y23558731D01*
X17025620Y23356146D01*
X16650173Y22981353D01*
X16509906Y22643554D01*
X16371146Y22979380D01*
X15996353Y23354827D01*
X15506413Y23558268D01*
X14975914Y23558731D01*
X14485620Y23356146D01*
X14110173Y22981353D01*
X13969906Y22643554D01*
X13831146Y22979380D01*
X13456353Y23354827D01*
X12966413Y23558268D01*
X12435914Y23558731D01*
X11945620Y23356146D01*
X11570173Y22981353D01*
X11429906Y22643554D01*
X11291146Y22979380D01*
X10916353Y23354827D01*
X10426413Y23558268D01*
X9895914Y23558731D01*
X9405620Y23356146D01*
X9030173Y22981353D01*
X8965940Y22826663D01*
X8965940Y22923500D01*
X8921662Y23158817D01*
X8782590Y23374941D01*
X8570390Y23519931D01*
X8318500Y23570940D01*
X6921500Y23570940D01*
X6686183Y23526662D01*
X6470059Y23387590D01*
X6325069Y23175390D01*
X6274060Y22923500D01*
X6274060Y21526500D01*
X6318338Y21291183D01*
X6457410Y21075059D01*
X6669610Y20930069D01*
X6921500Y20879060D01*
X8318500Y20879060D01*
X8553817Y20923338D01*
X8769941Y21062410D01*
X8914931Y21274610D01*
X8965940Y21526500D01*
X8965940Y21622884D01*
X9028854Y21470620D01*
X9403647Y21095173D01*
X9824872Y20920265D01*
X9209314Y20665922D01*
X8672961Y20130505D01*
X8382332Y19430590D01*
X8381670Y18672735D01*
X8671078Y17972314D01*
X9206495Y17435961D01*
X9906410Y17145332D01*
X10664265Y17144670D01*
X10728817Y17171342D01*
X11430000Y16470159D01*
X11430000Y14659379D01*
X11051540Y14770100D01*
X9652000Y14770100D01*
X9652000Y13462000D01*
X9672000Y13462000D01*
X9672000Y13208000D01*
X9652000Y13208000D01*
X9652000Y11899900D01*
X10844059Y11899900D01*
X8806580Y9862420D01*
X8586338Y9532807D01*
X8573507Y9468300D01*
X8509000Y9144000D01*
X8509000Y8819942D01*
X8152712Y8749072D01*
X7622445Y8394759D01*
X7268132Y7864492D01*
X7143714Y7239000D01*
X7268132Y6613508D01*
X7279750Y6596120D01*
X5735320Y6596120D01*
X5500003Y6551842D01*
X5283879Y6412770D01*
X5138889Y6200570D01*
X5087880Y5948680D01*
X5087880Y3449320D01*
X5132158Y3214003D01*
X5190320Y3123616D01*
X4408875Y3279055D01*
X3046419Y4189420D01*
X2136055Y5551877D01*
X1801000Y7236314D01*
X1801000Y12985945D01*
X6733457Y12985945D01*
X6750999Y12903143D01*
X7020888Y12410033D01*
X7458938Y12057741D01*
X7998460Y11899900D01*
X9398000Y11899900D01*
X9398000Y13208000D01*
X6855444Y13208000D01*
X6733457Y12985945D01*
X1801000Y12985945D01*
X1801000Y13684055D01*
X6733457Y13684055D01*
X6855444Y13462000D01*
X9398000Y13462000D01*
X9398000Y14770100D01*
X7998460Y14770100D01*
X7458938Y14612259D01*
X7020888Y14259967D01*
X6750999Y13766857D01*
X6733457Y13684055D01*
X1801000Y13684055D01*
X1801000Y16736185D01*
X3880630Y16736185D01*
X4204980Y15951200D01*
X4805041Y15350091D01*
X5589459Y15024372D01*
X6438815Y15023630D01*
X7223800Y15347980D01*
X7824909Y15948041D01*
X8150628Y16732459D01*
X8151370Y17581815D01*
X7827020Y18366800D01*
X7226959Y18967909D01*
X6442541Y19293628D01*
X5593185Y19294370D01*
X4808200Y18970020D01*
X4207091Y18369959D01*
X3881372Y17585541D01*
X3880630Y16736185D01*
X1801000Y16736185D01*
X1801000Y26219745D01*
X6121400Y26219745D01*
X6121400Y25850255D01*
X6235474Y25276766D01*
X6560330Y24790585D01*
X7046511Y24465729D01*
X7620000Y24351655D01*
X8193489Y24465729D01*
X8679670Y24790585D01*
X8890000Y25105366D01*
X9100330Y24790585D01*
X9586511Y24465729D01*
X10160000Y24351655D01*
X10733489Y24465729D01*
X11219670Y24790585D01*
X11430000Y25105366D01*
X11640330Y24790585D01*
X12126511Y24465729D01*
X12700000Y24351655D01*
X13273489Y24465729D01*
X13759670Y24790585D01*
X13970000Y25105366D01*
X14180330Y24790585D01*
X14666511Y24465729D01*
X15240000Y24351655D01*
X15813489Y24465729D01*
X16299670Y24790585D01*
X16510000Y25105366D01*
X16720330Y24790585D01*
X17206511Y24465729D01*
X17780000Y24351655D01*
X18353489Y24465729D01*
X18839670Y24790585D01*
X19050000Y25105366D01*
X19260330Y24790585D01*
X19746511Y24465729D01*
X20320000Y24351655D01*
X20893489Y24465729D01*
X21379670Y24790585D01*
X21590000Y25105366D01*
X21800330Y24790585D01*
X22286511Y24465729D01*
X22860000Y24351655D01*
X23433489Y24465729D01*
X23919670Y24790585D01*
X24130000Y25105366D01*
X24340330Y24790585D01*
X24826511Y24465729D01*
X25400000Y24351655D01*
X25973489Y24465729D01*
X26459670Y24790585D01*
X26670000Y25105366D01*
X26880330Y24790585D01*
X27366511Y24465729D01*
X27940000Y24351655D01*
X28513489Y24465729D01*
X28999670Y24790585D01*
X29206461Y25100069D01*
X29577964Y24684268D01*
X30105209Y24430291D01*
X30120974Y24427642D01*
X30353000Y24548783D01*
X30353000Y25908000D01*
X30333000Y25908000D01*
X30333000Y26162000D01*
X30353000Y26162000D01*
X30353000Y27521217D01*
X30607000Y27521217D01*
X30607000Y26162000D01*
X30627000Y26162000D01*
X30627000Y25908000D01*
X30607000Y25908000D01*
X30607000Y24548783D01*
X30839026Y24427642D01*
X30854791Y24430291D01*
X31382036Y24684268D01*
X31753539Y25100069D01*
X31960330Y24790585D01*
X32446511Y24465729D01*
X33020000Y24351655D01*
X33593489Y24465729D01*
X34079670Y24790585D01*
X34290000Y25105366D01*
X34500330Y24790585D01*
X34986511Y24465729D01*
X35560000Y24351655D01*
X36133489Y24465729D01*
X36619670Y24790585D01*
X36830000Y25105366D01*
X37040330Y24790585D01*
X37526511Y24465729D01*
X38100000Y24351655D01*
X38673489Y24465729D01*
X39159670Y24790585D01*
X39366461Y25100069D01*
X39737964Y24684268D01*
X40265209Y24430291D01*
X40280974Y24427642D01*
X40513000Y24548783D01*
X40513000Y25908000D01*
X40493000Y25908000D01*
X40493000Y26162000D01*
X40513000Y26162000D01*
X40513000Y27521217D01*
X40280974Y27642358D01*
X40265209Y27639709D01*
X39737964Y27385732D01*
X39366461Y26969931D01*
X39159670Y27279415D01*
X38673489Y27604271D01*
X38100000Y27718345D01*
X37526511Y27604271D01*
X37040330Y27279415D01*
X36830000Y26964634D01*
X36619670Y27279415D01*
X36133489Y27604271D01*
X35560000Y27718345D01*
X34986511Y27604271D01*
X34500330Y27279415D01*
X34290000Y26964634D01*
X34079670Y27279415D01*
X33593489Y27604271D01*
X33020000Y27718345D01*
X32446511Y27604271D01*
X31960330Y27279415D01*
X31753539Y26969931D01*
X31382036Y27385732D01*
X30854791Y27639709D01*
X30839026Y27642358D01*
X30607000Y27521217D01*
X30353000Y27521217D01*
X30120974Y27642358D01*
X30105209Y27639709D01*
X29577964Y27385732D01*
X29206461Y26969931D01*
X28999670Y27279415D01*
X28513489Y27604271D01*
X27940000Y27718345D01*
X27366511Y27604271D01*
X26880330Y27279415D01*
X26670000Y26964634D01*
X26459670Y27279415D01*
X25973489Y27604271D01*
X25400000Y27718345D01*
X24826511Y27604271D01*
X24340330Y27279415D01*
X24130000Y26964634D01*
X23919670Y27279415D01*
X23433489Y27604271D01*
X22860000Y27718345D01*
X22286511Y27604271D01*
X21800330Y27279415D01*
X21590000Y26964634D01*
X21379670Y27279415D01*
X20893489Y27604271D01*
X20320000Y27718345D01*
X19746511Y27604271D01*
X19260330Y27279415D01*
X19050000Y26964634D01*
X18839670Y27279415D01*
X18353489Y27604271D01*
X17780000Y27718345D01*
X17206511Y27604271D01*
X16720330Y27279415D01*
X16510000Y26964634D01*
X16299670Y27279415D01*
X15813489Y27604271D01*
X15240000Y27718345D01*
X14666511Y27604271D01*
X14180330Y27279415D01*
X13970000Y26964634D01*
X13759670Y27279415D01*
X13273489Y27604271D01*
X12700000Y27718345D01*
X12126511Y27604271D01*
X11640330Y27279415D01*
X11430000Y26964634D01*
X11219670Y27279415D01*
X10733489Y27604271D01*
X10160000Y27718345D01*
X9586511Y27604271D01*
X9100330Y27279415D01*
X8890000Y26964634D01*
X8679670Y27279415D01*
X8193489Y27604271D01*
X7620000Y27718345D01*
X7046511Y27604271D01*
X6560330Y27279415D01*
X6235474Y26793234D01*
X6121400Y26219745D01*
X1801000Y26219745D01*
X1801000Y30530000D01*
X2268173Y30530000D01*
X2362182Y30057386D01*
X2629896Y29656723D01*
X3030559Y29389009D01*
X3503173Y29295000D01*
X5386827Y29295000D01*
X5859441Y29389009D01*
X6260104Y29656723D01*
X6527818Y30057386D01*
X6621827Y30530000D01*
X6527818Y31002614D01*
X6260104Y31403277D01*
X5859441Y31670991D01*
X5386827Y31765000D01*
X3503173Y31765000D01*
X3030559Y31670991D01*
X2629896Y31403277D01*
X2362182Y31002614D01*
X2268173Y30530000D01*
X1801000Y30530000D01*
X1801000Y88614250D01*
X4699000Y88614250D01*
X4699000Y87757691D01*
X4795673Y87524302D01*
X4974301Y87345673D01*
X5207690Y87249000D01*
X6064250Y87249000D01*
X6223000Y87407750D01*
X6223000Y88773000D01*
X6477000Y88773000D01*
X6477000Y87407750D01*
X6635750Y87249000D01*
X7492310Y87249000D01*
X7725699Y87345673D01*
X7904327Y87524302D01*
X8001000Y87757691D01*
X8001000Y88614250D01*
X7842250Y88773000D01*
X6477000Y88773000D01*
X6223000Y88773000D01*
X4857750Y88773000D01*
X4699000Y88614250D01*
X1801000Y88614250D01*
X1801000Y91113037D01*
X4698714Y91113037D01*
X4949534Y90506005D01*
X4993276Y90462187D01*
X4974301Y90454327D01*
X4795673Y90275698D01*
X4699000Y90042309D01*
X4699000Y89185750D01*
X4857750Y89027000D01*
X6223000Y89027000D01*
X6223000Y89047000D01*
X6477000Y89047000D01*
X6477000Y89027000D01*
X7842250Y89027000D01*
X8001000Y89185750D01*
X8001000Y90042309D01*
X7904327Y90275698D01*
X7725699Y90454327D01*
X7707192Y90461993D01*
X7748834Y90503563D01*
X8000713Y91110155D01*
X8001286Y91766963D01*
X7750466Y92373995D01*
X7286437Y92838834D01*
X6679845Y93090713D01*
X6023037Y93091286D01*
X5416005Y92840466D01*
X4951166Y92376437D01*
X4699287Y91769845D01*
X4698714Y91113037D01*
X1801000Y91113037D01*
X1801000Y96736185D01*
X3880630Y96736185D01*
X4204980Y95951200D01*
X4805041Y95350091D01*
X5589459Y95024372D01*
X6438815Y95023630D01*
X7223800Y95347980D01*
X7824909Y95948041D01*
X8150628Y96732459D01*
X8151370Y97581815D01*
X7827020Y98366800D01*
X7226959Y98967909D01*
X6442541Y99293628D01*
X5593185Y99294370D01*
X4808200Y98970020D01*
X4207091Y98369959D01*
X3881372Y97585541D01*
X3880630Y96736185D01*
X1801000Y96736185D01*
X1801000Y97081686D01*
X2136055Y98766123D01*
X3046419Y100128580D01*
X4408875Y101038945D01*
X6093314Y101374000D01*
X45938686Y101374000D01*
X47623123Y101038945D01*
X47623123Y101038945D01*
G37*
X47623123Y101038945D02*
X48985580Y100128581D01*
X49895945Y98766125D01*
X50231000Y97081686D01*
X50231000Y80373574D01*
X49831437Y80773834D01*
X49224845Y81025713D01*
X48568037Y81026286D01*
X47961005Y80775466D01*
X47575868Y80391000D01*
X42593604Y80391000D01*
X42211437Y80773834D01*
X41604845Y81025713D01*
X40948037Y81026286D01*
X40341005Y80775466D01*
X39876166Y80311437D01*
X39624287Y79704845D01*
X39623714Y79048037D01*
X39874534Y78441005D01*
X40338563Y77976166D01*
X40945155Y77724287D01*
X41601963Y77723714D01*
X42208995Y77974534D01*
X42594132Y78359000D01*
X42926000Y78359000D01*
X42926000Y74324910D01*
X42913014Y74683019D01*
X42707622Y75178880D01*
X42439107Y75279502D01*
X41454605Y74295000D01*
X42439107Y73310498D01*
X42707622Y73411120D01*
X42926000Y73997595D01*
X42926000Y61287655D01*
X42675466Y61893995D01*
X42211437Y62358834D01*
X41604845Y62610713D01*
X40948037Y62611286D01*
X40341005Y62360466D01*
X39876166Y61896437D01*
X39624287Y61289845D01*
X39623714Y60633037D01*
X39874534Y60026005D01*
X40338563Y59561166D01*
X40945155Y59309287D01*
X41489348Y59308812D01*
X43942000Y56856159D01*
X43942000Y54038081D01*
X43878500Y54050940D01*
X42481500Y54050940D01*
X42246183Y54006662D01*
X42030059Y53867590D01*
X41885069Y53655390D01*
X41834060Y53403500D01*
X41834060Y53339360D01*
X41809800Y53397929D01*
X41574188Y53459583D01*
X40819605Y52705000D01*
X41574188Y51950417D01*
X41809800Y52012071D01*
X41834060Y52080998D01*
X41834060Y52006500D01*
X41878338Y51771183D01*
X42017410Y51555059D01*
X42229610Y51410069D01*
X42481500Y51359060D01*
X43878500Y51359060D01*
X43942000Y51371008D01*
X43942000Y50338312D01*
X43753489Y50464271D01*
X43180000Y50578345D01*
X42606511Y50464271D01*
X42120330Y50139415D01*
X41913539Y49829931D01*
X41542036Y50245732D01*
X41014791Y50499709D01*
X40999026Y50502358D01*
X40767000Y50381217D01*
X40767000Y49022000D01*
X40787000Y49022000D01*
X40787000Y48768000D01*
X40767000Y48768000D01*
X40767000Y47408783D01*
X40999026Y47287642D01*
X41014791Y47290291D01*
X41542036Y47544268D01*
X41913539Y47960069D01*
X42120330Y47650585D01*
X42164000Y47621406D01*
X42164000Y47029841D01*
X41489160Y46355000D01*
X21883841Y46355000D01*
X21336000Y46902840D01*
X21336000Y47621406D01*
X21379670Y47650585D01*
X21586461Y47960069D01*
X21957964Y47544268D01*
X22485209Y47290291D01*
X22500974Y47287642D01*
X22733000Y47408783D01*
X22733000Y48768000D01*
X22713000Y48768000D01*
X22713000Y49022000D01*
X22733000Y49022000D01*
X22733000Y50381217D01*
X22987000Y50381217D01*
X22987000Y49022000D01*
X23007000Y49022000D01*
X23007000Y48768000D01*
X22987000Y48768000D01*
X22987000Y47408783D01*
X23219026Y47287642D01*
X23234791Y47290291D01*
X23762036Y47544268D01*
X24133539Y47960069D01*
X24340330Y47650585D01*
X24826511Y47325729D01*
X25400000Y47211655D01*
X25973489Y47325729D01*
X26459670Y47650585D01*
X26670000Y47965366D01*
X26880330Y47650585D01*
X27366511Y47325729D01*
X27940000Y47211655D01*
X28513489Y47325729D01*
X28999670Y47650585D01*
X29210000Y47965366D01*
X29420330Y47650585D01*
X29906511Y47325729D01*
X30480000Y47211655D01*
X31053489Y47325729D01*
X31539670Y47650585D01*
X31750000Y47965366D01*
X31960330Y47650585D01*
X32446511Y47325729D01*
X33020000Y47211655D01*
X33593489Y47325729D01*
X34079670Y47650585D01*
X34290000Y47965366D01*
X34500330Y47650585D01*
X34986511Y47325729D01*
X35560000Y47211655D01*
X36133489Y47325729D01*
X36619670Y47650585D01*
X36830000Y47965366D01*
X37040330Y47650585D01*
X37526511Y47325729D01*
X38100000Y47211655D01*
X38673489Y47325729D01*
X39159670Y47650585D01*
X39366461Y47960069D01*
X39737964Y47544268D01*
X40265209Y47290291D01*
X40280974Y47287642D01*
X40513000Y47408783D01*
X40513000Y48768000D01*
X40493000Y48768000D01*
X40493000Y49022000D01*
X40513000Y49022000D01*
X40513000Y50381217D01*
X40280974Y50502358D01*
X40265209Y50499709D01*
X39737964Y50245732D01*
X39366461Y49829931D01*
X39159670Y50139415D01*
X38673489Y50464271D01*
X38100000Y50578345D01*
X37526511Y50464271D01*
X37040330Y50139415D01*
X36830000Y49824634D01*
X36619670Y50139415D01*
X36133489Y50464271D01*
X35560000Y50578345D01*
X34986511Y50464271D01*
X34500330Y50139415D01*
X34290000Y49824634D01*
X34079670Y50139415D01*
X33593489Y50464271D01*
X33020000Y50578345D01*
X32446511Y50464271D01*
X31960330Y50139415D01*
X31750000Y49824634D01*
X31539670Y50139415D01*
X31053489Y50464271D01*
X30480000Y50578345D01*
X29906511Y50464271D01*
X29420330Y50139415D01*
X29210000Y49824634D01*
X28999670Y50139415D01*
X28513489Y50464271D01*
X27940000Y50578345D01*
X27366511Y50464271D01*
X26880330Y50139415D01*
X26670000Y49824634D01*
X26459670Y50139415D01*
X25973489Y50464271D01*
X25400000Y50578345D01*
X24826511Y50464271D01*
X24340330Y50139415D01*
X24133539Y49829931D01*
X23762036Y50245732D01*
X23234791Y50499709D01*
X23219026Y50502358D01*
X22987000Y50381217D01*
X22733000Y50381217D01*
X22500974Y50502358D01*
X22485209Y50499709D01*
X21957964Y50245732D01*
X21586461Y49829931D01*
X21379670Y50139415D01*
X20893489Y50464271D01*
X20320000Y50578345D01*
X19746511Y50464271D01*
X19260330Y50139415D01*
X19050000Y49824634D01*
X18839670Y50139415D01*
X18353489Y50464271D01*
X17780000Y50578345D01*
X17206511Y50464271D01*
X16720330Y50139415D01*
X16510000Y49824634D01*
X16299670Y50139415D01*
X15813489Y50464271D01*
X15240000Y50578345D01*
X14666511Y50464271D01*
X14180330Y50139415D01*
X13970000Y49824634D01*
X13759670Y50139415D01*
X13273489Y50464271D01*
X12700000Y50578345D01*
X12126511Y50464271D01*
X11640330Y50139415D01*
X11430000Y49824634D01*
X11219670Y50139415D01*
X10733489Y50464271D01*
X10160000Y50578345D01*
X9586511Y50464271D01*
X9100330Y50139415D01*
X8890000Y49824634D01*
X8679670Y50139415D01*
X8193489Y50464271D01*
X7620000Y50578345D01*
X7046511Y50464271D01*
X6858000Y50338312D01*
X6858000Y51580830D01*
X6863647Y51575173D01*
X7353587Y51371732D01*
X7884086Y51371269D01*
X8374380Y51573854D01*
X8749827Y51948647D01*
X8890094Y52286446D01*
X9028854Y51950620D01*
X9202308Y51776863D01*
X9221338Y51681194D01*
X9441580Y51351580D01*
X9771194Y51131338D01*
X10160000Y51054000D01*
X10548806Y51131338D01*
X10878420Y51351580D01*
X11098662Y51681194D01*
X11117679Y51776799D01*
X11289827Y51948647D01*
X11430094Y52286446D01*
X11568854Y51950620D01*
X11742308Y51776863D01*
X11761338Y51681194D01*
X11981580Y51351580D01*
X12311194Y51131338D01*
X12700000Y51054000D01*
X13088806Y51131338D01*
X13418420Y51351580D01*
X13638662Y51681194D01*
X13657679Y51776799D01*
X13829827Y51948647D01*
X13970094Y52286446D01*
X14108854Y51950620D01*
X14282308Y51776863D01*
X14301338Y51681194D01*
X14521580Y51351580D01*
X14851194Y51131338D01*
X15240000Y51054000D01*
X15628806Y51131338D01*
X15958420Y51351580D01*
X16178662Y51681194D01*
X16197679Y51776799D01*
X16369827Y51948647D01*
X16510094Y52286446D01*
X16648854Y51950620D01*
X17023647Y51575173D01*
X17513587Y51371732D01*
X18044086Y51371269D01*
X18534380Y51573854D01*
X18909827Y51948647D01*
X19050094Y52286446D01*
X19188854Y51950620D01*
X19563647Y51575173D01*
X20053587Y51371732D01*
X20584086Y51371269D01*
X21074380Y51573854D01*
X21271681Y51770812D01*
X22105417Y51770812D01*
X22167071Y51535200D01*
X22667480Y51359073D01*
X23197199Y51387852D01*
X23552929Y51535200D01*
X23614583Y51770812D01*
X22860000Y52525395D01*
X22105417Y51770812D01*
X21271681Y51770812D01*
X21449827Y51948647D01*
X21583314Y52270118D01*
X21690200Y52012071D01*
X21925812Y51950417D01*
X22680395Y52705000D01*
X21925812Y53459583D01*
X21690200Y53397929D01*
X21591917Y53118688D01*
X21451146Y53459380D01*
X21271652Y53639188D01*
X22105417Y53639188D01*
X22860000Y52884605D01*
X23614583Y53639188D01*
X23552929Y53874800D01*
X23052520Y54050927D01*
X22522801Y54022148D01*
X22167071Y53874800D01*
X22105417Y53639188D01*
X21271652Y53639188D01*
X21076353Y53834827D01*
X20586413Y54038268D01*
X20055914Y54038731D01*
X19565620Y53836146D01*
X19190173Y53461353D01*
X19049906Y53123554D01*
X18911146Y53459380D01*
X18536353Y53834827D01*
X18046413Y54038268D01*
X17515914Y54038731D01*
X17025620Y53836146D01*
X16650173Y53461353D01*
X16509906Y53123554D01*
X16384033Y53428192D01*
X17482420Y54526579D01*
X17702661Y54856193D01*
X17702662Y54856194D01*
X17780000Y55245000D01*
X17780000Y58039000D01*
X17738145Y58249420D01*
X17702662Y58427807D01*
X17482421Y58757420D01*
X14097000Y62142840D01*
X14097000Y66348037D01*
X14858714Y66348037D01*
X15109534Y65741005D01*
X15573563Y65276166D01*
X16028291Y65087346D01*
X15576005Y64900466D01*
X15111166Y64436437D01*
X14859287Y63829845D01*
X14858714Y63173037D01*
X15109534Y62566005D01*
X15573563Y62101166D01*
X16180155Y61849287D01*
X16836963Y61848714D01*
X17443995Y62099534D01*
X17908834Y62563563D01*
X18160713Y63170155D01*
X18161286Y63826963D01*
X17910466Y64433995D01*
X17446437Y64898834D01*
X16991709Y65087654D01*
X17443995Y65274534D01*
X17908834Y65738563D01*
X18160713Y66345155D01*
X18160715Y66348037D01*
X22478714Y66348037D01*
X22729534Y65741005D01*
X23193563Y65276166D01*
X23648291Y65087346D01*
X23196005Y64900466D01*
X22731166Y64436437D01*
X22479287Y63829845D01*
X22478714Y63173037D01*
X22729534Y62566005D01*
X23193563Y62101166D01*
X23800155Y61849287D01*
X24456963Y61848714D01*
X25063995Y62099534D01*
X25528834Y62563563D01*
X25780713Y63170155D01*
X25781077Y63587236D01*
X25982091Y63788250D01*
X26297000Y63788250D01*
X26297000Y63672691D01*
X26393673Y63439302D01*
X26572301Y63260673D01*
X26805690Y63164000D01*
X27146250Y63164000D01*
X27305000Y63322750D01*
X27305000Y63947000D01*
X27559000Y63947000D01*
X27559000Y63322750D01*
X27717750Y63164000D01*
X28058310Y63164000D01*
X28291699Y63260673D01*
X28470327Y63439302D01*
X28567000Y63672691D01*
X28567000Y63788250D01*
X28408250Y63947000D01*
X27559000Y63947000D01*
X27305000Y63947000D01*
X26455750Y63947000D01*
X26297000Y63788250D01*
X25982091Y63788250D01*
X26328841Y64135000D01*
X26766868Y64135000D01*
X26932000Y64101560D01*
X27932000Y64101560D01*
X28167317Y64145838D01*
X28253041Y64201000D01*
X28408250Y64201000D01*
X28567000Y64359750D01*
X28567000Y64475309D01*
X28538130Y64545007D01*
X28579440Y64749000D01*
X28579440Y65299000D01*
X28540426Y65506342D01*
X28579440Y65699000D01*
X28579440Y66249000D01*
X28535162Y66484317D01*
X28396090Y66700441D01*
X28183890Y66845431D01*
X27932000Y66896440D01*
X26932000Y66896440D01*
X26696683Y66852162D01*
X26480559Y66713090D01*
X26335569Y66500890D01*
X26284560Y66249000D01*
X26284560Y65913000D01*
X26244130Y65913000D01*
X26169807Y65962661D01*
X25781000Y66039999D01*
X25642567Y66012463D01*
X25780713Y66345155D01*
X25781286Y67001963D01*
X25530466Y67608995D01*
X25066437Y68073834D01*
X24459845Y68325713D01*
X23803037Y68326286D01*
X23196005Y68075466D01*
X22731166Y67611437D01*
X22479287Y67004845D01*
X22478714Y66348037D01*
X18160715Y66348037D01*
X18161286Y67001963D01*
X17910466Y67608995D01*
X17446437Y68073834D01*
X16839845Y68325713D01*
X16183037Y68326286D01*
X15576005Y68075466D01*
X15111166Y67611437D01*
X14859287Y67004845D01*
X14858714Y66348037D01*
X14097000Y66348037D01*
X14097000Y72009000D01*
X14097001Y72009000D01*
X14174338Y71620193D01*
X14394580Y71290580D01*
X16680579Y69004580D01*
X16825090Y68908021D01*
X17010194Y68784338D01*
X17399000Y68707000D01*
X28154160Y68707000D01*
X29083000Y67778159D01*
X29083000Y67691000D01*
X29160338Y67302194D01*
X29243000Y67178482D01*
X29243000Y66753270D01*
X29180559Y66713090D01*
X29035569Y66500890D01*
X28984560Y66249000D01*
X28984560Y65699000D01*
X29028838Y65463683D01*
X29167910Y65247559D01*
X29380110Y65102569D01*
X29632000Y65051560D01*
X30632000Y65051560D01*
X30867317Y65095838D01*
X31083441Y65234910D01*
X31228431Y65447110D01*
X31279440Y65699000D01*
X31279440Y66249000D01*
X31235162Y66484317D01*
X31096090Y66700441D01*
X31021000Y66751748D01*
X31021000Y67277258D01*
X31037662Y67302194D01*
X31115000Y67691000D01*
X31115000Y68032159D01*
X31496000Y67651159D01*
X31496000Y65317841D01*
X31141160Y64963000D01*
X30797132Y64963000D01*
X30632000Y64996440D01*
X29632000Y64996440D01*
X29396683Y64952162D01*
X29180559Y64813090D01*
X29035569Y64600890D01*
X28984560Y64349000D01*
X28984560Y63799000D01*
X29028838Y63563683D01*
X29167910Y63347559D01*
X29380110Y63202569D01*
X29632000Y63151560D01*
X30632000Y63151560D01*
X30809718Y63185000D01*
X31061094Y63185000D01*
X31234193Y63069338D01*
X31623000Y62992001D01*
X32011807Y63069338D01*
X32341420Y63289580D01*
X33230421Y64178580D01*
X33450662Y64508193D01*
X33469100Y64600890D01*
X33528000Y64897000D01*
X33528000Y68072000D01*
X33450662Y68460806D01*
X33450662Y68460807D01*
X33230420Y68790421D01*
X29039420Y72981420D01*
X28709807Y73201662D01*
X28645300Y73214493D01*
X28321000Y73279000D01*
X17526000Y73279000D01*
X17137194Y73201662D01*
X16807580Y72981420D01*
X16587338Y72651806D01*
X16510000Y72263000D01*
X16563176Y71995664D01*
X15831420Y72727420D01*
X15501807Y72947662D01*
X15113000Y73024999D01*
X14724193Y72947662D01*
X14394580Y72727420D01*
X14174338Y72397807D01*
X14097001Y72009000D01*
X14097000Y72009000D01*
X14097000Y73874160D01*
X19068733Y78845893D01*
X20605498Y78845893D01*
X20706120Y78577378D01*
X21321642Y78348184D01*
X21978019Y78371986D01*
X22473880Y78577378D01*
X22574502Y78845893D01*
X21590000Y79830395D01*
X20605498Y78845893D01*
X19068733Y78845893D01*
X19133420Y78910579D01*
X19353662Y79240193D01*
X19380476Y79375000D01*
X19431000Y79629000D01*
X19431000Y80278358D01*
X19928184Y80278358D01*
X19951986Y79621981D01*
X20157378Y79126120D01*
X20425893Y79025498D01*
X21410395Y80010000D01*
X21769605Y80010000D01*
X22754107Y79025498D01*
X22772917Y79032547D01*
X23193563Y78611166D01*
X23800155Y78359287D01*
X24456963Y78358714D01*
X25063995Y78609534D01*
X25400179Y78945132D01*
X25733563Y78611166D01*
X26340155Y78359287D01*
X26996963Y78358714D01*
X27603995Y78609534D01*
X27654421Y78659872D01*
X27729910Y78542559D01*
X27942110Y78397569D01*
X28194000Y78346560D01*
X30226000Y78346560D01*
X30461317Y78390838D01*
X30677441Y78529910D01*
X30822431Y78742110D01*
X30843249Y78844911D01*
X35179000Y74509159D01*
X35179000Y62015841D01*
X34631160Y61468000D01*
X32258000Y61468000D01*
X31869193Y61390662D01*
X31539580Y61170421D01*
X24681580Y54312420D01*
X24461338Y53982807D01*
X24461338Y53982806D01*
X24384000Y53594000D01*
X24384000Y53574982D01*
X24270173Y53461353D01*
X24136686Y53139882D01*
X24029800Y53397929D01*
X23794188Y53459583D01*
X23039605Y52705000D01*
X23794188Y51950417D01*
X24029800Y52012071D01*
X24128083Y52291312D01*
X24268854Y51950620D01*
X24442308Y51776863D01*
X24461338Y51681194D01*
X24681580Y51351580D01*
X25011194Y51131338D01*
X25400000Y51054000D01*
X25788806Y51131338D01*
X26118420Y51351580D01*
X26338662Y51681194D01*
X26357679Y51776799D01*
X26529827Y51948647D01*
X26670094Y52286446D01*
X26808854Y51950620D01*
X27183647Y51575173D01*
X27673587Y51371732D01*
X28204086Y51371269D01*
X28694380Y51573854D01*
X29069827Y51948647D01*
X29210094Y52286446D01*
X29348854Y51950620D01*
X29723647Y51575173D01*
X30213587Y51371732D01*
X30744086Y51371269D01*
X31234380Y51573854D01*
X31609827Y51948647D01*
X31750094Y52286446D01*
X31888854Y51950620D01*
X32263647Y51575173D01*
X32753587Y51371732D01*
X33284086Y51371269D01*
X33774380Y51573854D01*
X34149827Y51948647D01*
X34290094Y52286446D01*
X34428854Y51950620D01*
X34803647Y51575173D01*
X35293587Y51371732D01*
X35824086Y51371269D01*
X36314380Y51573854D01*
X36689827Y51948647D01*
X36830094Y52286446D01*
X36968854Y51950620D01*
X37343647Y51575173D01*
X37833587Y51371732D01*
X38364086Y51371269D01*
X38854380Y51573854D01*
X39051681Y51770812D01*
X39885417Y51770812D01*
X39947071Y51535200D01*
X40447480Y51359073D01*
X40977199Y51387852D01*
X41332929Y51535200D01*
X41394583Y51770812D01*
X40640000Y52525395D01*
X39885417Y51770812D01*
X39051681Y51770812D01*
X39229827Y51948647D01*
X39363314Y52270118D01*
X39470200Y52012071D01*
X39705812Y51950417D01*
X40460395Y52705000D01*
X39705812Y53459583D01*
X39470200Y53397929D01*
X39371917Y53118688D01*
X39231146Y53459380D01*
X39051652Y53639188D01*
X39885417Y53639188D01*
X40640000Y52884605D01*
X41394583Y53639188D01*
X41332929Y53874800D01*
X40832520Y54050927D01*
X40302801Y54022148D01*
X39947071Y53874800D01*
X39885417Y53639188D01*
X39051652Y53639188D01*
X38856353Y53834827D01*
X38366413Y54038268D01*
X37835914Y54038731D01*
X37345620Y53836146D01*
X36970173Y53461353D01*
X36829906Y53123554D01*
X36691146Y53459380D01*
X36316353Y53834827D01*
X35826413Y54038268D01*
X35295914Y54038731D01*
X34805620Y53836146D01*
X34430173Y53461353D01*
X34289906Y53123554D01*
X34151146Y53459380D01*
X33776353Y53834827D01*
X33286413Y54038268D01*
X32755914Y54038731D01*
X32265620Y53836146D01*
X31890173Y53461353D01*
X31749906Y53123554D01*
X31611146Y53459380D01*
X31236353Y53834827D01*
X30746413Y54038268D01*
X30215914Y54038731D01*
X29725620Y53836146D01*
X29350173Y53461353D01*
X29209906Y53123554D01*
X29071146Y53459380D01*
X28696353Y53834827D01*
X28206413Y54038268D01*
X27675914Y54038731D01*
X27185620Y53836146D01*
X26810173Y53461353D01*
X26669906Y53123554D01*
X26581165Y53338325D01*
X29350025Y56107185D01*
X34514630Y56107185D01*
X34838980Y55322200D01*
X35439041Y54721091D01*
X36223459Y54395372D01*
X37072815Y54394630D01*
X37850328Y54715893D01*
X40290498Y54715893D01*
X40391120Y54447378D01*
X41006642Y54218184D01*
X41663019Y54241986D01*
X42158880Y54447378D01*
X42259502Y54715893D01*
X41275000Y55700395D01*
X40290498Y54715893D01*
X37850328Y54715893D01*
X37857800Y54718980D01*
X38458909Y55319041D01*
X38784628Y56103459D01*
X38784667Y56148358D01*
X39613184Y56148358D01*
X39636986Y55491981D01*
X39842378Y54996120D01*
X40110893Y54895498D01*
X41095395Y55880000D01*
X41454605Y55880000D01*
X42439107Y54895498D01*
X42707622Y54996120D01*
X42936816Y55611642D01*
X42913014Y56268019D01*
X42707622Y56763880D01*
X42439107Y56864502D01*
X41454605Y55880000D01*
X41095395Y55880000D01*
X40110893Y56864502D01*
X39842378Y56763880D01*
X39613184Y56148358D01*
X38784667Y56148358D01*
X38785370Y56952815D01*
X38747649Y57044107D01*
X40290498Y57044107D01*
X41275000Y56059605D01*
X42259502Y57044107D01*
X42158880Y57312622D01*
X41543358Y57541816D01*
X40886981Y57518014D01*
X40391120Y57312622D01*
X40290498Y57044107D01*
X38747649Y57044107D01*
X38461020Y57737800D01*
X37860959Y58338909D01*
X37076541Y58664628D01*
X36227185Y58665370D01*
X35442200Y58341020D01*
X34841091Y57740959D01*
X34515372Y56956541D01*
X34514630Y56107185D01*
X29350025Y56107185D01*
X32678841Y59436000D01*
X35052000Y59436000D01*
X35376300Y59500507D01*
X35440807Y59513338D01*
X35770420Y59733580D01*
X36913420Y60876579D01*
X37133662Y61206193D01*
X37150301Y61289845D01*
X37211000Y61595000D01*
X37211000Y73130893D01*
X40290498Y73130893D01*
X40391120Y72862378D01*
X41006642Y72633184D01*
X41663019Y72656986D01*
X42158880Y72862378D01*
X42259502Y73130893D01*
X41275000Y74115395D01*
X40290498Y73130893D01*
X37211000Y73130893D01*
X37211000Y74563358D01*
X39613184Y74563358D01*
X39636986Y73906981D01*
X39842378Y73411120D01*
X40110893Y73310498D01*
X41095395Y74295000D01*
X40110893Y75279502D01*
X39842378Y75178880D01*
X39613184Y74563358D01*
X37211000Y74563358D01*
X37211000Y74930000D01*
X37133662Y75318806D01*
X37133662Y75318807D01*
X37039917Y75459107D01*
X40290498Y75459107D01*
X41275000Y74474605D01*
X42259502Y75459107D01*
X42158880Y75727622D01*
X41543358Y75956816D01*
X40886981Y75933014D01*
X40391120Y75727622D01*
X40290498Y75459107D01*
X37039917Y75459107D01*
X36913421Y75648420D01*
X33954656Y78607185D01*
X34514630Y78607185D01*
X34838980Y77822200D01*
X35439041Y77221091D01*
X36223459Y76895372D01*
X37072815Y76894630D01*
X37857800Y77218980D01*
X38458909Y77819041D01*
X38784628Y78603459D01*
X38785370Y79452815D01*
X38461020Y80237800D01*
X37860959Y80838909D01*
X37076541Y81164628D01*
X36227185Y81165370D01*
X35442200Y80841020D01*
X34841091Y80240959D01*
X34515372Y79456541D01*
X34514630Y78607185D01*
X33954656Y78607185D01*
X31833420Y80728420D01*
X31503807Y80948662D01*
X31439300Y80961493D01*
X31115000Y81026000D01*
X30873440Y81026000D01*
X30829162Y81261317D01*
X30690090Y81477441D01*
X30477890Y81622431D01*
X30226000Y81673440D01*
X28194000Y81673440D01*
X27958683Y81629162D01*
X27742559Y81490090D01*
X27654287Y81360900D01*
X27606437Y81408834D01*
X26999845Y81660713D01*
X26343037Y81661286D01*
X25736005Y81410466D01*
X25399821Y81074868D01*
X25066437Y81408834D01*
X24459845Y81660713D01*
X23803037Y81661286D01*
X23196005Y81410466D01*
X22772435Y80987634D01*
X22754107Y80994502D01*
X21769605Y80010000D01*
X21410395Y80010000D01*
X20425893Y80994502D01*
X20157378Y80893880D01*
X19928184Y80278358D01*
X19431000Y80278358D01*
X19431000Y81174107D01*
X20605498Y81174107D01*
X21590000Y80189605D01*
X22574502Y81174107D01*
X22473880Y81442622D01*
X21858358Y81671816D01*
X21201981Y81648014D01*
X20706120Y81442622D01*
X20605498Y81174107D01*
X19431000Y81174107D01*
X19431000Y84111437D01*
X39539880Y84111437D01*
X39803434Y83473587D01*
X40291020Y82985149D01*
X40928409Y82720482D01*
X41618563Y82719880D01*
X42256413Y82983434D01*
X42744851Y83471020D01*
X43009518Y84108409D01*
X43010120Y84798563D01*
X42746566Y85436413D01*
X42258980Y85924851D01*
X42099196Y85991199D01*
X41275000Y86815395D01*
X40451362Y85991757D01*
X40293587Y85926566D01*
X39805149Y85438980D01*
X39540482Y84801591D01*
X39539880Y84111437D01*
X19431000Y84111437D01*
X19431000Y87283363D01*
X39529857Y87283363D01*
X39552346Y86593575D01*
X39773049Y86060750D01*
X40050263Y85949868D01*
X41095395Y86995000D01*
X41454605Y86995000D01*
X42499737Y85949868D01*
X42776951Y86060750D01*
X43020143Y86706637D01*
X42997654Y87396425D01*
X42776951Y87929250D01*
X42499737Y88040132D01*
X41454605Y86995000D01*
X41095395Y86995000D01*
X40050263Y88040132D01*
X39773049Y87929250D01*
X39529857Y87283363D01*
X19431000Y87283363D01*
X19431000Y87844160D01*
X22645841Y91059000D01*
X36409160Y91059000D01*
X38651579Y88816580D01*
X38871821Y88669419D01*
X38981194Y88596338D01*
X39370000Y88519000D01*
X39837961Y88519000D01*
X40291020Y88065149D01*
X40450804Y87998801D01*
X41275000Y87174605D01*
X42098638Y87998243D01*
X42256413Y88063434D01*
X42744851Y88551020D01*
X43009518Y89188409D01*
X43010120Y89878563D01*
X42746566Y90516413D01*
X42458407Y90805076D01*
X42744851Y91091020D01*
X43009518Y91728409D01*
X43010120Y92418563D01*
X42746566Y93056413D01*
X42731494Y93071511D01*
X42776731Y93100620D01*
X42921721Y93312820D01*
X42972730Y93564710D01*
X42972730Y95665290D01*
X42928452Y95900607D01*
X42789380Y96116731D01*
X42577180Y96261721D01*
X42325290Y96312730D01*
X40224710Y96312730D01*
X39989393Y96268452D01*
X39773269Y96129380D01*
X39628279Y95917180D01*
X39577270Y95665290D01*
X39577270Y95631000D01*
X21209000Y95631000D01*
X20820193Y95553662D01*
X20490580Y95333421D01*
X9441580Y84284420D01*
X9398000Y84219198D01*
X9398000Y85685160D01*
X12148421Y88435580D01*
X12368662Y88765193D01*
X12381493Y88829700D01*
X12446000Y89154000D01*
X12446000Y95836396D01*
X12600766Y95990893D01*
X12985498Y95990893D01*
X13086120Y95722378D01*
X13701642Y95493184D01*
X14358019Y95516986D01*
X14853880Y95722378D01*
X14954502Y95990893D01*
X13970000Y96975395D01*
X12985498Y95990893D01*
X12600766Y95990893D01*
X12787565Y96177366D01*
X12805893Y96170498D01*
X13790395Y97155000D01*
X14149605Y97155000D01*
X15134107Y96170498D01*
X15152917Y96177547D01*
X15573563Y95756166D01*
X16180155Y95504287D01*
X16836963Y95503714D01*
X17443995Y95754534D01*
X17494421Y95804872D01*
X17569910Y95687559D01*
X17782110Y95542569D01*
X18034000Y95491560D01*
X20066000Y95491560D01*
X20301317Y95535838D01*
X20517441Y95674910D01*
X20662431Y95887110D01*
X20713440Y96139000D01*
X20713440Y96736185D01*
X43880630Y96736185D01*
X44204980Y95951200D01*
X44805041Y95350091D01*
X45589459Y95024372D01*
X46438815Y95023630D01*
X47223800Y95347980D01*
X47824909Y95948041D01*
X48150628Y96732459D01*
X48151370Y97581815D01*
X47827020Y98366800D01*
X47226959Y98967909D01*
X46442541Y99293628D01*
X45593185Y99294370D01*
X44808200Y98970020D01*
X44207091Y98369959D01*
X43881372Y97585541D01*
X43880630Y96736185D01*
X20713440Y96736185D01*
X20713440Y98171000D01*
X20669162Y98406317D01*
X20530090Y98622441D01*
X20317890Y98767431D01*
X20066000Y98818440D01*
X18034000Y98818440D01*
X17798683Y98774162D01*
X17582559Y98635090D01*
X17494287Y98505900D01*
X17446437Y98553834D01*
X16839845Y98805713D01*
X16183037Y98806286D01*
X15576005Y98555466D01*
X15152435Y98132634D01*
X15134107Y98139502D01*
X14149605Y97155000D01*
X13790395Y97155000D01*
X12805893Y98139502D01*
X12787083Y98132453D01*
X12600755Y98319107D01*
X12985498Y98319107D01*
X13970000Y97334605D01*
X14954502Y98319107D01*
X14853880Y98587622D01*
X14238358Y98816816D01*
X13581981Y98793014D01*
X13086120Y98587622D01*
X12985498Y98319107D01*
X12600755Y98319107D01*
X12366437Y98553834D01*
X11759845Y98805713D01*
X11103037Y98806286D01*
X10496005Y98555466D01*
X10031166Y98091437D01*
X9779287Y97484845D01*
X9778714Y96828037D01*
X10029534Y96221005D01*
X10414000Y95835868D01*
X10414000Y89574841D01*
X7663580Y86824420D01*
X7443338Y86494807D01*
X7443338Y86494806D01*
X7366000Y86106000D01*
X7366000Y85979214D01*
X7236890Y86067431D01*
X6985000Y86118440D01*
X4953000Y86118440D01*
X4887169Y86106053D01*
X4826000Y86118440D01*
X2794000Y86118440D01*
X2558683Y86074162D01*
X2342559Y85935090D01*
X2197569Y85722890D01*
X2146560Y85471000D01*
X2146560Y84200581D01*
X1982338Y83954807D01*
X1982338Y83954806D01*
X1905000Y83566000D01*
X1905000Y55245000D01*
X1926025Y55139302D01*
X1982338Y54856193D01*
X2202580Y54526580D01*
X4826000Y51903159D01*
X4826000Y46228000D01*
X4867855Y46017580D01*
X4903338Y45839193D01*
X5123580Y45509580D01*
X5588000Y45045159D01*
X5588000Y44324984D01*
X5386827Y44365000D01*
X3503173Y44365000D01*
X3030559Y44270991D01*
X2629896Y44003277D01*
X2362182Y43602614D01*
X2268173Y43130000D01*
X2362182Y42657386D01*
X2629896Y42256723D01*
X3030559Y41989009D01*
X3503173Y41895000D01*
X5386827Y41895000D01*
X5588000Y41935016D01*
X5588000Y40999264D01*
X5372363Y41215278D01*
X4771648Y41464716D01*
X4121205Y41465284D01*
X3520057Y41216894D01*
X3059722Y40757363D01*
X2810284Y40156648D01*
X2809716Y39506205D01*
X3058106Y38905057D01*
X3517637Y38444722D01*
X3771990Y38339106D01*
X3494657Y38224514D01*
X3034322Y37764983D01*
X2784884Y37164268D01*
X2784316Y36513825D01*
X3032706Y35912677D01*
X3492237Y35452342D01*
X3790323Y35328566D01*
X3520057Y35216894D01*
X3059722Y34757363D01*
X2810284Y34156648D01*
X2809716Y33506205D01*
X3058106Y32905057D01*
X3517637Y32444722D01*
X4118352Y32195284D01*
X4768795Y32194716D01*
X5369943Y32443106D01*
X5830278Y32902637D01*
X6079716Y33503352D01*
X6080284Y34153795D01*
X5831894Y34754943D01*
X5372363Y35215278D01*
X5074277Y35339054D01*
X5344543Y35450726D01*
X5628236Y35733923D01*
X5885580Y35476579D01*
X5885583Y35476577D01*
X9822580Y31539579D01*
X10152193Y31319338D01*
X10208224Y31308193D01*
X10541000Y31242000D01*
X37552160Y31242000D01*
X41284250Y27509909D01*
X41014791Y27639709D01*
X40999026Y27642358D01*
X40767000Y27521217D01*
X40767000Y26162000D01*
X40787000Y26162000D01*
X40787000Y25908000D01*
X40767000Y25908000D01*
X40767000Y24548783D01*
X40999026Y24427642D01*
X41014791Y24430291D01*
X41542036Y24684268D01*
X41913539Y25100069D01*
X42120330Y24790585D01*
X42606511Y24465729D01*
X43180000Y24351655D01*
X43753489Y24465729D01*
X44239670Y24790585D01*
X44564526Y25276766D01*
X44678600Y25850255D01*
X44678600Y26219745D01*
X44564526Y26793234D01*
X44239670Y27279415D01*
X44136908Y27348079D01*
X44118662Y27439806D01*
X44118662Y27439807D01*
X43898420Y27769421D01*
X38691420Y32976420D01*
X38361807Y33196662D01*
X38281298Y33212676D01*
X37973000Y33274000D01*
X10961841Y33274000D01*
X7620000Y36615840D01*
X7620000Y38408037D01*
X10413714Y38408037D01*
X10664534Y37801005D01*
X11128563Y37336166D01*
X11583291Y37147346D01*
X11131005Y36960466D01*
X10666166Y36496437D01*
X10414287Y35889845D01*
X10413714Y35233037D01*
X10664534Y34626005D01*
X11128563Y34161166D01*
X11735155Y33909287D01*
X12391963Y33908714D01*
X12998995Y34159534D01*
X13463834Y34623563D01*
X13715713Y35230155D01*
X13716286Y35886963D01*
X13465466Y36493995D01*
X13001437Y36958834D01*
X12546709Y37147654D01*
X12998995Y37334534D01*
X13463834Y37798563D01*
X13715713Y38405155D01*
X13715715Y38408037D01*
X18033714Y38408037D01*
X18284534Y37801005D01*
X18748563Y37336166D01*
X19203291Y37147346D01*
X18751005Y36960466D01*
X18286166Y36496437D01*
X18034287Y35889845D01*
X18033714Y35233037D01*
X18284534Y34626005D01*
X18748563Y34161166D01*
X19355155Y33909287D01*
X20011963Y33908714D01*
X20618995Y34159534D01*
X21083834Y34623563D01*
X21335713Y35230155D01*
X21336286Y35886963D01*
X21085466Y36493995D01*
X20621437Y36958834D01*
X20166709Y37147654D01*
X20618995Y37334534D01*
X21083834Y37798563D01*
X21335713Y38405155D01*
X21336286Y39061963D01*
X21085466Y39668995D01*
X20621437Y40133834D01*
X20014845Y40385713D01*
X19358037Y40386286D01*
X18751005Y40135466D01*
X18286166Y39671437D01*
X18034287Y39064845D01*
X18033714Y38408037D01*
X13715715Y38408037D01*
X13716286Y39061963D01*
X13465466Y39668995D01*
X13001437Y40133834D01*
X12394845Y40385713D01*
X11738037Y40386286D01*
X11131005Y40135466D01*
X10666166Y39671437D01*
X10414287Y39064845D01*
X10413714Y38408037D01*
X7620000Y38408037D01*
X7620000Y45299160D01*
X11727580Y41191579D01*
X12057193Y40971338D01*
X12446000Y40894000D01*
X42644372Y40894000D01*
X42163749Y40712833D01*
X42120670Y40686015D01*
X42072529Y40669967D01*
X41313487Y40237262D01*
X41273225Y40202342D01*
X41226135Y40177379D01*
X41126315Y40096031D01*
X41126314Y40096030D01*
X40898638Y39910485D01*
X40898634Y39910483D01*
X40793776Y39825029D01*
X40793775Y39825027D01*
X40793774Y39825027D01*
X40555120Y39630534D01*
X40521017Y39589269D01*
X40478528Y39556709D01*
X39914783Y38914718D01*
X39886827Y38866369D01*
X39849038Y38825252D01*
X39411794Y38107101D01*
X39391137Y38050607D01*
X39359388Y37999512D01*
X39287493Y37808295D01*
X39287493Y37808293D01*
X39287492Y37808292D01*
X39067881Y37224190D01*
X39061907Y37187929D01*
X39046180Y37154711D01*
X39032810Y37101425D01*
X39031490Y37074769D01*
X39022094Y37049789D01*
X38949425Y36609056D01*
X38950357Y36580764D01*
X38942744Y36553499D01*
X38904469Y36050526D01*
X38904469Y36050523D01*
X38902156Y36020126D01*
X38903699Y36007370D01*
X38902624Y36001964D01*
X38903793Y35996089D01*
X38900366Y35979971D01*
X38895645Y35620468D01*
X38895645Y35620463D01*
X38892992Y35418333D01*
X38896797Y35397799D01*
X38893778Y35377134D01*
X38920746Y34851614D01*
X38928245Y34821951D01*
X38926701Y34791391D01*
X38989142Y34366358D01*
X39008397Y34312306D01*
X39015723Y34255398D01*
X39225985Y33630106D01*
X39252473Y33583921D01*
X39267880Y33532952D01*
X39352091Y33375029D01*
X39352093Y33375027D01*
X39618698Y32875053D01*
X39647165Y32840296D01*
X39666010Y32799519D01*
X40124122Y32170229D01*
X40155751Y32141047D01*
X40178844Y32104729D01*
X40716057Y31542580D01*
X40742912Y31523741D01*
X40749170Y31514376D01*
X40764951Y31503831D01*
X40786340Y31479168D01*
X40809307Y31461342D01*
X41374464Y31022691D01*
X41413027Y31003408D01*
X41445367Y30974890D01*
X41714755Y30818379D01*
X41742206Y30808977D01*
X41765598Y30791814D01*
X42261829Y30560219D01*
X42289377Y30553468D01*
X42313623Y30538757D01*
X42833984Y30349383D01*
X42867509Y30344224D01*
X42898190Y30329764D01*
X43364001Y30213756D01*
X43402621Y30211911D01*
X43439313Y30199725D01*
X43617155Y30177503D01*
X43640735Y30179205D01*
X43663656Y30173408D01*
X44083243Y30151842D01*
X44101795Y30154551D01*
X44120210Y30151011D01*
X44592849Y30154051D01*
X44609300Y30157434D01*
X44625936Y30155120D01*
X45077919Y30181439D01*
X45101751Y30187639D01*
X45126324Y30186109D01*
X45483942Y30234380D01*
X45513480Y30244515D01*
X45544692Y30245588D01*
X45620912Y30263493D01*
X45642287Y30273221D01*
X45665637Y30275725D01*
X45986105Y30375980D01*
X46003489Y30385467D01*
X46023014Y30388776D01*
X46405788Y30534710D01*
X46419808Y30543511D01*
X46435968Y30547106D01*
X46814021Y30713774D01*
X46832796Y30726940D01*
X46854774Y30733490D01*
X47191239Y30911222D01*
X47225221Y30938833D01*
X47265105Y30956905D01*
X47976334Y31466580D01*
X48017894Y31510954D01*
X48067558Y31546016D01*
X48673015Y32183390D01*
X48704374Y32233036D01*
X48745395Y32275060D01*
X49237749Y33031546D01*
X49258267Y33082823D01*
X49289521Y33128354D01*
X49661437Y33995364D01*
X49672621Y34048124D01*
X49695294Y34097058D01*
X49780480Y34448882D01*
X49782097Y34488095D01*
X49794156Y34525445D01*
X49854990Y35047720D01*
X49852754Y35075467D01*
X49859001Y35102596D01*
X49876437Y35684430D01*
X49872514Y35707787D01*
X49876129Y35731192D01*
X49850868Y36316596D01*
X49844540Y36342514D01*
X49846428Y36369128D01*
X49779173Y36902114D01*
X49766436Y36940309D01*
X49764265Y36980514D01*
X49655718Y37405091D01*
X49639680Y37438579D01*
X49633438Y37475177D01*
X49563526Y37657989D01*
X49550351Y37678928D01*
X49544343Y37702928D01*
X49269953Y38283304D01*
X49242301Y38320601D01*
X49224676Y38363553D01*
X48878446Y38885466D01*
X48848929Y38915180D01*
X48828146Y38951543D01*
X48369089Y39479635D01*
X48337514Y39504084D01*
X48313567Y39536047D01*
X47783861Y40011489D01*
X47739204Y40037962D01*
X47701806Y40073972D01*
X46953017Y40554068D01*
X46900193Y40574787D01*
X46853041Y40606356D01*
X46036169Y40945599D01*
X46000730Y40952682D01*
X45968641Y40969310D01*
X45895170Y40990575D01*
X45863905Y40993251D01*
X45834777Y41004921D01*
X45360450Y41093543D01*
X45326574Y41093149D01*
X45293981Y41102388D01*
X44731165Y41147445D01*
X44705982Y41144499D01*
X44681124Y41149485D01*
X44092702Y41150434D01*
X44067052Y41145375D01*
X44041084Y41148433D01*
X43661845Y41118363D01*
X43771420Y41191580D01*
X47327420Y44747579D01*
X47547661Y45077193D01*
X47547662Y45077194D01*
X47625000Y45466000D01*
X47625000Y54715893D01*
X47910498Y54715893D01*
X48011120Y54447378D01*
X48626642Y54218184D01*
X49283019Y54241986D01*
X49778880Y54447378D01*
X49879502Y54715893D01*
X48895000Y55700395D01*
X47910498Y54715893D01*
X47625000Y54715893D01*
X47625000Y54935180D01*
X47730893Y54895498D01*
X48715395Y55880000D01*
X47730893Y56864502D01*
X47625000Y56824820D01*
X47625000Y57044107D01*
X47910498Y57044107D01*
X48895000Y56059605D01*
X49879502Y57044107D01*
X49778880Y57312622D01*
X49163358Y57541816D01*
X48506981Y57518014D01*
X48011120Y57312622D01*
X47910498Y57044107D01*
X47625000Y57044107D01*
X47625000Y57531000D01*
X47547662Y57919806D01*
X47547662Y57919807D01*
X47327421Y58249420D01*
X44958000Y60618840D01*
X44958000Y73130893D01*
X47910498Y73130893D01*
X48011120Y72862378D01*
X48626642Y72633184D01*
X49283019Y72656986D01*
X49778880Y72862378D01*
X49879502Y73130893D01*
X48895000Y74115395D01*
X47910498Y73130893D01*
X44958000Y73130893D01*
X44958000Y74563358D01*
X47233184Y74563358D01*
X47256986Y73906981D01*
X47462378Y73411120D01*
X47730893Y73310498D01*
X48715395Y74295000D01*
X47730893Y75279502D01*
X47462378Y75178880D01*
X47233184Y74563358D01*
X44958000Y74563358D01*
X44958000Y75459107D01*
X47910498Y75459107D01*
X48895000Y74474605D01*
X49879502Y75459107D01*
X49778880Y75727622D01*
X49163358Y75956816D01*
X48506981Y75933014D01*
X48011120Y75727622D01*
X47910498Y75459107D01*
X44958000Y75459107D01*
X44958000Y78359000D01*
X47576396Y78359000D01*
X47958563Y77976166D01*
X48565155Y77724287D01*
X49221963Y77723714D01*
X49828995Y77974534D01*
X50231000Y78375838D01*
X50231000Y75215088D01*
X50059107Y75279502D01*
X49074605Y74295000D01*
X50059107Y73310498D01*
X50231000Y73374912D01*
X50231000Y61958574D01*
X49831437Y62358834D01*
X49224845Y62610713D01*
X48568037Y62611286D01*
X47961005Y62360466D01*
X47496166Y61896437D01*
X47244287Y61289845D01*
X47243714Y60633037D01*
X47494534Y60026005D01*
X47958563Y59561166D01*
X48565155Y59309287D01*
X49221963Y59308714D01*
X49828995Y59559534D01*
X50231000Y59960838D01*
X50231000Y56800088D01*
X50059107Y56864502D01*
X49074605Y55880000D01*
X50059107Y54895498D01*
X50231000Y54959912D01*
X50231000Y7236314D01*
X49895945Y5551875D01*
X48985580Y4189419D01*
X47623123Y3279055D01*
X45938686Y2944000D01*
X12777501Y2944000D01*
X13089275Y3073141D01*
X13218483Y3365911D01*
X12065000Y4519395D01*
X10911517Y3365911D01*
X11040725Y3073141D01*
X11377843Y2944000D01*
X8622048Y2944000D01*
X8686121Y2985230D01*
X8831111Y3197430D01*
X8882120Y3449320D01*
X8882120Y5604510D01*
X10271796Y5604510D01*
X10403696Y5630746D01*
X10170929Y5023117D01*
X10191072Y4273616D01*
X10439141Y3674725D01*
X10731911Y3545517D01*
X11885395Y4699000D01*
X12244605Y4699000D01*
X13398089Y3545517D01*
X13690859Y3674725D01*
X13959071Y4374883D01*
X13938928Y5124384D01*
X13690859Y5723275D01*
X13398089Y5852483D01*
X12244605Y4699000D01*
X11885395Y4699000D01*
X11871252Y4713142D01*
X12050858Y4892748D01*
X12065000Y4878605D01*
X13218483Y6032089D01*
X13089275Y6324859D01*
X12389117Y6593071D01*
X11756859Y6576079D01*
X11781868Y6613508D01*
X11906286Y7239000D01*
X11781868Y7864492D01*
X11427555Y8394759D01*
X10897288Y8749072D01*
X10621725Y8803885D01*
X12335510Y10517669D01*
X12335510Y9286204D01*
X12459928Y8660712D01*
X12814241Y8130445D01*
X13344508Y7776132D01*
X13970000Y7651714D01*
X14595492Y7776132D01*
X15125759Y8130445D01*
X15480072Y8660712D01*
X15604490Y9286204D01*
X15604490Y10779796D01*
X15480072Y11405288D01*
X15125759Y11935555D01*
X14595492Y12289868D01*
X13970000Y12414286D01*
X13462000Y12313239D01*
X13462000Y16891000D01*
X13384662Y17279806D01*
X13384662Y17279807D01*
X13164420Y17609421D01*
X12166072Y18607768D01*
X12191668Y18669410D01*
X12192330Y19427265D01*
X11902922Y20127686D01*
X11367505Y20664039D01*
X10667590Y20954668D01*
X10577714Y20954747D01*
X10914380Y21093854D01*
X11289827Y21468647D01*
X11430094Y21806446D01*
X11568854Y21470620D01*
X11943647Y21095173D01*
X12433587Y20891732D01*
X12964086Y20891269D01*
X13454380Y21093854D01*
X13829827Y21468647D01*
X13970094Y21806446D01*
X14108854Y21470620D01*
X14483647Y21095173D01*
X14973587Y20891732D01*
X15504086Y20891269D01*
X15994380Y21093854D01*
X16369827Y21468647D01*
X16510094Y21806446D01*
X16648854Y21470620D01*
X17023647Y21095173D01*
X17513587Y20891732D01*
X18044086Y20891269D01*
X18534380Y21093854D01*
X18909827Y21468647D01*
X19050094Y21806446D01*
X19188854Y21470620D01*
X19563647Y21095173D01*
X19901676Y20954811D01*
X19307735Y20955330D01*
X18607314Y20665922D01*
X18070961Y20130505D01*
X17780332Y19430590D01*
X17779670Y18672735D01*
X18069078Y17972314D01*
X18604495Y17435961D01*
X19304410Y17145332D01*
X20062265Y17144670D01*
X20126817Y17171342D01*
X20828000Y16470159D01*
X20828000Y14972722D01*
X20701000Y14998440D01*
X18669000Y14998440D01*
X18433683Y14954162D01*
X18217559Y14815090D01*
X18072569Y14602890D01*
X18021560Y14351000D01*
X18021560Y12319000D01*
X18065838Y12083683D01*
X18204910Y11867559D01*
X18400057Y11734221D01*
X18252378Y11678880D01*
X18023184Y11063358D01*
X18046986Y10406981D01*
X18252378Y9911120D01*
X18520893Y9810498D01*
X19505395Y10795000D01*
X19491253Y10809142D01*
X19670858Y10988747D01*
X19685000Y10974605D01*
X19699143Y10988747D01*
X19878748Y10809142D01*
X19864605Y10795000D01*
X19878748Y10780857D01*
X19699143Y10601252D01*
X19685000Y10615395D01*
X18700498Y9630893D01*
X18801120Y9362378D01*
X19416642Y9133184D01*
X20073019Y9156986D01*
X20568880Y9362378D01*
X20669501Y9630891D01*
X20783741Y9516651D01*
X20828000Y9560910D01*
X20828000Y8548841D01*
X20236580Y7957420D01*
X20016338Y7627807D01*
X20016338Y7627806D01*
X19939000Y7239000D01*
X19939000Y6447055D01*
X19527114Y6035887D01*
X19270003Y5416696D01*
X19269418Y4746246D01*
X19525447Y4126607D01*
X19999113Y3652114D01*
X20618304Y3395003D01*
X21288754Y3394418D01*
X21908393Y3650447D01*
X22382886Y4124113D01*
X22399487Y4164092D01*
X23315395Y5080000D01*
X22400432Y5994963D01*
X22384553Y6033393D01*
X22149444Y6268913D01*
X22485692Y6268913D01*
X23495000Y5259605D01*
X23509143Y5273747D01*
X23688748Y5094142D01*
X23674605Y5080000D01*
X23688748Y5065857D01*
X23509143Y4886252D01*
X23495000Y4900395D01*
X22485692Y3891087D01*
X22590513Y3619014D01*
X23218458Y3384093D01*
X23888504Y3407358D01*
X24399487Y3619014D01*
X24435032Y3711276D01*
X24520620Y3578269D01*
X24732820Y3433279D01*
X24984710Y3382270D01*
X27085290Y3382270D01*
X27320607Y3426548D01*
X27536731Y3565620D01*
X27681721Y3777820D01*
X27732730Y4029710D01*
X27732730Y6130290D01*
X27688452Y6365607D01*
X27549380Y6581731D01*
X27337180Y6726721D01*
X27085290Y6777730D01*
X27051000Y6777730D01*
X27051000Y7112000D01*
X26973662Y7500806D01*
X26973662Y7500807D01*
X26753420Y7830421D01*
X26167116Y8416725D01*
X30465520Y8416725D01*
X30465520Y6823275D01*
X30589977Y6197588D01*
X30944400Y5667155D01*
X31474833Y5312732D01*
X32100520Y5188275D01*
X32726207Y5312732D01*
X33256640Y5667155D01*
X33611063Y6197588D01*
X33735520Y6823275D01*
X33735520Y7493000D01*
X42464480Y7493000D01*
X42464480Y6743000D01*
X42637538Y6126980D01*
X43033163Y5624078D01*
X43591125Y5310856D01*
X43719046Y5279876D01*
X43972480Y5399223D01*
X43972480Y7493000D01*
X44226480Y7493000D01*
X44226480Y5399223D01*
X44479914Y5279876D01*
X44607835Y5310856D01*
X45165797Y5624078D01*
X45561422Y6126980D01*
X45734480Y6743000D01*
X45734480Y7493000D01*
X44226480Y7493000D01*
X43972480Y7493000D01*
X42464480Y7493000D01*
X33735520Y7493000D01*
X33735520Y8416725D01*
X33719553Y8497000D01*
X42464480Y8497000D01*
X42464480Y7747000D01*
X43972480Y7747000D01*
X43972480Y9840777D01*
X44226480Y9840777D01*
X44226480Y7747000D01*
X45734480Y7747000D01*
X45734480Y8497000D01*
X45561422Y9113020D01*
X45165797Y9615922D01*
X44607835Y9929144D01*
X44479914Y9960124D01*
X44226480Y9840777D01*
X43972480Y9840777D01*
X43719046Y9960124D01*
X43591125Y9929144D01*
X43033163Y9615922D01*
X42637538Y9113020D01*
X42464480Y8497000D01*
X33719553Y8497000D01*
X33611063Y9042412D01*
X33256640Y9572845D01*
X32726207Y9927268D01*
X32100520Y10051725D01*
X31474833Y9927268D01*
X30944400Y9572845D01*
X30589977Y9042412D01*
X30465520Y8416725D01*
X26167116Y8416725D01*
X25908000Y8675840D01*
X25908000Y9630893D01*
X26320498Y9630893D01*
X26421120Y9362378D01*
X27036642Y9133184D01*
X27693019Y9156986D01*
X28188880Y9362378D01*
X28289502Y9630893D01*
X27305000Y10615395D01*
X26320498Y9630893D01*
X25908000Y9630893D01*
X25908000Y9897771D01*
X26140893Y9810498D01*
X27125395Y10795000D01*
X27111253Y10809142D01*
X27290858Y10988747D01*
X27305000Y10974605D01*
X27319143Y10988747D01*
X27498748Y10809142D01*
X27484605Y10795000D01*
X28469107Y9810498D01*
X28737622Y9911120D01*
X28966816Y10526642D01*
X28943014Y11183019D01*
X28737622Y11678880D01*
X28586746Y11735419D01*
X28772441Y11854910D01*
X28902129Y12044715D01*
X35444760Y12044715D01*
X35655169Y11535485D01*
X35870803Y11319475D01*
X35656539Y11105584D01*
X35445241Y10596722D01*
X35444760Y10045735D01*
X35655169Y9536505D01*
X36044436Y9146559D01*
X36553298Y8935261D01*
X37104285Y8934780D01*
X37613515Y9145189D01*
X37817183Y9348503D01*
X38578088Y9348503D01*
X38646077Y9107560D01*
X39165171Y8922819D01*
X39715448Y8950790D01*
X40093923Y9107560D01*
X40161912Y9348503D01*
X39370000Y10140415D01*
X38578088Y9348503D01*
X37817183Y9348503D01*
X38003461Y9534456D01*
X38093377Y9750999D01*
X38157540Y9596097D01*
X38398483Y9528108D01*
X39190395Y10320020D01*
X39549605Y10320020D01*
X40341517Y9528108D01*
X40582460Y9596097D01*
X40767201Y10115191D01*
X40739230Y10665468D01*
X40582460Y11043943D01*
X40341517Y11111932D01*
X39549605Y10320020D01*
X39190395Y10320020D01*
X38398483Y11111932D01*
X38157540Y11043943D01*
X38098268Y10877399D01*
X38004831Y11103535D01*
X37789197Y11319545D01*
X38003461Y11533436D01*
X38099976Y11765870D01*
X38195169Y11535485D01*
X38584436Y11145539D01*
X38823250Y11046375D01*
X39370000Y10499625D01*
X39916690Y11046315D01*
X40153515Y11144169D01*
X40543461Y11533436D01*
X40754759Y12042298D01*
X40755240Y12593285D01*
X40544831Y13102515D01*
X40155564Y13492461D01*
X39646702Y13703759D01*
X39095715Y13704240D01*
X38586485Y13493831D01*
X38196539Y13104564D01*
X38100024Y12872130D01*
X38004831Y13102515D01*
X37615564Y13492461D01*
X37106702Y13703759D01*
X36555715Y13704240D01*
X36046485Y13493831D01*
X35656539Y13104564D01*
X35445241Y12595702D01*
X35444760Y12044715D01*
X28902129Y12044715D01*
X28917431Y12067110D01*
X28968440Y12319000D01*
X28968440Y14351000D01*
X28924162Y14586317D01*
X28785090Y14802441D01*
X28572890Y14947431D01*
X28321000Y14998440D01*
X26289000Y14998440D01*
X26053683Y14954162D01*
X25837559Y14815090D01*
X25692569Y14602890D01*
X25641560Y14351000D01*
X25641560Y14323264D01*
X25456700Y14286493D01*
X25392193Y14273662D01*
X25062580Y14053421D01*
X24173580Y13164420D01*
X23953338Y12834807D01*
X23953338Y12834806D01*
X23876000Y12446000D01*
X23876000Y8255000D01*
X23935192Y7957420D01*
X23953338Y7866193D01*
X24173580Y7536580D01*
X24940709Y6769451D01*
X24749393Y6733452D01*
X24533269Y6594380D01*
X24434569Y6449928D01*
X24399487Y6540986D01*
X23771542Y6775907D01*
X23101496Y6752642D01*
X22590513Y6540986D01*
X22485692Y6268913D01*
X22149444Y6268913D01*
X21971000Y6447668D01*
X21971000Y6818160D01*
X22562421Y7409580D01*
X22782662Y7739193D01*
X22807585Y7864492D01*
X22860000Y8128000D01*
X22860000Y15951451D01*
X23157841Y15827776D01*
X23789388Y15827225D01*
X24373072Y16068398D01*
X24820032Y16514579D01*
X24912051Y16736185D01*
X43880630Y16736185D01*
X44204980Y15951200D01*
X44805041Y15350091D01*
X45589459Y15024372D01*
X46438815Y15023630D01*
X47223800Y15347980D01*
X47824909Y15948041D01*
X48150628Y16732459D01*
X48151370Y17581815D01*
X47827020Y18366800D01*
X47226959Y18967909D01*
X46442541Y19293628D01*
X45593185Y19294370D01*
X44808200Y18970020D01*
X44207091Y18369959D01*
X43881372Y17585541D01*
X43880630Y16736185D01*
X24912051Y16736185D01*
X25062224Y17097841D01*
X25062775Y17729388D01*
X24909389Y18100612D01*
X26987225Y18100612D01*
X27228398Y17516928D01*
X27674579Y17069968D01*
X28257841Y16827776D01*
X28889388Y16827225D01*
X29473072Y17068398D01*
X29920032Y17514579D01*
X30162224Y18097841D01*
X30162725Y18672735D01*
X30479670Y18672735D01*
X30769078Y17972314D01*
X31304495Y17435961D01*
X32004410Y17145332D01*
X32762265Y17144670D01*
X33462686Y17434078D01*
X33999039Y17969495D01*
X34289668Y18669410D01*
X34289670Y18672735D01*
X39877670Y18672735D01*
X40167078Y17972314D01*
X40702495Y17435961D01*
X41402410Y17145332D01*
X42160265Y17144670D01*
X42860686Y17434078D01*
X43397039Y17969495D01*
X43687668Y18669410D01*
X43688330Y19427265D01*
X43398922Y20127686D01*
X42863505Y20664039D01*
X42163590Y20954668D01*
X41405735Y20955330D01*
X40705314Y20665922D01*
X40168961Y20130505D01*
X39878332Y19430590D01*
X39877670Y18672735D01*
X34289670Y18672735D01*
X34290330Y19427265D01*
X34000922Y20127686D01*
X33465505Y20664039D01*
X32917502Y20891589D01*
X33284086Y20891269D01*
X33774380Y21093854D01*
X34149827Y21468647D01*
X34290094Y21806446D01*
X34428854Y21470620D01*
X34803647Y21095173D01*
X35293587Y20891732D01*
X35824086Y20891269D01*
X36314380Y21093854D01*
X36689827Y21468647D01*
X36830094Y21806446D01*
X36968854Y21470620D01*
X37343647Y21095173D01*
X37833587Y20891732D01*
X38364086Y20891269D01*
X38854380Y21093854D01*
X39051681Y21290812D01*
X39885417Y21290812D01*
X39947071Y21055200D01*
X40447480Y20879073D01*
X40977199Y20907852D01*
X41332929Y21055200D01*
X41394583Y21290812D01*
X40640000Y22045395D01*
X39885417Y21290812D01*
X39051681Y21290812D01*
X39229827Y21468647D01*
X39363314Y21790118D01*
X39470200Y21532071D01*
X39705812Y21470417D01*
X40460395Y22225000D01*
X40819605Y22225000D01*
X41574188Y21470417D01*
X41809800Y21532071D01*
X41908083Y21811312D01*
X42048854Y21470620D01*
X42423647Y21095173D01*
X42913587Y20891732D01*
X43444086Y20891269D01*
X43934380Y21093854D01*
X44309827Y21468647D01*
X44513268Y21958587D01*
X44513731Y22489086D01*
X44311146Y22979380D01*
X43936353Y23354827D01*
X43446413Y23558268D01*
X42915914Y23558731D01*
X42425620Y23356146D01*
X42050173Y22981353D01*
X41916686Y22659882D01*
X41809800Y22917929D01*
X41574188Y22979583D01*
X40819605Y22225000D01*
X40460395Y22225000D01*
X39705812Y22979583D01*
X39470200Y22917929D01*
X39371917Y22638688D01*
X39231146Y22979380D01*
X39051652Y23159188D01*
X39885417Y23159188D01*
X40640000Y22404605D01*
X41394583Y23159188D01*
X41332929Y23394800D01*
X40832520Y23570927D01*
X40302801Y23542148D01*
X39947071Y23394800D01*
X39885417Y23159188D01*
X39051652Y23159188D01*
X38856353Y23354827D01*
X38366413Y23558268D01*
X37835914Y23558731D01*
X37345620Y23356146D01*
X36970173Y22981353D01*
X36829906Y22643554D01*
X36691146Y22979380D01*
X36316353Y23354827D01*
X35826413Y23558268D01*
X35295914Y23558731D01*
X34805620Y23356146D01*
X34430173Y22981353D01*
X34289906Y22643554D01*
X34151146Y22979380D01*
X33776353Y23354827D01*
X33286413Y23558268D01*
X32755914Y23558731D01*
X32265620Y23356146D01*
X31890173Y22981353D01*
X31756686Y22659882D01*
X31649800Y22917929D01*
X31414188Y22979583D01*
X30659605Y22225000D01*
X31414188Y21470417D01*
X31649800Y21532071D01*
X31748083Y21811312D01*
X31888854Y21470620D01*
X32263647Y21095173D01*
X32601676Y20954811D01*
X32007735Y20955330D01*
X31307314Y20665922D01*
X30770961Y20130505D01*
X30480332Y19430590D01*
X30479670Y18672735D01*
X30162725Y18672735D01*
X30162775Y18729388D01*
X29921602Y19313072D01*
X29475421Y19760032D01*
X28892159Y20002224D01*
X28260612Y20002775D01*
X27676928Y19761602D01*
X27229968Y19315421D01*
X26987776Y18732159D01*
X26987225Y18100612D01*
X24909389Y18100612D01*
X24821602Y18313072D01*
X24375421Y18760032D01*
X23792159Y19002224D01*
X23160612Y19002775D01*
X22576928Y18761602D01*
X22129968Y18315421D01*
X22049708Y18122133D01*
X21564072Y18607768D01*
X21589668Y18669410D01*
X21590330Y19427265D01*
X21300922Y20127686D01*
X20765505Y20664039D01*
X20217502Y20891589D01*
X20584086Y20891269D01*
X21074380Y21093854D01*
X21449827Y21468647D01*
X21590094Y21806446D01*
X21728854Y21470620D01*
X22103647Y21095173D01*
X22593587Y20891732D01*
X23124086Y20891269D01*
X23614380Y21093854D01*
X23989827Y21468647D01*
X24130094Y21806446D01*
X24268854Y21470620D01*
X24643647Y21095173D01*
X25133587Y20891732D01*
X25664086Y20891269D01*
X26154380Y21093854D01*
X26529827Y21468647D01*
X26670094Y21806446D01*
X26808854Y21470620D01*
X27183647Y21095173D01*
X27673587Y20891732D01*
X28204086Y20891269D01*
X28694380Y21093854D01*
X28891681Y21290812D01*
X29725417Y21290812D01*
X29787071Y21055200D01*
X30287480Y20879073D01*
X30817199Y20907852D01*
X31172929Y21055200D01*
X31234583Y21290812D01*
X30480000Y22045395D01*
X29725417Y21290812D01*
X28891681Y21290812D01*
X29069827Y21468647D01*
X29203314Y21790118D01*
X29310200Y21532071D01*
X29545812Y21470417D01*
X30300395Y22225000D01*
X29545812Y22979583D01*
X29310200Y22917929D01*
X29211917Y22638688D01*
X29071146Y22979380D01*
X28891652Y23159188D01*
X29725417Y23159188D01*
X30480000Y22404605D01*
X31234583Y23159188D01*
X31172929Y23394800D01*
X30672520Y23570927D01*
X30142801Y23542148D01*
X29787071Y23394800D01*
X29725417Y23159188D01*
X28891652Y23159188D01*
X28696353Y23354827D01*
X28206413Y23558268D01*
X27675914Y23558731D01*
X27185620Y23356146D01*
X26810173Y22981353D01*
X26669906Y22643554D01*
X26531146Y22979380D01*
X26156353Y23354827D01*
X25666413Y23558268D01*
X25135914Y23558731D01*
X24645620Y23356146D01*
X24270173Y22981353D01*
X24129906Y22643554D01*
X23991146Y22979380D01*
X23616353Y23354827D01*
X23126413Y23558268D01*
X22595914Y23558731D01*
X22105620Y23356146D01*
X21730173Y22981353D01*
X21589906Y22643554D01*
X21451146Y22979380D01*
X21076353Y23354827D01*
X20586413Y23558268D01*
X20055914Y23558731D01*
X19565620Y23356146D01*
X19190173Y22981353D01*
X19049906Y22643554D01*
X18911146Y22979380D01*
X18536353Y23354827D01*
X18046413Y23558268D01*
X17515914Y23558731D01*
X17025620Y23356146D01*
X16650173Y22981353D01*
X16509906Y22643554D01*
X16371146Y22979380D01*
X15996353Y23354827D01*
X15506413Y23558268D01*
X14975914Y23558731D01*
X14485620Y23356146D01*
X14110173Y22981353D01*
X13969906Y22643554D01*
X13831146Y22979380D01*
X13456353Y23354827D01*
X12966413Y23558268D01*
X12435914Y23558731D01*
X11945620Y23356146D01*
X11570173Y22981353D01*
X11429906Y22643554D01*
X11291146Y22979380D01*
X10916353Y23354827D01*
X10426413Y23558268D01*
X9895914Y23558731D01*
X9405620Y23356146D01*
X9030173Y22981353D01*
X8965940Y22826663D01*
X8965940Y22923500D01*
X8921662Y23158817D01*
X8782590Y23374941D01*
X8570390Y23519931D01*
X8318500Y23570940D01*
X6921500Y23570940D01*
X6686183Y23526662D01*
X6470059Y23387590D01*
X6325069Y23175390D01*
X6274060Y22923500D01*
X6274060Y21526500D01*
X6318338Y21291183D01*
X6457410Y21075059D01*
X6669610Y20930069D01*
X6921500Y20879060D01*
X8318500Y20879060D01*
X8553817Y20923338D01*
X8769941Y21062410D01*
X8914931Y21274610D01*
X8965940Y21526500D01*
X8965940Y21622884D01*
X9028854Y21470620D01*
X9403647Y21095173D01*
X9824872Y20920265D01*
X9209314Y20665922D01*
X8672961Y20130505D01*
X8382332Y19430590D01*
X8381670Y18672735D01*
X8671078Y17972314D01*
X9206495Y17435961D01*
X9906410Y17145332D01*
X10664265Y17144670D01*
X10728817Y17171342D01*
X11430000Y16470159D01*
X11430000Y14659379D01*
X11051540Y14770100D01*
X9652000Y14770100D01*
X9652000Y13462000D01*
X9672000Y13462000D01*
X9672000Y13208000D01*
X9652000Y13208000D01*
X9652000Y11899900D01*
X10844059Y11899900D01*
X8806580Y9862420D01*
X8586338Y9532807D01*
X8573507Y9468300D01*
X8509000Y9144000D01*
X8509000Y8819942D01*
X8152712Y8749072D01*
X7622445Y8394759D01*
X7268132Y7864492D01*
X7143714Y7239000D01*
X7268132Y6613508D01*
X7279750Y6596120D01*
X5735320Y6596120D01*
X5500003Y6551842D01*
X5283879Y6412770D01*
X5138889Y6200570D01*
X5087880Y5948680D01*
X5087880Y3449320D01*
X5132158Y3214003D01*
X5190320Y3123616D01*
X4408875Y3279055D01*
X3046419Y4189420D01*
X2136055Y5551877D01*
X1801000Y7236314D01*
X1801000Y12985945D01*
X6733457Y12985945D01*
X6750999Y12903143D01*
X7020888Y12410033D01*
X7458938Y12057741D01*
X7998460Y11899900D01*
X9398000Y11899900D01*
X9398000Y13208000D01*
X6855444Y13208000D01*
X6733457Y12985945D01*
X1801000Y12985945D01*
X1801000Y13684055D01*
X6733457Y13684055D01*
X6855444Y13462000D01*
X9398000Y13462000D01*
X9398000Y14770100D01*
X7998460Y14770100D01*
X7458938Y14612259D01*
X7020888Y14259967D01*
X6750999Y13766857D01*
X6733457Y13684055D01*
X1801000Y13684055D01*
X1801000Y16736185D01*
X3880630Y16736185D01*
X4204980Y15951200D01*
X4805041Y15350091D01*
X5589459Y15024372D01*
X6438815Y15023630D01*
X7223800Y15347980D01*
X7824909Y15948041D01*
X8150628Y16732459D01*
X8151370Y17581815D01*
X7827020Y18366800D01*
X7226959Y18967909D01*
X6442541Y19293628D01*
X5593185Y19294370D01*
X4808200Y18970020D01*
X4207091Y18369959D01*
X3881372Y17585541D01*
X3880630Y16736185D01*
X1801000Y16736185D01*
X1801000Y26219745D01*
X6121400Y26219745D01*
X6121400Y25850255D01*
X6235474Y25276766D01*
X6560330Y24790585D01*
X7046511Y24465729D01*
X7620000Y24351655D01*
X8193489Y24465729D01*
X8679670Y24790585D01*
X8890000Y25105366D01*
X9100330Y24790585D01*
X9586511Y24465729D01*
X10160000Y24351655D01*
X10733489Y24465729D01*
X11219670Y24790585D01*
X11430000Y25105366D01*
X11640330Y24790585D01*
X12126511Y24465729D01*
X12700000Y24351655D01*
X13273489Y24465729D01*
X13759670Y24790585D01*
X13970000Y25105366D01*
X14180330Y24790585D01*
X14666511Y24465729D01*
X15240000Y24351655D01*
X15813489Y24465729D01*
X16299670Y24790585D01*
X16510000Y25105366D01*
X16720330Y24790585D01*
X17206511Y24465729D01*
X17780000Y24351655D01*
X18353489Y24465729D01*
X18839670Y24790585D01*
X19050000Y25105366D01*
X19260330Y24790585D01*
X19746511Y24465729D01*
X20320000Y24351655D01*
X20893489Y24465729D01*
X21379670Y24790585D01*
X21590000Y25105366D01*
X21800330Y24790585D01*
X22286511Y24465729D01*
X22860000Y24351655D01*
X23433489Y24465729D01*
X23919670Y24790585D01*
X24130000Y25105366D01*
X24340330Y24790585D01*
X24826511Y24465729D01*
X25400000Y24351655D01*
X25973489Y24465729D01*
X26459670Y24790585D01*
X26670000Y25105366D01*
X26880330Y24790585D01*
X27366511Y24465729D01*
X27940000Y24351655D01*
X28513489Y24465729D01*
X28999670Y24790585D01*
X29206461Y25100069D01*
X29577964Y24684268D01*
X30105209Y24430291D01*
X30120974Y24427642D01*
X30353000Y24548783D01*
X30353000Y25908000D01*
X30333000Y25908000D01*
X30333000Y26162000D01*
X30353000Y26162000D01*
X30353000Y27521217D01*
X30607000Y27521217D01*
X30607000Y26162000D01*
X30627000Y26162000D01*
X30627000Y25908000D01*
X30607000Y25908000D01*
X30607000Y24548783D01*
X30839026Y24427642D01*
X30854791Y24430291D01*
X31382036Y24684268D01*
X31753539Y25100069D01*
X31960330Y24790585D01*
X32446511Y24465729D01*
X33020000Y24351655D01*
X33593489Y24465729D01*
X34079670Y24790585D01*
X34290000Y25105366D01*
X34500330Y24790585D01*
X34986511Y24465729D01*
X35560000Y24351655D01*
X36133489Y24465729D01*
X36619670Y24790585D01*
X36830000Y25105366D01*
X37040330Y24790585D01*
X37526511Y24465729D01*
X38100000Y24351655D01*
X38673489Y24465729D01*
X39159670Y24790585D01*
X39366461Y25100069D01*
X39737964Y24684268D01*
X40265209Y24430291D01*
X40280974Y24427642D01*
X40513000Y24548783D01*
X40513000Y25908000D01*
X40493000Y25908000D01*
X40493000Y26162000D01*
X40513000Y26162000D01*
X40513000Y27521217D01*
X40280974Y27642358D01*
X40265209Y27639709D01*
X39737964Y27385732D01*
X39366461Y26969931D01*
X39159670Y27279415D01*
X38673489Y27604271D01*
X38100000Y27718345D01*
X37526511Y27604271D01*
X37040330Y27279415D01*
X36830000Y26964634D01*
X36619670Y27279415D01*
X36133489Y27604271D01*
X35560000Y27718345D01*
X34986511Y27604271D01*
X34500330Y27279415D01*
X34290000Y26964634D01*
X34079670Y27279415D01*
X33593489Y27604271D01*
X33020000Y27718345D01*
X32446511Y27604271D01*
X31960330Y27279415D01*
X31753539Y26969931D01*
X31382036Y27385732D01*
X30854791Y27639709D01*
X30839026Y27642358D01*
X30607000Y27521217D01*
X30353000Y27521217D01*
X30120974Y27642358D01*
X30105209Y27639709D01*
X29577964Y27385732D01*
X29206461Y26969931D01*
X28999670Y27279415D01*
X28513489Y27604271D01*
X27940000Y27718345D01*
X27366511Y27604271D01*
X26880330Y27279415D01*
X26670000Y26964634D01*
X26459670Y27279415D01*
X25973489Y27604271D01*
X25400000Y27718345D01*
X24826511Y27604271D01*
X24340330Y27279415D01*
X24130000Y26964634D01*
X23919670Y27279415D01*
X23433489Y27604271D01*
X22860000Y27718345D01*
X22286511Y27604271D01*
X21800330Y27279415D01*
X21590000Y26964634D01*
X21379670Y27279415D01*
X20893489Y27604271D01*
X20320000Y27718345D01*
X19746511Y27604271D01*
X19260330Y27279415D01*
X19050000Y26964634D01*
X18839670Y27279415D01*
X18353489Y27604271D01*
X17780000Y27718345D01*
X17206511Y27604271D01*
X16720330Y27279415D01*
X16510000Y26964634D01*
X16299670Y27279415D01*
X15813489Y27604271D01*
X15240000Y27718345D01*
X14666511Y27604271D01*
X14180330Y27279415D01*
X13970000Y26964634D01*
X13759670Y27279415D01*
X13273489Y27604271D01*
X12700000Y27718345D01*
X12126511Y27604271D01*
X11640330Y27279415D01*
X11430000Y26964634D01*
X11219670Y27279415D01*
X10733489Y27604271D01*
X10160000Y27718345D01*
X9586511Y27604271D01*
X9100330Y27279415D01*
X8890000Y26964634D01*
X8679670Y27279415D01*
X8193489Y27604271D01*
X7620000Y27718345D01*
X7046511Y27604271D01*
X6560330Y27279415D01*
X6235474Y26793234D01*
X6121400Y26219745D01*
X1801000Y26219745D01*
X1801000Y30530000D01*
X2268173Y30530000D01*
X2362182Y30057386D01*
X2629896Y29656723D01*
X3030559Y29389009D01*
X3503173Y29295000D01*
X5386827Y29295000D01*
X5859441Y29389009D01*
X6260104Y29656723D01*
X6527818Y30057386D01*
X6621827Y30530000D01*
X6527818Y31002614D01*
X6260104Y31403277D01*
X5859441Y31670991D01*
X5386827Y31765000D01*
X3503173Y31765000D01*
X3030559Y31670991D01*
X2629896Y31403277D01*
X2362182Y31002614D01*
X2268173Y30530000D01*
X1801000Y30530000D01*
X1801000Y88614250D01*
X4699000Y88614250D01*
X4699000Y87757691D01*
X4795673Y87524302D01*
X4974301Y87345673D01*
X5207690Y87249000D01*
X6064250Y87249000D01*
X6223000Y87407750D01*
X6223000Y88773000D01*
X6477000Y88773000D01*
X6477000Y87407750D01*
X6635750Y87249000D01*
X7492310Y87249000D01*
X7725699Y87345673D01*
X7904327Y87524302D01*
X8001000Y87757691D01*
X8001000Y88614250D01*
X7842250Y88773000D01*
X6477000Y88773000D01*
X6223000Y88773000D01*
X4857750Y88773000D01*
X4699000Y88614250D01*
X1801000Y88614250D01*
X1801000Y91113037D01*
X4698714Y91113037D01*
X4949534Y90506005D01*
X4993276Y90462187D01*
X4974301Y90454327D01*
X4795673Y90275698D01*
X4699000Y90042309D01*
X4699000Y89185750D01*
X4857750Y89027000D01*
X6223000Y89027000D01*
X6223000Y89047000D01*
X6477000Y89047000D01*
X6477000Y89027000D01*
X7842250Y89027000D01*
X8001000Y89185750D01*
X8001000Y90042309D01*
X7904327Y90275698D01*
X7725699Y90454327D01*
X7707192Y90461993D01*
X7748834Y90503563D01*
X8000713Y91110155D01*
X8001286Y91766963D01*
X7750466Y92373995D01*
X7286437Y92838834D01*
X6679845Y93090713D01*
X6023037Y93091286D01*
X5416005Y92840466D01*
X4951166Y92376437D01*
X4699287Y91769845D01*
X4698714Y91113037D01*
X1801000Y91113037D01*
X1801000Y96736185D01*
X3880630Y96736185D01*
X4204980Y95951200D01*
X4805041Y95350091D01*
X5589459Y95024372D01*
X6438815Y95023630D01*
X7223800Y95347980D01*
X7824909Y95948041D01*
X8150628Y96732459D01*
X8151370Y97581815D01*
X7827020Y98366800D01*
X7226959Y98967909D01*
X6442541Y99293628D01*
X5593185Y99294370D01*
X4808200Y98970020D01*
X4207091Y98369959D01*
X3881372Y97585541D01*
X3880630Y96736185D01*
X1801000Y96736185D01*
X1801000Y97081686D01*
X2136055Y98766123D01*
X3046419Y100128580D01*
X4408875Y101038945D01*
X6093314Y101374000D01*
X45938686Y101374000D01*
X47623123Y101038945D01*
G36*
X9144000Y53574982D02*
X9030173Y53461353D01*
X8889906Y53123554D01*
X8751146Y53459380D01*
X8376353Y53834827D01*
X7886413Y54038268D01*
X7355914Y54038731D01*
X6865620Y53836146D01*
X6490173Y53461353D01*
X6387867Y53214974D01*
X3937000Y55665840D01*
X3937000Y56229250D01*
X4699000Y56229250D01*
X4699000Y55372691D01*
X4795673Y55139302D01*
X4974301Y54960673D01*
X5207690Y54864000D01*
X6064250Y54864000D01*
X6223000Y55022750D01*
X6223000Y56388000D01*
X6477000Y56388000D01*
X6477000Y55022750D01*
X6635750Y54864000D01*
X7492310Y54864000D01*
X7725699Y54960673D01*
X7904327Y55139302D01*
X8001000Y55372691D01*
X8001000Y56229250D01*
X7842250Y56388000D01*
X6477000Y56388000D01*
X6223000Y56388000D01*
X4857750Y56388000D01*
X4699000Y56229250D01*
X3937000Y56229250D01*
X3937000Y58728037D01*
X4698714Y58728037D01*
X4949534Y58121005D01*
X4993276Y58077187D01*
X4974301Y58069327D01*
X4795673Y57890698D01*
X4699000Y57657309D01*
X4699000Y56800750D01*
X4857750Y56642000D01*
X6223000Y56642000D01*
X6223000Y56662000D01*
X6477000Y56662000D01*
X6477000Y56642000D01*
X7842250Y56642000D01*
X8001000Y56800750D01*
X8001000Y57657309D01*
X7904327Y57890698D01*
X7725699Y58069327D01*
X7707192Y58076993D01*
X7748834Y58118563D01*
X8000713Y58725155D01*
X8001286Y59381963D01*
X7750466Y59988995D01*
X7286437Y60453834D01*
X6679845Y60705713D01*
X6023037Y60706286D01*
X5416005Y60455466D01*
X4951166Y59991437D01*
X4699287Y59384845D01*
X4698714Y58728037D01*
X3937000Y58728037D01*
X3937000Y63563911D01*
X4561517Y63563911D01*
X4690725Y63271141D01*
X5390883Y63002929D01*
X6140384Y63023072D01*
X6739275Y63271141D01*
X6868483Y63563911D01*
X5715000Y64717395D01*
X4561517Y63563911D01*
X3937000Y63563911D01*
X3937000Y64240026D01*
X4089141Y63872725D01*
X4381911Y63743517D01*
X5535395Y64897000D01*
X5894605Y64897000D01*
X7048089Y63743517D01*
X7340859Y63872725D01*
X7609071Y64572883D01*
X7588928Y65322384D01*
X7340859Y65921275D01*
X7048089Y66050483D01*
X5894605Y64897000D01*
X5535395Y64897000D01*
X4381911Y66050483D01*
X4089141Y65921275D01*
X3937000Y65524116D01*
X3937000Y66230089D01*
X4561517Y66230089D01*
X5715000Y65076605D01*
X6868483Y66230089D01*
X6739275Y66522859D01*
X6039117Y66791071D01*
X5289616Y66770928D01*
X4690725Y66522859D01*
X4561517Y66230089D01*
X3937000Y66230089D01*
X3937000Y69344784D01*
X4116314Y68910809D01*
X4646021Y68380178D01*
X5338469Y68092648D01*
X6088241Y68091994D01*
X6781191Y68378314D01*
X7311822Y68908021D01*
X7599352Y69600469D01*
X7600006Y70350241D01*
X7578099Y70403259D01*
X9100421Y71925580D01*
X9144000Y71990800D01*
X9144000Y53574982D01*
X9144000Y53574982D01*
G37*
X9144000Y53574982D02*
X9030173Y53461353D01*
X8889906Y53123554D01*
X8751146Y53459380D01*
X8376353Y53834827D01*
X7886413Y54038268D01*
X7355914Y54038731D01*
X6865620Y53836146D01*
X6490173Y53461353D01*
X6387867Y53214974D01*
X3937000Y55665840D01*
X3937000Y56229250D01*
X4699000Y56229250D01*
X4699000Y55372691D01*
X4795673Y55139302D01*
X4974301Y54960673D01*
X5207690Y54864000D01*
X6064250Y54864000D01*
X6223000Y55022750D01*
X6223000Y56388000D01*
X6477000Y56388000D01*
X6477000Y55022750D01*
X6635750Y54864000D01*
X7492310Y54864000D01*
X7725699Y54960673D01*
X7904327Y55139302D01*
X8001000Y55372691D01*
X8001000Y56229250D01*
X7842250Y56388000D01*
X6477000Y56388000D01*
X6223000Y56388000D01*
X4857750Y56388000D01*
X4699000Y56229250D01*
X3937000Y56229250D01*
X3937000Y58728037D01*
X4698714Y58728037D01*
X4949534Y58121005D01*
X4993276Y58077187D01*
X4974301Y58069327D01*
X4795673Y57890698D01*
X4699000Y57657309D01*
X4699000Y56800750D01*
X4857750Y56642000D01*
X6223000Y56642000D01*
X6223000Y56662000D01*
X6477000Y56662000D01*
X6477000Y56642000D01*
X7842250Y56642000D01*
X8001000Y56800750D01*
X8001000Y57657309D01*
X7904327Y57890698D01*
X7725699Y58069327D01*
X7707192Y58076993D01*
X7748834Y58118563D01*
X8000713Y58725155D01*
X8001286Y59381963D01*
X7750466Y59988995D01*
X7286437Y60453834D01*
X6679845Y60705713D01*
X6023037Y60706286D01*
X5416005Y60455466D01*
X4951166Y59991437D01*
X4699287Y59384845D01*
X4698714Y58728037D01*
X3937000Y58728037D01*
X3937000Y63563911D01*
X4561517Y63563911D01*
X4690725Y63271141D01*
X5390883Y63002929D01*
X6140384Y63023072D01*
X6739275Y63271141D01*
X6868483Y63563911D01*
X5715000Y64717395D01*
X4561517Y63563911D01*
X3937000Y63563911D01*
X3937000Y64240026D01*
X4089141Y63872725D01*
X4381911Y63743517D01*
X5535395Y64897000D01*
X5894605Y64897000D01*
X7048089Y63743517D01*
X7340859Y63872725D01*
X7609071Y64572883D01*
X7588928Y65322384D01*
X7340859Y65921275D01*
X7048089Y66050483D01*
X5894605Y64897000D01*
X5535395Y64897000D01*
X4381911Y66050483D01*
X4089141Y65921275D01*
X3937000Y65524116D01*
X3937000Y66230089D01*
X4561517Y66230089D01*
X5715000Y65076605D01*
X6868483Y66230089D01*
X6739275Y66522859D01*
X6039117Y66791071D01*
X5289616Y66770928D01*
X4690725Y66522859D01*
X4561517Y66230089D01*
X3937000Y66230089D01*
X3937000Y69344784D01*
X4116314Y68910809D01*
X4646021Y68380178D01*
X5338469Y68092648D01*
X6088241Y68091994D01*
X6781191Y68378314D01*
X7311822Y68908021D01*
X7599352Y69600469D01*
X7600006Y70350241D01*
X7578099Y70403259D01*
X9100421Y71925580D01*
X9144000Y71990800D01*
X9144000Y53574982D01*
M02*
