G04 #@! TF.FileFunction,Soldermask,Bot*
%FSLAX46Y46*%
G04 Gerber Fmt 4.6, Leading zero omitted, Abs format (unit mm)*
G04 Created by KiCad (PCBNEW 4.0.4-stable) date 06/22/17 17:56:04*
%MOMM*%
%LPD*%
G01*
G04 APERTURE LIST*
%ADD10C,0.150000*%
%ADD11R,3.007360X3.007360*%
%ADD12C,3.007360*%
%ADD13C,2.308000*%
%ADD14C,3.008000*%
%ADD15R,2.508000X3.508000*%
%ADD16O,2.508000X3.508000*%
%ADD17R,2.540000X2.540000*%
%ADD18C,2.540000*%
%ADD19C,2.413000*%
%ADD20C,3.048000*%
%ADD21O,2.794000X2.082800*%
%ADD22R,2.794000X2.082800*%
%ADD23R,2.082800X2.794000*%
%ADD24O,2.082800X2.794000*%
%ADD25R,2.008000X2.008000*%
%ADD26C,2.008000*%
%ADD27R,2.608580X2.608580*%
%ADD28C,2.707640*%
%ADD29C,2.108200*%
%ADD30C,2.908300*%
%ADD31C,2.608580*%
%ADD32C,2.508000*%
%ADD33O,3.508000X1.708000*%
%ADD34C,3.758000*%
G04 APERTURE END LIST*
D10*
D11*
X10160000Y72390000D03*
D12*
X10160000Y77470000D03*
D13*
X12446000Y74041000D03*
X12446000Y76073000D03*
D14*
X100155000Y77040000D03*
D15*
X36655000Y77040000D03*
D16*
X108655000Y77040000D03*
D14*
X45155000Y77040000D03*
D17*
X20955000Y76835000D03*
D18*
X23495000Y76835000D03*
D17*
X28575000Y72390000D03*
D18*
X31115000Y72390000D03*
D17*
X24130000Y54610000D03*
D18*
X24130000Y52070000D03*
D17*
X45720000Y59690000D03*
D18*
X45720000Y57150000D03*
D17*
X53340000Y59690000D03*
D18*
X53340000Y57150000D03*
D19*
X59690000Y60960000D03*
X59690000Y55880000D03*
X20320000Y43180000D03*
X15240000Y43180000D03*
D18*
X45720000Y31750000D03*
X45720000Y34290000D03*
X45720000Y27940000D03*
X45720000Y25400000D03*
X25400000Y16510000D03*
X25400000Y19050000D03*
X25400000Y21590000D03*
D17*
X25400000Y24130000D03*
D18*
X13335000Y21590000D03*
D17*
X13335000Y19050000D03*
D20*
X74930000Y59690000D03*
X65532000Y59690000D03*
X16510000Y73660000D03*
X16510000Y64262000D03*
D18*
X15240000Y84455000D03*
D17*
X17780000Y84455000D03*
D18*
X24130000Y84455000D03*
D17*
X26670000Y84455000D03*
D21*
X50800000Y48260000D03*
X50800000Y45720000D03*
X50800000Y43180000D03*
X50800000Y40640000D03*
X50800000Y38100000D03*
X50800000Y35560000D03*
X50800000Y33020000D03*
X50800000Y30480000D03*
X50800000Y27940000D03*
X50800000Y25400000D03*
X50800000Y22860000D03*
X50800000Y20320000D03*
X50800000Y17780000D03*
D22*
X50800000Y50800000D03*
D21*
X58420000Y17780000D03*
X58420000Y20320000D03*
X58420000Y22860000D03*
X58420000Y25400000D03*
X58420000Y27940000D03*
X58420000Y30480000D03*
X58420000Y33020000D03*
X58420000Y35560000D03*
X58420000Y38100000D03*
X58420000Y40640000D03*
X58420000Y43180000D03*
X58420000Y45720000D03*
X58420000Y48260000D03*
X58420000Y50800000D03*
D23*
X64770000Y39370000D03*
D24*
X67310000Y39370000D03*
X69850000Y39370000D03*
X72390000Y39370000D03*
X74930000Y39370000D03*
X77470000Y39370000D03*
X80010000Y39370000D03*
X82550000Y39370000D03*
X85090000Y39370000D03*
X87630000Y39370000D03*
X90170000Y39370000D03*
X92710000Y39370000D03*
X95250000Y39370000D03*
X97790000Y39370000D03*
X100330000Y39370000D03*
X100330000Y54610000D03*
X97790000Y54610000D03*
X95250000Y54610000D03*
X92710000Y54610000D03*
X90170000Y54610000D03*
X87630000Y54610000D03*
X85090000Y54610000D03*
X82550000Y54610000D03*
X80010000Y54610000D03*
X77470000Y54610000D03*
X74930000Y54610000D03*
X72390000Y54610000D03*
X69850000Y54610000D03*
X67310000Y54610000D03*
X64770000Y54610000D03*
D11*
X13970000Y8255000D03*
D12*
X19050000Y8255000D03*
D11*
X27940000Y8255000D03*
D12*
X33020000Y8255000D03*
X69850000Y8255000D03*
D11*
X59690000Y8255000D03*
D12*
X64770000Y8255000D03*
X50800000Y8255000D03*
D11*
X40640000Y8255000D03*
D12*
X45720000Y8255000D03*
D11*
X77470000Y8255000D03*
D12*
X82550000Y8255000D03*
D17*
X113030000Y49530000D03*
D18*
X115570000Y49530000D03*
X118110000Y49530000D03*
X120650000Y49530000D03*
D25*
X113840000Y51641000D03*
D26*
X115840000Y51641000D03*
X117840000Y51641000D03*
X119840000Y51641000D03*
D17*
X113030000Y39370000D03*
D18*
X115570000Y39370000D03*
X118110000Y39370000D03*
X120650000Y39370000D03*
D25*
X113840000Y41481000D03*
D26*
X115840000Y41481000D03*
X117840000Y41481000D03*
X119840000Y41481000D03*
D27*
X11430000Y27940000D03*
D28*
X11430000Y30480000D03*
X11430000Y33020000D03*
X11430000Y35560000D03*
X11430000Y38100000D03*
D17*
X113030000Y59690000D03*
D18*
X115570000Y59690000D03*
X118110000Y59690000D03*
X120650000Y59690000D03*
D25*
X113840000Y61801000D03*
D26*
X115840000Y61801000D03*
X117840000Y61801000D03*
X119840000Y61801000D03*
D29*
X66040000Y22225000D03*
X68580000Y22225000D03*
X66040000Y24765000D03*
X68580000Y24765000D03*
X66040000Y27305000D03*
X68580000Y27305000D03*
D27*
X11430000Y43180000D03*
D28*
X11430000Y45720000D03*
X11430000Y48260000D03*
X11430000Y50800000D03*
X11430000Y53340000D03*
X11430000Y55880000D03*
D17*
X113030000Y29210000D03*
D18*
X115570000Y29210000D03*
X118110000Y29210000D03*
X120650000Y29210000D03*
D25*
X113840000Y31321000D03*
D26*
X115840000Y31321000D03*
X117840000Y31321000D03*
X119840000Y31321000D03*
D27*
X109855000Y20320000D03*
D28*
X112395000Y20320000D03*
X114935000Y20320000D03*
X117475000Y20320000D03*
X120015000Y20320000D03*
D18*
X26670000Y41910000D03*
X34290000Y41910000D03*
X26670000Y44450000D03*
X34290000Y44450000D03*
X26670000Y39370000D03*
X34290000Y39370000D03*
X76200000Y15240000D03*
X83820000Y15240000D03*
X19050000Y24130000D03*
X19050000Y16510000D03*
X63500000Y63500000D03*
X71120000Y63500000D03*
X73660000Y63500000D03*
X81280000Y63500000D03*
X19685000Y64135000D03*
X27305000Y64135000D03*
X19685000Y66675000D03*
X27305000Y66675000D03*
X19685000Y61595000D03*
X27305000Y61595000D03*
X19685000Y59055000D03*
X27305000Y59055000D03*
X46990000Y38100000D03*
X46990000Y45720000D03*
X100965000Y27940000D03*
X93345000Y27940000D03*
X93345000Y24765000D03*
X100965000Y24765000D03*
X107950000Y10160000D03*
X107950000Y5080000D03*
X100330000Y10160000D03*
X100330000Y5080000D03*
X96520000Y10160000D03*
X96520000Y5080000D03*
X88900000Y10160000D03*
X88900000Y5080000D03*
D30*
X40005000Y50800000D03*
X46355000Y50800000D03*
D31*
X35560000Y58420000D03*
X33020000Y58420000D03*
D27*
X38100000Y58420000D03*
D18*
X40640000Y27305000D03*
X40640000Y32385000D03*
D19*
X31750000Y78740000D03*
X30750000Y83840000D03*
D11*
X10160000Y62230000D03*
D12*
X10160000Y67310000D03*
D31*
X104775000Y31115000D03*
X104775000Y28575000D03*
D27*
X104775000Y26035000D03*
D32*
X118770400Y73017380D03*
X118745000Y76025000D03*
X118745000Y70025000D03*
D33*
X118745000Y79325000D03*
X118745000Y66725000D03*
D34*
X6905000Y8810000D03*
X6905000Y83810000D03*
X116905000Y83810000D03*
X116905000Y8810000D03*
M02*
