M48
;DRILL file {KiCad 4.0.4-stable} date 06/22/17 17:56:06
;FORMAT={-:-/ absolute / inch / decimal}
FMAT,2
INCH,TZ
T1C0.016
T2C0.020
T3C0.025
T4C0.031
T5C0.032
T6C0.032
T7C0.039
T8C0.047
T9C0.098
T10C0.128
%
G90
G05
M72
T3
X0.775Y2.755
X0.97Y1.905
X0.995Y1.835
X1.02Y2.81
X1.02Y2.76
X1.77Y1.84
X1.86Y0.64
X1.915Y0.85
X2.65Y1.205
X2.785Y1.205
X3.16Y2.36
X3.33Y2.38
X3.385Y1.025
X3.725Y1.775
X3.775Y1.725
X3.87Y1.68
X3.9Y1.635
X4.14Y2.13
X4.145Y1.775
X4.16Y1.725
T4
X0.49Y2.995
X0.49Y2.915
X1.2106Y3.3008
X1.25Y3.1
X4.4819Y2.4331
X4.4819Y2.0331
X4.4819Y1.6331
X4.4819Y1.2331
X4.5606Y2.4331
X4.5606Y2.0331
X4.5606Y1.6331
X4.5606Y1.2331
X4.6394Y2.4331
X4.6394Y2.0331
X4.6394Y1.6331
X4.6394Y1.2331
X4.675Y2.9931
X4.675Y2.7569
X4.676Y2.8747
X4.7181Y2.4331
X4.7181Y2.0331
X4.7181Y1.6331
X4.7181Y1.2331
T5
X0.6Y1.7
X0.75Y0.95
X0.75Y0.65
X0.775Y2.625
X0.775Y2.525
X0.775Y2.425
X0.775Y2.325
X0.8Y1.7
X0.825Y3.025
X0.925Y3.025
X0.95Y2.15
X0.95Y2.05
X1.05Y1.75
X1.05Y1.65
X1.05Y1.55
X1.075Y2.625
X1.075Y2.525
X1.075Y2.425
X1.075Y2.325
X1.125Y2.85
X1.225Y2.85
X1.35Y1.75
X1.35Y1.65
X1.35Y1.55
X1.6Y1.275
X1.8Y2.35
X1.8Y2.25
X1.8Y1.35
X1.8Y1.25
X1.8Y1.1
X1.8Y1.
X1.85Y1.8
X1.85Y1.5
X2.1Y2.35
X2.1Y2.25
X2.35Y2.4
X2.35Y2.2
X2.5Y2.5
X2.8Y2.5
X2.9Y2.5
X3.Y0.6
X3.2Y2.5
X3.3Y0.6
X3.675Y1.1
X3.675Y0.975
X3.975Y1.1
X3.975Y0.975
T6
X0.525Y0.85
X0.525Y0.75
X0.6Y3.325
X0.7Y3.325
X0.95Y3.325
X1.Y0.95
X1.Y0.85
X1.Y0.75
X1.Y0.65
X1.05Y3.325
X1.6Y1.075
X2.Y2.
X2.Y1.9
X2.Y1.8
X2.Y1.7
X2.Y1.6
X2.Y1.5
X2.Y1.4
X2.Y1.3
X2.Y1.2
X2.Y1.1
X2.Y1.
X2.Y0.9
X2.Y0.8
X2.Y0.7
X2.3Y2.
X2.3Y1.9
X2.3Y1.8
X2.3Y1.7
X2.3Y1.6
X2.3Y1.5
X2.3Y1.4
X2.3Y1.3
X2.3Y1.2
X2.3Y1.1
X2.3Y1.
X2.3Y0.9
X2.3Y0.8
X2.3Y0.7
X2.55Y2.15
X2.55Y1.55
X2.65Y2.15
X2.65Y1.55
X2.75Y2.15
X2.75Y1.55
X2.85Y2.15
X2.85Y1.55
X2.95Y2.15
X2.95Y1.55
X3.05Y2.15
X3.05Y1.55
X3.15Y2.15
X3.15Y1.55
X3.25Y2.15
X3.25Y1.55
X3.35Y2.15
X3.35Y1.55
X3.45Y2.15
X3.45Y1.55
X3.55Y2.15
X3.55Y1.55
X3.65Y2.15
X3.65Y1.55
X3.75Y2.15
X3.75Y1.55
X3.85Y2.15
X3.85Y1.55
X3.95Y2.15
X3.95Y1.55
T7
X0.4Y3.05
X0.4Y2.85
X0.4Y2.65
X0.4Y2.45
X0.45Y2.2
X0.45Y2.1
X0.45Y2.
X0.45Y1.9
X0.45Y1.8
X0.45Y1.7
X0.45Y1.5
X0.45Y1.4
X0.45Y1.3
X0.45Y1.2
X0.45Y1.1
X0.55Y0.325
X0.65Y2.9
X0.65Y2.53
X0.75Y0.325
X1.1Y0.325
X1.3Y2.3
X1.3Y0.325
X1.4Y2.3
X1.5Y2.3
X1.6Y0.325
X1.8Y0.325
X2.Y0.325
X2.35Y0.325
X2.55Y0.325
X2.58Y2.35
X2.6Y1.075
X2.6Y0.975
X2.6Y0.875
X2.7Y1.075
X2.7Y0.975
X2.7Y0.875
X2.75Y0.325
X2.95Y2.35
X3.05Y0.325
X3.25Y0.325
X3.5Y0.4
X3.5Y0.2
X3.8Y0.4
X3.8Y0.2
X3.95Y0.4
X3.95Y0.2
X4.125Y1.225
X4.125Y1.125
X4.125Y1.025
X4.25Y0.4
X4.25Y0.2
X4.325Y0.8
X4.425Y0.8
X4.45Y2.35
X4.45Y1.95
X4.45Y1.55
X4.45Y1.15
X4.525Y0.8
X4.55Y2.35
X4.55Y1.95
X4.55Y1.55
X4.55Y1.15
X4.625Y0.8
X4.65Y2.35
X4.65Y1.95
X4.65Y1.55
X4.65Y1.15
X4.725Y0.8
X4.75Y2.35
X4.75Y1.95
X4.75Y1.55
X4.75Y1.15
T8
X1.575Y2.
X1.825Y2.
T9
X1.7778Y3.0331
X3.9431Y3.0331
T10
X0.2719Y3.2996
X0.2719Y0.3469
X4.6026Y3.2996
X4.6026Y0.3469
T1
X4.6396Y3.123G85X4.7104Y3.123
G05
X4.6396Y2.627G85X4.7104Y2.627
G05
T2
X1.4431Y3.0547G85X1.4431Y3.0114
G05
X4.2778Y3.0547G85X4.2778Y3.0114
G05
T0
M30
